<svg width="555" height="555" viewBox="0 0 555 555" fill="none" xmlns="http://www.w3.org/2000/svg"><g clip-path="url(#clip0_2464_44055)"><path opacity=".6" d="M438.12 174h101.94c6.91 0 12.95-4.84 14.31-11.61.43-2.03.63-4.16.63-6.34 0-14.07-9.09-26.02-21.75-30.27 0-.53.05-1.11.05-1.64 0-20.5-16.63-37.14-37.12-37.14-14.74 0-27.5 8.61-33.5 21.08-2.95-.63-5.99-.87-9.18-.77-20.35.77-36.54 17.65-36.49 38.01 0 7.59 2.22 14.65 6.09 20.55 3.28 5.08 8.98 8.13 15.02 8.13z" fill="url(#paint0_radial_2464_44055)"/><path opacity=".4" d="M302.57 56.02h65.62c4.44 0 8.29-3.13 9.21-7.44.26-1.31.39-2.68.39-4.11 0-9.08-5.88-16.72-13.97-19.46v-1.04c0-13.19-10.71-23.9-23.9-23.9-9.53 0-17.7 5.55-21.55 13.58-1.89-.39-3.85-.59-5.88-.46-13.06.52-23.51 11.36-23.51 24.49 0 4.9 1.44 9.4 3.92 13.25 2.1 3.13 5.76 5.09 9.67 5.09z" fill="url(#paint1_radial_2464_44055)"/><path opacity=".6" d="M129.54 152.44H16.52c-7.64 0-14.36-5.35-15.87-12.86-.46-2.29-.72-4.64-.72-7.05 0-15.61 10.12-28.86 24.09-33.56 0-.59-.07-1.24-.07-1.83C23.96 74.41 42.37 56 65.1 56c16.39 0 30.49 9.53 37.15 23.38 3.26-.65 6.66-.98 10.19-.85 22.53.85 40.48 19.59 40.42 42.11 0 8.42-2.48 16.19-6.73 22.79-3.59 5.68-9.86 9.01-16.59 9.01z" fill="url(#paint2_radial_2464_44055)"/><path d="M124.2 279.25l-9.8 4.7 18.2 37.8 9.8-4.8-18.2-37.7z" fill="url(#paint3_linear_2464_44055)"/><path d="M139 247.65l-10.3-3.7-14.4 39.3 10.2 3.8 14.5-39.4z" fill="url(#paint4_linear_2464_44055)"/><path d="M143.9 315.65l3.8 24.6s-16.7 7.5-19.3-8.5c-2.2-13.5 15.5-16.1 15.5-16.1z" fill="url(#paint5_linear_2464_44055)"/><path d="M119.8 293.05c4.92 0 8.9-3.98 8.9-8.9s-3.98-8.9-8.9-8.9c-4.91 0-8.9 3.98-8.9 8.9s3.98 8.9 8.9 8.9z" fill="url(#paint6_linear_2464_44055)"/><path d="M126.4 245.15s-.3-9.2 4.8-19.6c5.1-10.3 10.6-10.3 13.2-9.6 4.6 1.3-6.8 18.8-2.2 18.3 2.7-.3 3.6-4.3 5.5-5.9 1.9-1.6 3.8-.5 2.5 3.5-2.7 8.1-11.7 18.3-11.7 18.3s-8.3 1.3-12.1-5z" fill="url(#paint7_linear_2464_44055)"/><path d="M157.6 314.15l27.5 3.7.7-5.7-27.4-3.6-.8 5.6z" fill="url(#paint8_linear_2464_44055)"/><path d="M155.7 268.15c13.3-12.2 46.4-3.4 49.7 6.7-3.8-.3-11.8 0-14.4 7.2-3.7 10.3-4.6 22.6-3.6 31.1l-39.6-5.4c.1-5.7-1.2-31.3 7.9-39.6z" fill="url(#paint9_linear_2464_44055)"/><path d="M191.1 282.05c2.6-7.1 10.6-7.5 14.4-7.2 2.8 8.7-3.4 33.3-5.2 40l-12.8-1.7c-1-8.5-.1-20.8 3.6-31.1z" fill="url(#paint10_linear_2464_44055)"/><path d="M183.3 312.55l-32.3-4.4c.1-2.8.2-25.5 6.2-34 7.4-10.5 23.4-4.8 30.1-1.7 1.7.8 2.4 2.7 1.6 4.4-1.4 3.1-3.5 8.6-4.9 16.6-1.5 8.9-1 16.4-.7 19.1z" fill="url(#paint11_linear_2464_44055)"/><path d="M156.1 318.75c1.4-2.7 4.3-4.2 7.3-3.8l14.8 2h.2l21.2 2.9c4 .5 6.9 3.9 7 7.8l.6 23.1c.1 2.2-.1 4.4-.4 6.6l-4.4 32.5-34.3-4.6-5.4-.7-22.8-3.1 4.5-33c.3-1.9.8-3.8 1.5-5.5l10.2-24.2z" fill="url(#paint12_linear_2464_44055)"/><path d="M143.1 317.05c1.4-2.7 4.3-4.2 7.3-3.8l14.8 2h.2l21.2 2.9c4 .5 6.9 3.9 7 7.8l.6 23.1c.1 2.2-.1 4.4-.4 6.6l-4.4 32.5-33.8 2.7-8.6-1.6-21.4-.8 5.6-41.7c.3-1.9.8-3.8 1.5-5.5l10.4-24.2z" fill="url(#paint13_linear_2464_44055)"/><path d="M178.1 291.55l-21.9-3c-.9-.1-1.6-1-1.4-1.9l.2-1.8c.1-.9 1-1.6 1.9-1.4l21.9 3c.9.1 1.6 1 1.4 1.9l-.2 1.8c-.1.8-1 1.5-1.9 1.4z" fill="url(#paint14_linear_2464_44055)"/><path opacity=".2" d="M183.8 254.25c10.33 0 18.7-8.37 18.7-18.7s-8.37-18.7-18.7-18.7-18.7 8.37-18.7 18.7 8.37 18.7 18.7 18.7z" fill="url(#paint15_linear_2464_44055)"/><path opacity=".3" d="M183.8 249.25c7.57 0 13.7-6.13 13.7-13.7 0-7.57-6.13-13.7-13.7-13.7-7.57 0-13.7 6.13-13.7 13.7 0 7.57 6.14 13.7 13.7 13.7z" fill="url(#paint16_linear_2464_44055)"/><path opacity=".4" d="M183.8 243.45c4.36 0 7.9-3.54 7.9-7.9s-3.54-7.9-7.9-7.9-7.9 3.54-7.9 7.9 3.54 7.9 7.9 7.9z" fill="url(#paint17_linear_2464_44055)"/><path opacity=".5" d="M183.8 239.45c2.15 0 3.9-1.75 3.9-3.9s-1.75-3.9-3.9-3.9-3.9 1.75-3.9 3.9c0 2.16 1.75 3.9 3.9 3.9z" fill="url(#paint18_linear_2464_44055)"/><path d="M183.8 235.55l-7.9 29.1 3.9.6 3.9.5.1-30.2z" fill="url(#paint19_linear_2464_44055)"/><path d="M183.7 265.75c0 .2-1.8.1-3.9-.2-2.1-.3-3.9-.7-3.8-.9 0-.2 1.8-.1 3.9.2 2.1.3 3.8.7 3.8.9z" fill="url(#paint20_linear_2464_44055)"/><path d="M204 350.65l-1.1-24.8s17.4-5.7 18.3 10.5c.6 13.7-17.2 14.3-17.2 14.3z" fill="url(#paint21_linear_2464_44055)"/><path d="M204 350.65l-6.6-.9 1.1-8.5 7.3 3.3-1.8 6.1z" fill="url(#paint22_linear_2464_44055)"/><path d="M219.7 389.95l10.3-3.6-13.9-39.5-10.3 3.6 13.9 39.5z" fill="url(#paint23_linear_2464_44055)"/><path d="M201.6 419.75l9.8 4.8 18.7-37.5-9.8-4.9-18.7 37.6z" fill="url(#paint24_linear_2464_44055)"/><path d="M211.9 325.15l-7.3-1 .3 3.1 6 .8 1-2.9z" fill="url(#paint25_linear_2464_44055)"/><path d="M197.4 349.75l-1.1-24.8s17.4-5.7 18.3 10.5c.6 13.7-17.2 14.3-17.2 14.3z" fill="url(#paint26_linear_2464_44055)"/><path d="M223.7 394.25c4.91 0 8.9-3.98 8.9-8.9s-3.99-8.9-8.9-8.9c-4.92 0-8.9 3.99-8.9 8.9 0 4.92 3.98 8.9 8.9 8.9z" fill="url(#paint27_linear_2464_44055)"/><path d="M213.9 423.65s-.7 9.2-6.9 18.9-11.7 9.1-14.1 8.1c-4.4-1.8 8.8-18 4.2-17.9-2.7 0-4 3.9-6.1 5.2-2.1 1.4-3.9.1-2.1-3.8 3.5-7.8 13.6-17 13.6-17s8.3-.2 11.4 6.5z" fill="url(#paint28_linear_2464_44055)"/><path d="M411.8 305.75l-22.7-8-21.8 8c-8 2.9-13.3 10.6-13.3 19.1l.1 55v28.2c22.6 10.7 48.8 10.5 71.3-.4l-.8-84.1c-.1-8-5.2-15.1-12.8-17.8z" fill="url(#paint29_linear_2464_44055)"/><path d="M411.8 305.75l-22.7-8-21.8 8c-8 2.9-13.3 10.6-13.3 19.1l.1 55v28.2c22.6 10.7 48.8 10.5 71.3-.4l-.8-84.1c-.1-8-5.2-15.1-12.8-17.8z" fill="url(#paint30_radial_2464_44055)"/><path d="M411.8 305.75l-22.7-8-21.8 8c-8 2.9-13.3 10.6-13.3 19.1l.1 55v28.2c22.6 10.7 48.8 10.5 71.3-.4l-.8-84.1c-.1-8-5.2-15.1-12.8-17.8z" fill="url(#paint31_radial_2464_44055)"/><path d="M358.6 386.65c-3.3-2.2-4.8-6.2-7.5-11.7 1.8.5 2.8 0 2.8 0s-.3-11.2 2.6-13.3l1.6 1.5s9.6-.9 15.4.6c.5 1.9 1.4 10.8-1.1 22.3 0 0 .1 6.4.1 17.7l-13.8.1-.1-17.2z" fill="url(#paint32_linear_2464_44055)"/><path d="M383.1 301.55s-31.7 2-38.5 20.3c-6.3 16.8-5.8 19.1-5.8 19.1s7.3 3.7 17.7 2.5c10.4-1.2 9.5-3.5 9.5-3.5l-.1-16.3 26.2-8.3-9-13.8z" fill="url(#paint33_radial_2464_44055)"/><path d="M346.9 325.65s-3.9 8.7-6.2 26.6c-2.1 16.2.3 30.2.3 30.2l16.4-11.2 4.6-43.6-15.1-2z" fill="url(#paint34_linear_2464_44055)"/><path d="M346.9 325.65s-3.9 8.7-6.2 26.6c-2.1 16.2.3 30.2.3 30.2l16.4-11.2 4.6-43.6-15.1-2z" fill="url(#paint35_linear_2464_44055)"/><path d="M397.2 301.45s31.7 1.7 38.7 19.9c6.4 16.7 6 19 6 19s-2.5 3.7-14.1 5.3c-10.4 1.4-9.5-3.4-9.5-3.4l-3.7-19-26.3-8 8.9-13.8z" fill="url(#paint36_radial_2464_44055)"/><path d="M365.9 323.55l.1 16.3s.3.6-1.1 1.4c-1.2.7-3.6 1.5-8.4 2.1-.9.1-1.7.2-2.5.2h-1.6c-5.9 0-10.4-1.4-12.4-2.2-.8-.3-1.2-.5-1.2-.5s-.5-2.3 5.8-19.1c.1-.2.1-.4.2-.6.1-.1.1-.3.2-.4 0-.1.1-.2.1-.3l.3-.6c.1-.1.1-.2.2-.4.2-.4.5-.8.7-1.3.1-.1.2-.2.2-.4l1.5-2.1.3-.3c.1-.2.3-.3.4-.5.1-.1.1-.2.2-.2l.7-.7.3-.3.3-.3c.7-.6 1.4-1.2 2.1-1.7.1-.1.2-.2.3-.2.2-.2.4-.3.6-.5 1.7-1.2 3.6-2.3 5.6-3.2.1-.1.3-.1.4-.2.1-.1.3-.1.4-.2.3-.1.5-.2.8-.4.1-.1.3-.1.4-.2.6-.2 1.1-.5 1.7-.7.3-.1.6-.2.8-.3.1-.1.3-.1.4-.2.3-.1.6-.2.8-.3.6-.2 1.1-.4 1.7-.5.1 0 .3-.1.4-.1.3-.1.5-.2.8-.2.3-.1.5-.2.8-.2l1.2-.3c.7-.2 1.3-.3 1.9-.5.4-.1.8-.2 1.1-.3.3-.1.7-.1 1-.2h.1c.7-.1 1.4-.3 2.1-.4.1 0 .2 0 .3-.1 4.1-.7 6.9-.9 6.9-.9l7.1 10.8 1.9 2.9-1.9.6-24 7.7z" fill="url(#paint37_linear_2464_44055)"/><path d="M365.9 323.55l.1 16.3s.3.6-1.1 1.4c-1.2.7-3.6 1.5-8.4 2.1-.9.1-1.7.2-2.5.2h-1.6c-5.9 0-10.4-1.4-12.4-2.2-.8-.3-1.2-.5-1.2-.5s-.5-2.3 5.8-19.1c.1-.2.1-.4.2-.6.1-.1.1-.3.2-.4 0-.1.1-.2.1-.3l.3-.6c.1-.1.1-.2.2-.4.2-.4.5-.8.7-1.3.1-.1.2-.2.2-.4l1.5-2.1.3-.3c.1-.2.3-.3.4-.5.1-.1.1-.2.2-.2l.7-.7.3-.3.3-.3c.7-.6 1.4-1.2 2.1-1.7.1-.1.2-.2.3-.2.2-.2.4-.3.6-.5 1.7-1.2 3.6-2.3 5.6-3.2.1-.1.3-.1.4-.2.1-.1.3-.1.4-.2.3-.1.5-.2.8-.4.1-.1.3-.1.4-.2.6-.2 1.1-.5 1.7-.7.3-.1.6-.2.8-.3.1-.1.3-.1.4-.2.3-.1.6-.2.8-.3.6-.2 1.1-.4 1.7-.5.1 0 .3-.1.4-.1.3-.1.5-.2.8-.2.3-.1.5-.2.8-.2l1.2-.3c.7-.2 1.3-.3 1.9-.5.4-.1.8-.2 1.1-.3.3-.1.7-.1 1-.2h.1c.7-.1 1.4-.3 2.1-.4.1 0 .2 0 .3-.1 4.1-.7 6.9-.9 6.9-.9l7.1 10.8 1.9 2.9-1.9.6-24 7.7z" fill="url(#paint38_radial_2464_44055)"/><path d="M437.8 327.35s3.3 9 4.4 26.9c1 16.3-2.3 30.1-2.3 30.1l-13.9-7.3s-2.1-16.5-1.8-25.5l-1.5-23.4 15.1-.8z" fill="url(#paint39_linear_2464_44055)"/><path d="M441.9 340.35s-.1.2-.5.5c-.1.1-.2.2-.4.3l-.3.3c-.2.2-.5.4-.9.6-.1 0-.1.1-.2.1-.2.1-.4.2-.6.4-.1 0-.2.1-.3.1-.4.2-.9.4-1.4.6l-.6.3c-.1 0-.1.1-.2.1-.2.1-.3.1-.5.2-1.5.5-3.4 1.1-5.8 1.5-.2 0-.4.1-.7.1-.5.1-1.1.2-1.7.3-.3 0-.6.1-.9.1h-.6c-.3 0-.5 0-.7.1h-.6c-7.2.2-6.5-3.7-6.5-3.7l-.2-1.3-3.4-17.7-24.4-7.4-1.9-.6 1.9-2.9 7-10.8s1.4.1 3.7.4h.3c.2 0 .4 0 .5.1 1.3.2 2.9.4 4.6.8.5.1 1.1.2 1.6.3.2 0 .4.1.6.1.2 0 .4.1.6.1.2 0 .4.1.6.1.1 0 .3.1.5.1s.4.1.6.2c.2 0 .4.1.6.2 1 .3 2 .5 3 .9.2.1.4.1.7.2.1 0 .2.1.3.1.2.1.4.1.7.2h.1c.2.1.4.1.6.2.3.1.7.2 1 .4.1 0 .2.1.3.1.2.1.4.2.6.2.1.1.3.1.4.2.3.1.7.3 1 .4.4.2.7.3 1.1.5.1.1.3.1.4.2.5.2 1 .5 1.4.7.2.1.3.2.5.2l.1.1c.2.1.5.2.7.4 0 0 .1 0 .1.1.3.1.5.3.8.5.1.1.2.1.3.2.2.1.5.3.7.4l.1.1c.2.1.4.2.6.4.2.1.4.3.6.4 1.7 1.2 3.3 2.6 4.7 4.1.1.1.3.3.4.5l1.2 1.5c.1.1.2.3.3.4.1.2.2.3.3.5.4.6.7 1.2 1 1.8.1.1.1.2.2.4s.2.5.3.7c0 .1.1.2.1.2 0 .1.1.2.1.3 5.9 16.6 5.5 18.9 5.5 18.9z" fill="url(#paint40_linear_2464_44055)"/><path d="M444 357.55s-3.5-38.7-3.6-44.9c-.1-6.1 2-10.7 2.1-12.8.1-2.1.6-6.1-.5-7.1-1.1-1.1-5.8-2.3-7.1-2.3h-1.4s-.4-7.6-.4-10.9c.1-3.3-1.1-3.1-2.1-2.7-1 .4-1.5 8.9-1.7 11.6-.2 2.7-1.6 7.3 0 15.1.4 2.1 2 5.1 2.1 8.5.3 9-1.6 20.7-1.6 26.1-.1 7.5-2.4 33-2.4 33l16.6-13.6z" fill="url(#paint41_linear_2464_44055)"/><path d="M438.4 266.35l-2.8-.6c-.4-.1-.7-.5-.6-.9l.1-.7 4.2.9-.1.7c0 .5-.4.7-.8.6z" fill="url(#paint42_linear_2464_44055)"/><path d="M457.4 241.45c1.7-7.9-3.2-15.6-11.1-17.5-7.7-1.8-15.7 3.2-17.6 10.8-1 4-.2 8 1.8 11.2 1.9 3.1 2.5 6.7 1.7 10.2l-.1.2 13.3 2.9.1-.2c.8-3.5 2.9-6.6 5.9-8.7 3-2 5.2-5.1 6-8.9z" fill="url(#paint43_linear_2464_44055)"/><path d="M431.3 235.35c1.7-6.9 8.2-11.6 15.1-11.4-7.7-1.8-15.7 3.2-17.6 10.8-1 4-.2 8 1.8 11.2 1.9 3.1 2.5 6.7 1.7 10.2l-.1.2 2.5.5c.8-3.5.2-7.3-1.7-10.4-2-3-2.7-7.1-1.7-11.1z" fill="url(#paint44_linear_2464_44055)"/><path d="M445.5 258.95l-13.3-2.9c-.6-.1-1.1.2-1.2.7-.1.5.3 1 .8 1.2l-.2 1c-.1.3-.1.7-.1 1-.7 0-1.2.6-1 1.3.1.3.5.6.9.7l.6.1c.6 1.3 1.8 2.4 3.4 2.7l3.8.8c1.6.3 3.1-.1 4.2-1.1l.6.1c.4.1.8 0 1.1-.3.5-.5.3-1.3-.4-1.6.1-.3.2-.6.3-1l.2-1c.6.1 1.1-.2 1.2-.7.1-.3-.3-.9-.9-1z" fill="url(#paint45_linear_2464_44055)"/><path d="M437.9 257.45c.1-.3.2-.7.3-1.2.2-1 .5-2.5.9-4.1l1.6-7.2 1.8.4-1.6 7.2c-.4 1.7-.7 3.1-.9 4.1-.1.5-.2.9-.3 1.2 0 .1-.1.3-.1.4l1.5.3c.1-.6 1.5-7.3 2.8-13l1.2.3c1.5.3 3-.6 3.3-2.1l.2-.7c.3-1.5-.6-3-2.1-3.3-1.5-.3-3 .6-3.3 2.1-.1.6-.3 1.3-.4 1.9l-1.8-.4c.1-.6.3-1.3.4-1.9.3-1.5-.6-3-2.1-3.3-1.5-.3-3 .6-3.3 2.1l-.2.7c-.3 1.5.6 3 2.1 3.3l1.2.3c-1.2 5.7-2.7 12.3-2.8 12.9l1.5.3s.1-.2.1-.3zm6.8-15.3c.1-.7.8-1.1 1.5-.9.7.1 1.1.8.9 1.5l-.2.7c-.1.7-.8 1.1-1.5.9l-1.2-.3c.2-.6.4-1.3.5-1.9zm-6.5.6c-.7-.1-1.1-.8-.9-1.5l.2-.7c.1-.7.8-1.1 1.5-.9.7.1 1.1.8.9 1.4-.1.6-.3 1.2-.4 1.9l-1.3-.2z" fill="url(#paint46_linear_2464_44055)"/><path d="M430.5 261.25c.1.4.5.6.9.7l12.5 2.7c.4.1.8 0 1.1-.3.6-.5.2-1.5-.6-1.6l-12.5-2.7c-1-.3-1.7.4-1.4 1.2z" fill="url(#paint47_linear_2464_44055)"/><path d="M445.5 258.95l-13.2-2.9c-.6-.1-1.2.2-1.3.7-.1.5.3 1.1.9 1.2l13.2 2.9c.6.1 1.2-.2 1.3-.7.1-.6-.3-1.1-.9-1.2z" fill="url(#paint48_linear_2464_44055)"/><path d="M431.1 298.35s5.9 3 10.1 3c4.1 0 2.7-7.5.5-8.8-2.2-1.3-7.4-2-7.4-2" fill="url(#paint49_linear_2464_44055)"/><path d="M429.3 304.05s-2.2-4.8-.8-8c1.4-3.2 5.4-5.2 7.7-4.4 2.2.8 1 3.6-1.2 5.5s-.5 7.8-.5 7.8" fill="url(#paint50_linear_2464_44055)"/><path d="M422.9 377.75l-9.4 2.8-12-5.7c-1.4 1.3-1.2 3.5.3 4.6l1.6 1.2c1.4 1.1 1.1 3.2-.5 3.9-3.2 1.3-8.1 6.7-12.6 6.3-2.6-.2-4.2.7-4 1.2.1.4 2.5.8 2.6 1 .1.2-3.1.3-3 1.1.1.8 3.4.7 3.6.9.2.3-2.4.5-2 1.4.4.8 4.8.8 4.9.9.1.2-2.2.7-1.4 1.6.7.8 7.4.6 8.6.2l2.7-1c1.6-.6 3.2-1.5 4.5-2.5l6.6-5 3.3-1.4s19.6-5.8 19.3-10.1c-.4-4.3-13.1-1.4-13.1-1.4z" fill="url(#paint51_linear_2464_44055)"/><path d="M498.7 313.85c-.6-12-17.1-15-21.7-3.8-.1.2-.1.3-.2.5-6.7 16.7-5.6 35.9-22.8 42.6-17.2 6.7-38.6 24.4-38.6 24.4.8 4.9 3.8 9.1 8.2 11.3l.8.4s40.6-15.9 51.8-23.7c11.2-7.8 22.8-44.2 22.8-44.2l-.3-7.5z" fill="url(#paint52_linear_2464_44055)"/><path d="M133 239.65s3.3-1.6 5.9-4.9c.6-.8 1-4.4.4-5.9-.4 1.1-1.5 2.2-1.5 2.2-.2-.2.5-2.5 1.6-5l-11.2-4.2c-4.2 9.5-3.6 13.7-3.6 13.7s-1.5 3.2-4.6 11l8.9 3.5 4.1-10.4z" fill="url(#paint53_linear_2464_44055)"/><path d="M135 227.95c2-3.5 4.3-6.8 5.7-10.6.3-.8 1.1-2.2 1.6-2.9.2-.3.3-.6.5-.8.2-.2.5-.3.8-.2.3.1.5.3.6.6.1.3.1.6 0 1-1.8 4-3.5 7.9-5.1 11.7-.4.9-.8 1.9-1.2 2.8-.5 1.1-3.5-.5-2.9-1.6z" fill="url(#paint54_linear_2464_44055)"/><path d="M129.1 225.75l7.4-13.8c.3-.7.9-1.1 1.4-.9.5.2.7.9.4 1.6l-6.2 14.3c-.3 1.2-3.5 0-3-1.2z" fill="url(#paint55_linear_2464_44055)"/><path d="M132.5 225.95l7.4-13.8c.3-.7.9-1.1 1.4-.9.5.2.7.9.4 1.6l-6.2 14.3c-.3 1.3-3.5 0-3-1.2z" fill="url(#paint56_linear_2464_44055)"/><path d="M126.9 225.25c1.2-3.9 4-7.6 6-11.1.1-.3.3-.5.6-.6.2-.1.4-.1.6 0 .2.1.3.3.4.5 0 .2 0 .5-.1.8-1.6 3.6-4 7.3-4.8 11.1-.3.9-2.9.3-2.7-.7z" fill="url(#paint57_linear_2464_44055)"/><path d="M138 231.95c.7-1.3 1-2.2 1.3-2.9.3-.8.6-1.7 1.4-2.6 1.4-1.7 2.6-1.5 2.8-1.1.2.4-.1 1-.3 1.3-.9 1.9-1.1 2.9-1.7 4.9-.2.7-4.2 5-4.2 5s.5-3.6.7-4.6z" fill="url(#paint58_linear_2464_44055)"/><path d="M133.2 245.55s-3 6-11.6 28.3-22.4 38.8-24.9 49.7c-2.6 10.9-5.1 20.1-5.1 20.1l-18.4-38.3s24.6-22.1 32-36.1c7.3-14.1 15.4-27.6 15.4-27.6 4.4-.2 8.8 1.1 12.3 3.7l.3.2z" fill="url(#paint59_linear_2464_44055)"/><path d="M133.2 245.55s-3 6-11.6 28.3-22.4 38.8-24.9 49.7c-2.6 10.9-5.1 20.1-5.1 20.1l-18.4-38.3s24.6-22.1 32-36.1c7.3-14.1 15.4-27.6 15.4-27.6 4.4-.2 8.8 1.1 12.3 3.7l.3.2z" fill="url(#paint60_linear_2464_44055)"/><path d="M323.9 319.05c-5.5-14.4-26.7-18.5-35.1-19.6l-11.6-4.1-13 4.7c-9.7 1.7-26.8 6.5-31.5 19.3-6.3 16.8-5.8 19.1-5.8 19.1s6.1 3.1 15.2 2.7v64.4c22.6 10.7 48.8 10.5 71.3-.3l-.5-61.7c.9 0 1.9-.1 3-.3 11.6-1.6 14.1-5.3 14.1-5.3s.3-2.2-6.1-18.9z" fill="url(#paint61_radial_2464_44055)"/><path d="M299.9 303.45l-22.7-8-21.8 8c-8 2.9-13.3 10.5-13.3 19.1v83.2c22.6 10.7 48.8 10.5 71.3-.3l-.7-84.1c-.2-8.1-5.3-15.3-12.8-17.9z" fill="url(#paint62_linear_2464_44055)"/><path d="M299.9 303.45l-22.7-8-21.8 8c-8 2.9-13.3 10.5-13.3 19.1v83.2c22.6 10.7 48.8 10.5 71.3-.3l-.7-84.1c-.2-8.1-5.3-15.3-12.8-17.9z" fill="url(#paint63_radial_2464_44055)"/><path d="M299.9 303.45l-22.7-8-21.8 8c-8 2.9-13.3 10.5-13.3 19.1v83.2c22.6 10.7 48.8 10.5 71.3-.3l-.7-84.1c-.2-8.1-5.3-15.3-12.8-17.9z" fill="url(#paint64_radial_2464_44055)"/><path d="M271.1 299.15s-31.7 2-38.5 20.3c-6.3 16.8-5.8 19.1-5.8 19.1s7.3 3.7 17.7 2.5c10.4-1.3 9.5-3.5 9.5-3.5l-.1-16.3 26.2-8.3-9-13.8z" fill="url(#paint65_radial_2464_44055)"/><path d="M234.9 323.25s-3.9 8.7-6.2 26.6c-2.1 16.2.3 30.2.3 30.2l16.4-11.2 4.6-43.6-15.1-2z" fill="url(#paint66_linear_2464_44055)"/><path d="M285.3 299.15s31.7 1.7 38.7 19.9c6.4 16.7 6 19 6 19s-2.5 3.7-14.1 5.3c-10.4 1.4-9.5-3.4-9.5-3.4l-3.7-19-26.3-8 8.9-13.8z" fill="url(#paint67_radial_2464_44055)"/><path d="M253.9 321.15l.1 16.3s.3.6-1.1 1.4c-1.2.7-3.6 1.5-8.4 2.1-.9.1-1.7.2-2.5.2h-1.6c-5.9 0-10.4-1.4-12.4-2.2-.8-.3-1.2-.5-1.2-.5s-.5-2.3 5.8-19.1c.1-.2.1-.4.2-.6.1-.1.1-.3.2-.4 0-.1.1-.2.1-.3l.3-.6c.1-.1.1-.2.2-.4.2-.4.5-.8.7-1.3.1-.1.2-.2.2-.4.5-.7 1-1.4 1.6-2.1l.3-.3c.1-.2.3-.3.4-.5.1-.1.1-.2.2-.2l.7-.7.3-.3.3-.3c.7-.6 1.4-1.2 2.1-1.7.1-.1.2-.2.3-.2.2-.2.4-.3.6-.5 1.7-1.2 3.6-2.3 5.6-3.2.1-.1.3-.1.4-.2.1-.1.3-.1.4-.2.3-.1.5-.2.8-.4.1-.1.3-.1.4-.2.6-.2 1.1-.5 1.7-.7.3-.1.6-.2.8-.3.1-.1.3-.1.4-.2.3-.1.6-.2.8-.3.6-.2 1.1-.4 1.7-.5.1 0 .3-.1.4-.1.3-.1.5-.2.8-.2.3-.1.5-.2.8-.2l1.2-.3c.7-.2 1.3-.3 1.9-.5.4-.1.8-.2 1.1-.3.3-.1.7-.1 1-.2h.1c.7-.1 1.4-.3 2.1-.4.1 0 .2 0 .3-.1 4.1-.7 6.9-.9 6.9-.9l7.1 10.8 1.9 2.9-1.9.6-24.1 7.7z" fill="url(#paint68_linear_2464_44055)"/><path d="M253.9 321.15l.1 16.3s.3.6-1.1 1.4c-1.2.7-3.6 1.5-8.4 2.1-.9.1-1.7.2-2.5.2h-1.6c-5.9 0-10.4-1.4-12.4-2.2-.8-.3-1.2-.5-1.2-.5s-.5-2.3 5.8-19.1c.1-.2.1-.4.2-.6.1-.1.1-.3.2-.4 0-.1.1-.2.1-.3l.3-.6c.1-.1.1-.2.2-.4.2-.4.5-.8.7-1.3.1-.1.2-.2.2-.4.5-.7 1-1.4 1.6-2.1l.3-.3c.1-.2.3-.3.4-.5.1-.1.1-.2.2-.2l.7-.7.3-.3.3-.3c.7-.6 1.4-1.2 2.1-1.7.1-.1.2-.2.3-.2.2-.2.4-.3.6-.5 1.7-1.2 3.6-2.3 5.6-3.2.1-.1.3-.1.4-.2.1-.1.3-.1.4-.2.3-.1.5-.2.8-.4.1-.1.3-.1.4-.2.6-.2 1.1-.5 1.7-.7.3-.1.6-.2.8-.3.1-.1.3-.1.4-.2.3-.1.6-.2.8-.3.6-.2 1.1-.4 1.7-.5.1 0 .3-.1.4-.1.3-.1.5-.2.8-.2.3-.1.5-.2.8-.2l1.2-.3c.7-.2 1.3-.3 1.9-.5.4-.1.8-.2 1.1-.3.3-.1.7-.1 1-.2h.1c.7-.1 1.4-.3 2.1-.4.1 0 .2 0 .3-.1 4.1-.7 6.9-.9 6.9-.9l7.1 10.8 1.9 2.9-1.9.6-24.1 7.7z" fill="url(#paint69_radial_2464_44055)"/><path d="M325.9 324.95s3.3 9 4.4 26.9c1 16.3-2.3 30.1-2.3 30.1l-13.9-7.3s-2.1-16.5-1.8-25.5l-1.5-23.4 15.1-.8z" fill="url(#paint70_linear_2464_44055)"/><path d="M329.9 338.05s-.1.2-.5.5c-.1.1-.2.2-.4.3l-.3.3c-.2.2-.5.4-.9.6-.1 0-.1.1-.2.1-.2.1-.4.2-.6.4-.1 0-.2.1-.3.1-.4.2-.9.4-1.4.6l-.6.3c-.1 0-.1.1-.2.1-.2.1-.3.1-.5.2-1.5.5-3.4 1.1-5.8 1.5-.2 0-.4.1-.7.1-.5.1-1.1.2-1.7.3-.3 0-.6.1-.9.1h-.6c-.3 0-.5 0-.7.1h-.6c-7.2.2-6.5-3.7-6.5-3.7l-.2-1.3-3.4-17.7-24.4-7.4-1.9-.6 1.9-2.9 7-10.8s1.4.1 3.7.4h.3c.2 0 .4 0 .5.1 1.3.2 2.9.4 4.6.8.5.1 1.1.2 1.6.3.2 0 .4.1.6.1.2 0 .4.1.6.1.2 0 .4.1.6.1.1 0 .3.1.5.1s.4.1.6.2c.2 0 .4.1.6.2 1 .3 2 .5 3 .9.2.1.4.1.7.2.1 0 .2.1.3.1.2.1.4.1.7.2h.1c.2.1.4.1.6.2.3.1.7.2 1 .4.1 0 .2.1.3.1.2.1.4.2.6.2.1.1.3.1.4.2.3.1.7.3 1 .4.4.2.7.3 1.1.5.1.1.3.1.4.2.5.2.9.5 1.4.7.2.1.3.2.5.2l.1.1c.2.1.5.2.7.4 0 0 .1 0 .1.1.3.1.5.3.8.5.1.1.2.1.3.2.2.1.5.3.7.4l.1.1c.2.1.4.2.6.4.2.1.4.3.6.4 1.7 1.2 3.3 2.6 4.7 4.1.1.1.3.3.4.5l1.2 1.5c.1.1.2.3.3.4.1.2.2.3.3.5.4.6.7 1.2 1 1.8.1.1.1.2.2.4s.2.5.3.7c0 .1.1.2.1.2 0 .1.1.2.1.3 5.9 16.6 5.5 18.9 5.5 18.9z" fill="url(#paint71_linear_2464_44055)"/><path d="M329.9 338.05s-.1.2-.5.5c-.1.1-.2.2-.4.3l-.3.3c-.2.2-.5.4-.9.6-.1 0-.1.1-.2.1-.2.1-.4.2-.6.4-.1 0-.2.1-.3.1-.4.2-.9.4-1.4.6l-.6.3c-.1 0-.1.1-.2.1-.2.1-.3.1-.5.2-1.5.5-3.4 1.1-5.8 1.5-.2 0-.4.1-.7.1-.5.1-1.1.2-1.7.3-.3 0-.6.1-.9.1h-.6c-.3 0-.5 0-.7.1h-.6c-7.2.2-6.5-3.7-6.5-3.7l-.2-1.3-3.4-17.7-24.4-7.4-1.9-.6 1.9-2.9 7-10.8s1.4.1 3.7.4h.3c.2 0 .4 0 .5.1 1.3.2 2.9.4 4.6.8.5.1 1.1.2 1.6.3.2 0 .4.1.6.1.2 0 .4.1.6.1.2 0 .4.1.6.1.1 0 .3.1.5.1s.4.1.6.2c.2 0 .4.1.6.2 1 .3 2 .5 3 .9.2.1.4.1.7.2.1 0 .2.1.3.1.2.1.4.1.7.2h.1c.2.1.4.1.6.2.3.1.7.2 1 .4.1 0 .2.1.3.1.2.1.4.2.6.2.1.1.3.1.4.2.3.1.7.3 1 .4.4.2.7.3 1.1.5.1.1.3.1.4.2.5.2.9.5 1.4.7.2.1.3.2.5.2l.1.1c.2.1.5.2.7.4 0 0 .1 0 .1.1.3.1.5.3.8.5.1.1.2.1.3.2.2.1.5.3.7.4l.1.1c.2.1.4.2.6.4.2.1.4.3.6.4 1.7 1.2 3.3 2.6 4.7 4.1.1.1.3.3.4.5l1.2 1.5c.1.1.2.3.3.4.1.2.2.3.3.5.4.6.7 1.2 1 1.8.1.1.1.2.2.4s.2.5.3.7c0 .1.1.2.1.2 0 .1.1.2.1.3 5.9 16.6 5.5 18.9 5.5 18.9z" fill="url(#paint72_radial_2464_44055)"/><path d="M287.7 289.05h-20.8s.3 7.8-1.3 13.4c-.3 1.2 0 2.5 1 3.3 1.8 1.6 5.2 3.7 10.8 3.7 5.6 0 9-2.2 10.8-3.8.9-.8 1.3-2.1.9-3.3-1.61-5.6-1.4-13.3-1.4-13.3z" fill="url(#paint73_linear_2464_44055)"/><path d="M297.8 266.25c-.3 0-.7.4-1 .7.3-9.2-2.7-20.4-2.7-20.4l-17 1.5-18.5-1.4s-.9 20.2-.8 20.5c-.1 0-.7-.6-1.2-.6-2.6.1-4.2 1.8-2.4 7.6 1.5 4.7 4.5 4.8 5.5 4.7 2.5 7.8 7.7 18 17.4 18.1h.4c9.7-.2 14.8-10.4 17.3-18.3 1 .1 4-.1 5.5-4.8 1.8-5.8.1-7.5-2.5-7.6z" fill="url(#paint74_linear_2464_44055)"/><path d="M297.8 266.25c-.3 0-.7.4-1 .7.3-9.2-2.7-20.4-2.7-20.4l-17 1.5-18.5-1.4s-.9 20.2-.8 20.5c-.1 0-.7-.6-1.2-.6-2.6.1-4.2 1.8-2.4 7.6 1.5 4.7 4.5 4.8 5.5 4.7 2.5 7.8 7.7 18 17.4 18.1h.4c9.7-.2 14.8-10.4 17.3-18.3 1 .1 4-.1 5.5-4.8 1.8-5.8.1-7.5-2.5-7.6z" fill="url(#paint75_linear_2464_44055)"/><path d="M263.39 230.95c-4 0-7.2 3.3-7.2 7.3v9.4s.9 17.6 1.1 19.3l1.5 1.2c.4.3.9 0 1-.4l.4-13.3c0-1.5 1-2.9 2.3-3.5 1.7-.8 3.3-1.1 4.9-.8.5.1.9.3 1.4.5 1.2.6 4.3 2 8.2 2 3.7 0 6.5-1.2 7.9-1.9 1.1-.5 2.3-.8 3.5-.8.9.1 1.8.3 2.8.7 1.9.8 3.1 2.6 3.2 4.6l.5 12.3c0 .5.6.8 1 .4l1.1-1c.5-2.4.9-12.8.9-19.3 0-12.6-2.8-21-2.8-21s-5 2-13.6 3.6c-4.39.6-18.1.7-18.1.7z" fill="url(#paint76_linear_2464_44055)"/><path d="M263.39 230.95c-4 0-7.2 3.3-7.2 7.3v9.4s.9 17.6 1.1 19.3l1.5 1.2c.4.3.9 0 1-.4l.4-13.3c0-1.5 1-2.9 2.3-3.5 1.7-.8 3.3-1.1 4.9-.8.5.1.9.3 1.4.5 1.2.6 4.3 2 8.2 2 3.7 0 6.5-1.2 7.9-1.9 1.1-.5 2.3-.8 3.5-.8.9.1 1.8.3 2.8.7 1.9.8 3.1 2.6 3.2 4.6l.5 12.3c0 .5.6.8 1 .4l1.1-1c.5-2.4.9-12.8.9-19.3 0-12.6-2.8-21-2.8-21s-5 2-13.6 3.6c-4.39.6-18.1.7-18.1.7z" fill="url(#paint77_linear_2464_44055)"/><path d="M258.4 279.05l.5-.1c.2-.1.4-.3.3-.5l-1.2-5.6c-.1-.2-.3-.4-.5-.3l-.5.1c-.2.1-.4.3-.3.5l1.2 5.5c0 .3.2.4.5.4z" fill="url(#paint78_linear_2464_44055)"/><path d="M256.9 274.95l1.1-.2c.2-.1.4-.3.3-.5l-.9-4.2c-.1-.2-.3-.4-.5-.3l-1.1.2c-.9.2-1.4 1-1.2 1.9l.4 1.9c.2.9 1 1.4 1.9 1.2z" fill="url(#paint79_linear_2464_44055)"/><path d="M296.3 278.85l-.5-.1c-.2-.1-.4-.3-.3-.5l1.2-5.5c.1-.2.3-.4.5-.3l.5.1c.2.1.4.3.3.5l-1.2 5.5c-.1.2-.3.3-.5.3z" fill="url(#paint80_linear_2464_44055)"/><path d="M297.7 274.85l-1.1-.2c-.2 0-.4-.3-.3-.5l.9-4.2c0-.2.3-.4.5-.3l1.1.2c.9.2 1.4 1 1.2 1.9l-.4 1.9c-.2.8-1 1.3-1.9 1.2z" fill="url(#paint81_linear_2464_44055)"/><path fill-rule="evenodd" clip-rule="evenodd" d="M281.68 276.66c.85.85 1.92 1.49 3.2 1.71 1.17.32 2.45.32 3.73.11 1.17-.21 2.13-.64 3.09-1.39 2.13-1.71 3.09-6.4 1.92-8.96-.43-.85-1.17-1.6-2.35-2.13-2.24-.96-5.23-.96-7.57-.43-.96.32-1.92.75-2.77 1.39-.96.75-1.39 1.71-1.49 2.88-.21 2.35.64 5.33 2.24 6.82z" fill="url(#paint82_linear_2464_44055)"/><path fill-rule="evenodd" clip-rule="evenodd" d="M272.99 276.71c1.59-1.59 2.34-4.46 2.23-6.69-.11-1.17-.53-2.12-1.49-2.87a7.193 7.193 0 00-2.76-1.27c-2.34-.64-5.31-.53-7.54.42-1.27.53-1.91 1.27-2.34 2.12-1.17 2.55-.11 7.12 2.02 8.82.85.74 1.91 1.17 3.08 1.27 1.27.21 2.44.11 3.72-.21 1.17-.1 2.23-.74 3.08-1.59z" fill="url(#paint83_linear_2464_44055)"/><path fill-rule="evenodd" clip-rule="evenodd" d="M273.74 267.15c-.85-.64-1.7-1.06-2.66-1.27-.53-.11-1.17-.21-1.7-.32l-5.42 12.22c.74.42 1.49.74 2.34.85.85.11 1.59.11 2.44 0l5-11.48z" fill="url(#paint84_radial_2464_44055)"/><path fill-rule="evenodd" clip-rule="evenodd" d="M285.73 265.47l-4.69 10.56c.21.32.43.53.64.75.85.85 1.92 1.49 3.2 1.71h.21l5.55-12.48c-1.49-.54-3.31-.76-4.91-.54z" fill="url(#paint85_radial_2464_44055)"/><path d="M248.4 387.05c-3.3-2.2-4.8-6.2-7.5-11.7 1.8.5 2.8 0 2.8 0s-.3-11.2 2.6-13.3l1.6 1.5s9.6-.9 15.4.6c.5 1.9 1.4 10.8-1.1 22.3 0 0 .1 6.4.1 17.7l-13.8.1-.1-17.2z" fill="url(#paint86_linear_2464_44055)"/><path d="M315 386.75c3.3-2.2 4.7-6.2 7.4-11.7-1.8.5-2.8 0-2.8 0s.2-11.3-2.8-13.2l-1.6 1.6s-9.6-.8-15.3.7c-.4 1.9-1.3 10.8 1.3 22.3v17.7l13.8-.1v-17.3z" fill="url(#paint87_linear_2464_44055)"/><path d="M28.9 266.35c7.9 0 14.3-6.4 14.3-14.3s-6.4-14.3-14.3-14.3-14.3 6.4-14.3 14.3 6.4 14.3 14.3 14.3z" fill="url(#paint88_linear_2464_44055)"/><path d="M61.2 303.35c20.7-2.1 29.3 15.5 32 36.1.8 6.2 1.6 13.4 2.1 21.4 2.8 41.3 8 77.3 8 77.3s.2 7.3-30.3 8.1c-30.5.8-52-7.7-52-7.7s11.6-33.3 10.4-52.8c-1.2-19.5-4.1-23.1-6.2-45.7-2.1-22.5 2.3-33.3 35-36.6.4 0 .7 0 1-.1z" fill="url(#paint89_linear_2464_44055)"/><path d="M61.2 303.35c20.7-2.1 29.3 15.5 32 36.1.8 6.2 1.6 13.4 2.1 21.4 2.8 41.3 8 77.3 8 77.3s.2 7.3-30.3 8.1c-30.5.8-52-7.7-52-7.7s11.6-33.3 10.4-52.8c-1.2-19.5-4.1-23.1-6.2-45.7-2.1-22.5 2.3-33.3 35-36.6.4 0 .7 0 1-.1z" fill="url(#paint90_radial_2464_44055)"/><path d="M61.2 303.35c20.7-2.1 29.3 15.5 32 36.1.8 6.2 1.6 13.4 2.1 21.4 2.8 41.3 8 77.3 8 77.3s.2 7.3-30.3 8.1c-30.5.8-52-7.7-52-7.7s11.6-33.3 10.4-52.8c-1.2-19.5-4.1-23.1-6.2-45.7-2.1-22.5 2.3-33.3 35-36.6.4 0 .7 0 1-.1z" fill="url(#paint91_radial_2464_44055)"/><path d="M36.4 283.85s4.1 5 5.5 5.2c1.4.2-2.8-10-3.1-9.9-.4.2-2.4 4.7-2.4 4.7z" fill="url(#paint92_radial_2464_44055)"/><path d="M64.7 291.65c-1-4.7-5.4-4-9.3-2.3-4.2-.2-13.7-8-11.3 2.4 2.5 10.7 1.7 16.1 1.7 16.1 4.6 3 10.9 4.2 16.4 2.9 5.6-.8 7.4-3.7 6.8-6.5 0-.1-2.3-3.8-4.3-12.6z" fill="url(#paint93_linear_2464_44055)"/><path d="M39.6 284.35s.8 2.9 2.6 6.3c1.8 3.3 8.3 4.9 18.3 5.7 20.2 1.5 9.2-42.2 6.7-47.5-2.5-5.3-25.8-2.6-30.5 4.4-4.7 6.9.7 21.7.7 21.7s-2.1-3.3-5.2-1.7c-3.3 1.6 3.4 14.9 7.4 11.1z" fill="url(#paint94_linear_2464_44055)"/><path d="M43.1 239.25c-24.5 7.2-19.7 27-15.6 36 4 8.8 13.8 14.2 13.8 14.2 0-.4-1.7-5.1-1.7-5.1-.6.3-1.2 1-2.4.2-2.4-1.6-3.4-3.9-4-5.3-2-4.9 0-6.5 1-6.4 1.6.1 3.1 1.9 3.3 2.1.2.1 1.1.3 1.1-.8.1-9.6 1-15.5 9.3-18.9 5.8-2.4 7.7-5.5 7.7-5.5.2-.6.1-.6.1-1.4.1.3.3.5.4.8.4.5 1.1.9 1.8 1 .9.2 2.5.5 4.9.5 1.6 0 4.1.5 5.2 2.1 1.6 2.3 2.9 9.6 2.9 9.6 1.7-7.9-6.8-28.2-27.8-23.1z" fill="url(#paint95_linear_2464_44055)"/><path d="M505.8 292.45s-27.1-3.3-32.8 31.2c-5.7 34.5-.2 102.2-.2 102.2s-7 3.2 17.3 5.9 38.7-11 38.7-11-8.6-33.4 3.3-61.7c17.5-41.9 14-63.4-26.3-66.6z" fill="url(#paint96_linear_2464_44055)"/><path d="M505.8 292.45s-27.1-3.3-32.8 31.2c-5.7 34.5-.2 102.2-.2 102.2s-7 3.2 17.3 5.9 38.7-11 38.7-11-8.6-33.4 3.3-61.7c17.5-41.9 14-63.4-26.3-66.6z" fill="url(#paint97_radial_2464_44055)"/><path d="M505.8 292.45s-27.1-3.3-32.8 31.2c-5.7 34.5-.2 102.2-.2 102.2s-7 3.2 17.3 5.9 38.7-11 38.7-11-8.6-33.4 3.3-61.7c17.5-41.9 14-63.4-26.3-66.6z" fill="url(#paint98_radial_2464_44055)"/><path d="M108.3 428.25l21.2 2.9 1.3-9.4-21.2-2.8-1.3 9.3z" fill="url(#paint99_linear_2464_44055)"/><path d="M126.7 425.95c-.3 2.6.9 4.9 2.8 5.1 1.9.3 3.8-1.6 4.1-4.2.3-2.6-.9-4.9-2.8-5.1-2-.2-3.8 1.7-4.1 4.2z" fill="url(#paint100_linear_2464_44055)"/><path d="M105.5 423.15c-.3 2.6.9 4.9 2.8 5.1 1.9.3 3.8-1.6 4.1-4.2.3-2.6-.9-4.9-2.8-5.1-2-.3-3.8 1.6-4.1 4.2z" fill="url(#paint101_linear_2464_44055)"/><path d="M112.4 424.05l6-44.5 21.2 2.9-6 44.5-21.2-2.9z" fill="url(#paint102_linear_2464_44055)"/><path d="M105.5 423.15l6-44.6 21.2 2.9-6 44.5-21.2-2.8z" fill="url(#paint103_linear_2464_44055)"/><path d="M112.6 389.95l16 2.1 1.5-10.9-16.1-2.2-1.4 11z" fill="url(#paint104_linear_2464_44055)"/><path d="M136.3 432.05l21.2 2.9 1.3-9.4-21.2-2.8-1.3 9.3z" fill="url(#paint105_linear_2464_44055)"/><path d="M154.7 429.75c-.3 2.6.9 4.9 2.8 5.1 1.9.3 3.8-1.6 4.1-4.2.3-2.6-.9-4.9-2.8-5.1-1.9-.2-3.8 1.6-4.1 4.2z" fill="url(#paint106_linear_2464_44055)"/><path d="M133.5 426.95c-.3 2.6.9 4.9 2.8 5.1 1.9.3 3.8-1.6 4.1-4.2.3-2.6-.9-4.9-2.8-5.1-1.9-.3-3.8 1.6-4.1 4.2z" fill="url(#paint107_linear_2464_44055)"/><path d="M140.4 427.85l6-44.5 21.2 2.8-6 44.6-21.2-2.9z" fill="url(#paint108_linear_2464_44055)"/><path d="M133.5 426.95l6-44.6 21.2 2.9-6 44.5-21.2-2.8z" fill="url(#paint109_linear_2464_44055)"/><path d="M140.6 393.75l16 2.1 1.5-10.9-16-2.2-1.5 11z" fill="url(#paint110_linear_2464_44055)"/><path d="M549.3 531.25l-540 2.4-.8-165.5 540.1-2.4.7 165.5z" fill="#4687FF"/><path d="M23.8 416.65h6.7v3.3h-6.7v6.6h-3.4l-.1-16.7h11v3.3h-7.5v3.5zm16.5 1.6c-.4-.1-.9-.1-1.1-.1-1.6 0-2.7 1.1-2.7 3.2v5h-3.2l-.1-11.3h3.1v1.7c.6-1.3 1.8-1.8 2.9-1.8.3 0 .7.1.9.1l.2 3.2zm3.6-9.2c1.2 0 2.1.9 2.1 2.1 0 1.1-.9 2-2.1 2-1.1 0-2-.9-2-2 0-1.2.9-2.1 2-2.1zm-1.5 17.3h3.3l-.1-11.3h-3.3l.1 11.3zm13.7-6.3c0-1.2-.6-2.2-2-2.2s-2 1.1-2 2.2v6.3h-3.3l-.1-17.3H52v7.3c.9-1.4 2.5-1.6 3.1-1.6 2.9 0 4.2 2.1 4.2 4.5v7.1H56l.1-6.3zm8.9 1.5c.2 1.4 1.4 2.2 2.8 2.2 1 0 2-.6 2.4-1.5l2.7.9c-.7 2.2-2.8 3.4-5.1 3.4-3.4 0-6.2-2.4-6.2-5.9 0-3.3 2.7-5.9 6-6 3.4 0 5.7 2.3 5.7 5.6v1.2l-8.3.1zm4.9-2.2c-.1-.8-.8-2-2.4-2-1.5 0-2.3 1.2-2.5 2h4.9zm14 5.4c-1.1 1.6-2.8 1.7-3.6 1.7-3.3 0-5.4-2.8-5.4-5.9 0-2.9 2.2-5.9 5.4-5.9.7 0 2.2.1 3.4 1.5v-7.2H87l.1 17.3h-3.2v-1.5zm-2.8-7.1c-1.6 0-2.8 1.2-2.8 2.9s1.3 2.9 2.8 2.9c1.5 0 2.8-1.2 2.8-2.9 0-1.8-1.3-2.9-2.8-2.9zm-61.9 27.2l2.9-.7c.3 1.6 1.6 2.5 3.2 2.5 1.4 0 2.2-.8 2.2-1.7 0-.7-.7-1.3-1.7-1.5l-2.1-.4c-2.4-.5-4-2-4-4.3 0-2.7 2.4-4.6 5.2-4.7 3.4 0 5.1 2 5.4 3.9l-2.8.8c-.3-1.2-1.1-2-2.6-2-1.3 0-2.2.8-2.2 1.7 0 .7.5 1.3 1.5 1.5l2.1.4c2.8.5 4.2 2.2 4.2 4.3 0 2.3-1.9 4.6-5.4 4.7-3.5.2-5.4-1.6-5.9-4.5zm17.7-3.3h-4.6v-2.5h8.4v2.3l-4.8 5.4h4.8v2.5h-8.6v-2.3l4.8-5.4zm5.6 4.8c0-2.5 2.5-3.2 4.4-3.2h1c.6 0 .8-.3.8-.7 0-.6-.5-1.3-1.6-1.2-.9 0-1.6.5-1.8 1.4l-2.6-.6c.3-2.2 2.4-3.2 4.5-3.2 2.5 0 4.4 1.3 4.4 4.1v6.3h-2.7v-1.3c-.8 1.1-1.9 1.5-3 1.5-1.8-.1-3.4-1.2-3.4-3.1zm6.2-1.1v-.2h-1.8c-.6 0-1.5.4-1.5 1.2 0 .7.6 1 1.2 1 1.4-.1 2.1-1 2.1-2zm8.5-5.1c1-1.3 2.5-1.4 3.1-1.4 3 0 4.8 2.7 4.8 5.2 0 2.6-1.9 5.3-4.9 5.3-.7 0-2.1-.1-3.1-1.4v1.2h-2.9l-.1-15.5h3l.1 6.6zm2.5 6.5c1.4 0 2.5-1.1 2.5-2.6s-1.1-2.6-2.5-2.6-2.5 1.1-2.5 2.6 1.1 2.6 2.5 2.6zm7-.4c0-2.5 2.5-3.2 4.4-3.2h1c.6 0 .8-.3.8-.7 0-.6-.5-1.3-1.6-1.2-.9 0-1.6.5-1.8 1.4l-2.6-.6c.3-2.2 2.4-3.2 4.5-3.2 2.5 0 4.4 1.3 4.4 4.1v6.3h-2.7v-1.3c-.8 1.1-1.9 1.5-3 1.5-1.8-.1-3.4-1.2-3.4-3.1zm6.3-1.1v-.2h-1.8c-.6 0-1.5.4-1.5 1.2 0 .7.6 1 1.2 1 1.4-.1 2.1-1 2.1-2zm12.9 2.5c-1 1.4-2.5 1.5-3.2 1.5-2.9 0-4.8-2.5-4.8-5.3 0-2.6 1.9-5.3 4.8-5.3.6 0 2 .1 3 1.3v-6.5h2.9l.1 15.5h-2.9l.1-1.2zm-2.5-6.3c-1.4 0-2.5 1.1-2.5 2.6s1.1 2.6 2.5 2.6 2.5-1.1 2.5-2.6c0-1.6-1.1-2.6-2.5-2.6zm7.5 4.8l2.6-.7c.1.7.7 1.4 1.7 1.4.9 0 1.2-.5 1.2-.9 0-.6-.6-.8-1.6-1-1.9-.3-3.7-.9-3.7-3.2 0-1.8 1.8-3.3 4-3.3 2.6 0 3.8 1.7 4 2.8l-2.6.7c-.2-.7-.6-1.2-1.5-1.2-.7 0-1.2.4-1.2.8 0 .6.5.8 1.6.9 2 .2 3.8.9 3.8 3.2 0 1.7-1.3 3.4-4.1 3.4-2.9.1-4-1.8-4.2-2.9zm10-.1c0-2.5 2.5-3.2 4.4-3.2h1c.6 0 .8-.3.8-.7 0-.6-.5-1.3-1.6-1.2-.9 0-1.6.5-1.8 1.4l-2.6-.6c.3-2.2 2.4-3.2 4.5-3.2 2.5 0 4.4 1.3 4.4 4.1v6.3h-2.7v-1.3c-.8 1.1-1.9 1.5-3 1.5-1.8-.1-3.4-1.2-3.4-3.1zm6.3-1.1v-.2h-1.8c-.6 0-1.5.4-1.5 1.2 0 .7.6 1 1.2 1 1.4 0 2.1-1 2.1-2zm-.4-7.9h-2.4l2-3.6h3.4l-3 3.6zm16.1 11.6c0 3.5-2.3 5.2-5.4 5.2-3.2 0-5-1.8-5.4-3.6l2.7-.8c.3.9.9 1.9 2.6 1.9 1.4 0 2.5-.8 2.5-2.6v-1.3c-.9 1.2-2.2 1.4-2.9 1.4-2.9 0-4.9-2.3-4.9-5.1 0-2.6 1.8-5.2 4.8-5.2.6 0 2 .1 3.1 1.4v-1.2h2.9v9.9zm-5.3-7.5c-1.4 0-2.5 1.1-2.5 2.5 0 1.5 1.1 2.5 2.5 2.5s2.5-1 2.5-2.6c-.1-1.4-1.1-2.4-2.5-2.4z" fill="#BDD4FF"/><path opacity=".3" d="M21 379.15h4l4.7 13.7 4.6-13.7h4l-6.4 18h-4.3l-6.6-18zm25.9 9.1c-.5-.1-1-.1-1.2-.1-1.7 0-2.9 1.2-2.9 3.5v5.4h-3.5l-.1-12.2h3.4v1.8c.7-1.4 1.9-1.9 3.2-1.9.3 0 .7.1 1 .1l.1 3.4zm5.9 7.5l-5.2-10.9h4l3.1 7 2.7-7h3.7l-7.4 18.4h-3.8l2.9-7.5zm18.2-5.6c0-1.3-.7-2.4-2.1-2.4-1.5 0-2.2 1.2-2.2 2.4v6.9h-3.6l-.1-18.8h3.6v7.9c1-1.5 2.7-1.7 3.4-1.7 3.1 0 4.5 2.3 4.5 4.9v7.6h-3.6l.1-6.8zm9.7 1.6c.2 1.5 1.6 2.4 3 2.4 1 0 2.2-.6 2.6-1.6l2.9 1c-.8 2.4-3.1 3.6-5.5 3.7-3.7 0-6.7-2.6-6.8-6.4 0-3.5 2.9-6.4 6.5-6.4 3.7 0 6.1 2.5 6.1 6.1v1.3l-8.8-.1zm5.3-2.4c-.1-.9-.8-2.1-2.6-2.1-1.6 0-2.5 1.3-2.7 2.2l5.3-.1zm7.9-11.3c1.3 0 2.3 1 2.3 2.2 0 1.2-1 2.2-2.2 2.2-1.2 0-2.2-1-2.2-2.2-.1-1.2.9-2.2 2.1-2.2zm-1.7 18.8h3.6l-.1-12.3h-3.6l.1 12.3zm15.9-1.6c-1.2 1.7-3 1.8-3.9 1.8-3.6 0-5.9-3.1-5.9-6.4 0-3.1 2.3-6.4 5.9-6.4.7 0 2.4.1 3.7 1.6v-7.8h3.6l.1 18.7h-3.5v-1.5zm-3.1-7.7c-1.7 0-3 1.3-3 3.1 0 1.9 1.4 3.1 3 3.1s3-1.3 3-3.2c.1-1.8-1.3-3-3-3z" fill="#BDD4FF"/><path d="M463.1 405.95h3.6l.1 13.9h7.4v3.4l-11 .1-.1-17.4zm14.7-.9c1.2 0 2.2.9 2.2 2.1 0 1.2-.9 2.1-2.2 2.1-1.1 0-2.1-.9-2.1-2.1-.1-1.1.9-2.1 2.1-2.1zm-1.7 18.1h3.5l-.1-11.8H476l.1 11.8zm14-8.5c-.5-.1-1-.1-1.1-.1-1.7 0-2.8 1.2-2.8 3.4v5.2h-3.4l-.1-11.8h3.3v1.7c.6-1.4 1.8-1.9 3-1.9.3 0 .7.1.9.1l.2 3.4zm3.7-9.6c1.2 0 2.2.9 2.2 2.1 0 1.2-.9 2.1-2.2 2.1-1.1 0-2.1-.9-2.1-2.1 0-1.2.9-2.1 2.1-2.1zm-1.6 18h3.5l-.1-11.8h-3.5l.1 11.8zm5.9-3.3c0-2.9 2.9-3.7 5.2-3.7h1.1c.6 0 .9-.3.9-.8 0-.8-.6-1.5-1.9-1.4-1.1 0-1.9.6-2.1 1.6l-3-.7c.4-2.5 2.8-3.7 5.3-3.7 2.9 0 5.1 1.5 5.1 4.7v7.3h-3.2v-1.5c-.9 1.3-2.2 1.7-3.5 1.7-2 0-3.9-1.3-3.9-3.5zm7.3-1.3v-.3h-2.1c-.7 0-1.7.4-1.7 1.4 0 .8.7 1.2 1.4 1.2 1.6 0 2.4-1.1 2.4-2.3z" fill="#BDD4FF"/><path opacity=".6" d="M431 377.35c5 0 8.9 3.8 8.9 8.8 0 5-4 9-8.9 9-5 0-8.9-3.9-9-8.8.1-5 4.1-9 9-9zm.1 14.3c3 0 5.3-2.5 5.3-5.5s-2.4-5.4-5.3-5.4c-3 0-5.3 2.5-5.3 5.4-.1 3 2.3 5.5 5.3 5.5zm-4.7-17.3c0-1 .8-1.9 1.9-1.9 1.1 0 1.9.9 1.9 1.9 0 1.1-.8 1.9-1.9 1.9-1.1 0-1.9-.9-1.9-1.9zm5.4-.1c0-1 .8-1.9 1.9-1.9 1.1 0 1.9.9 1.9 1.9 0 1.1-.8 1.9-1.9 1.9-1.1 0-1.9-.8-1.9-1.9zm15.5 11.7H442v-2.9h9.7v2.6l-5.5 6.2h5.6v2.9h-9.9v-2.7l5.4-6.1zm18.8 8.5c0 4-2.7 6.1-6.3 6.1-3.8 0-5.8-2-6.2-4.2l3.1-1c.3 1.1 1 2.2 3 2.2 1.6 0 2.9-.9 2.9-3v-1.5c-1 1.4-2.5 1.6-3.4 1.6-3.4 0-5.7-2.6-5.7-5.9 0-3 2.1-6 5.5-6 .7 0 2.4.1 3.6 1.6v-1.4h3.4l.1 11.5zm-6.2-8.6c-1.6 0-2.9 1.2-2.8 2.9 0 1.8 1.3 2.9 2.9 2.9 1.6 0 2.9-1.2 2.8-3-.1-1.6-1.3-2.8-2.9-2.8zm12.7 3.6c0 1.3.6 2.2 2 2.2 1.5 0 2.1-1 2.1-2.3v-6.6h3.4l.1 11.8h-3.4v-1.5c-1.2 1.7-2.9 1.7-3.3 1.7-2.9 0-4.3-2.2-4.3-4.6v-7.4h3.4v6.7zm-2.5-10.3c0-1 .8-1.9 1.9-1.9 1.1 0 1.9.9 1.9 1.9 0 1.1-.8 1.9-1.9 1.9-1.1 0-1.9-.8-1.9-1.9zm5.2 0c0-1 .8-1.9 1.9-1.9 1.1 0 1.9.9 1.9 1.9 0 1.1-.8 1.9-1.9 1.9-1.1 0-1.9-.8-1.9-1.9zm15.3 7c-.5-.1-.9-.1-1.1-.1-1.7 0-2.8 1.2-2.8 3.3v5.1h-3.4l-.1-11.8h3.3v1.7c.6-1.3 1.8-1.9 3-1.9.3 0 .7.1.9.1l.2 3.6zm5.4-9.6l.1 17.9h-3.5l-.1-17.9h3.5zm6.6 12.8c0 1.3.6 2.2 2 2.2 1.5 0 2.1-1 2.1-2.3v-6.6h3.4l.1 11.8h-3.4v-1.5c-1.2 1.7-2.9 1.7-3.3 1.7-2.9 0-4.3-2.2-4.3-4.6v-7.4h3.4v6.7zm-2.5-10.3c0-1 .8-1.9 1.9-1.9 1.1 0 1.9.9 1.9 1.9 0 1.1-.8 1.9-1.9 1.9-1.1 0-1.9-.9-1.9-1.9zm5.2-.1c0-1 .8-1.9 1.9-1.9 1.1 0 1.9.9 1.9 1.9 0 1.1-.8 1.9-1.9 1.9-1.1 0-1.9-.8-1.9-1.9zm11.4 9.9v5.6h-3.4l-.1-17.9h3.4v10.8l4-4.6h4.4l-4.7 5.4 4.9 6.3h-4.3l-4.2-5.6z" fill="#BDD4FF"/><path d="M522 295.85s-.5-13 1.8-19.6c2.3-6.6-22.7 10.9-22.7 10.9s.9 1.9-.8 6.1c-1.6 4.2 4.9 6.4 13.5 5.8 5.5-.4 8.2-3.2 8.2-3.2z" fill="url(#paint111_linear_2464_44055)"/><path opacity=".5" d="M464.8 446.15h-3.1l-4.2-14h3.1l2.7 9.9 3-10h3.1l3.1 10 2.7-10h3l-4.1 14H471l-3.1-10.2-3.1 10.3zm18.8-9.9c2.9 0 5.2 2.1 5.2 4.9 0 2.9-2.3 5-5.2 5.1-2.9 0-5.2-2.1-5.2-5 0-2.8 2.3-5 5.2-5zm0 7.5c1.3 0 2.3-1 2.3-2.5 0-1.4-1.1-2.4-2.4-2.4-1.3 0-2.3 1-2.3 2.4 0 1.5 1.1 2.5 2.4 2.5zm10-12.3l.1 14.6h-2.8l-.1-14.6h2.8zm8.8 9.2c0-1.1-.5-1.9-1.7-1.9s-1.7.9-1.7 1.9v5.3h-2.8v-9.6h2.8v1.3c.7-1.3 2.3-1.4 2.7-1.4 2.4 0 3.5 1.8 3.5 3.8v5.9h-2.8v-5.3zm9.9-4.5c2.9 0 5.2 2.1 5.2 4.9 0 2.9-2.3 5-5.2 5.1-2.9 0-5.2-2.1-5.2-5-.1-2.8 2.3-5 5.2-5zm0 7.4c1.3 0 2.3-1 2.3-2.5 0-1.4-1.1-2.4-2.4-2.4-1.3 0-2.3 1-2.3 2.4 0 1.5 1.1 2.5 2.4 2.5zm6.6-.3l2.4-.7c.1.7.7 1.3 1.6 1.3.8 0 1.1-.5 1.1-.8 0-.6-.5-.8-1.5-.9-1.8-.2-3.5-.8-3.5-3 0-1.7 1.7-3.1 3.8-3.1 2.5 0 3.6 1.6 3.8 2.7l-2.4.6c-.1-.6-.6-1.1-1.4-1.1-.7 0-1.1.4-1.1.8 0 .6.5.7 1.5.8 1.8.2 3.6.8 3.6 3 0 1.6-1.3 3.2-3.9 3.2-2.8.1-3.8-1.8-4-2.8zm4.8-8.5h-2.3l1.9-3.4h3.2l-2.8 3.4zm4.6 6.3c0-2.8 2.3-5 5.2-5 2 0 4.2 1.1 4.7 3.2l-2.5.8c-.2-.7-1-1.5-2.2-1.5-1.3 0-2.3.9-2.3 2.4 0 1.4.9 2.4 2.3 2.4 1.2 0 1.9-.8 2.2-1.5l2.5.8c-.6 2.2-2.7 3.3-4.8 3.3-2.9.1-5.1-2-5.1-4.9zm6.3-6.4h-2.3l1.9-3.4h3.2l-2.8 3.4z" fill="#BDD4FF"/><path d="M384.5 230.45s25.4-.7 27.6 27c1.9 23-1.1 26.6 3 38.6 0 0-9.5 6.4-39.7 3.6-30.2-2.7-14-54.2-14-54.2l.2-.2c9.1-14.4 22.9-14.8 22.9-14.8z" fill="url(#paint112_linear_2464_44055)"/><path d="M397.9 286.35s-.2 12.3 3.9 17.8c0 0-4.7 7.5-14.9 5.1-4.4-1.1-8.3-3.8-8.3-3.8s3.2-10.4 2.3-20.9c-.7-9.2 17 1.8 17 1.8z" fill="url(#paint113_linear_2464_44055)"/><path d="M408.5 256.65c-6.7-11.3-6.8-10.8-6.8-10.8-3.1 4.8-9 8.5-15.4 11.4-5.5 2.4-9.9 1-14.6 2.2.1-1.4-1.8 3.7-2 4-.5 1.1-.7 2.4-.6 3.6l.2 2.2c.8 3.1 3.3 6.7 4.7 7.2.7.3 1.9.1 1.9.1l1.6 6c.6 1.6 3.1 3.1 4 3.6 4.3 2.6 6.4 3.7 9.7 5 3.2 1.3 9.1 1.4 12-.3 2.5-1.5 4-3.7 5-8 .7-3 1.3-6.6 1.4-11.1v-13.3c-.3-.5-.7-1.2-1.1-1.8z" fill="url(#paint114_linear_2464_44055)"/><path d="M375.4 264.35s-4.2-1.5-4.8 2.1c-.6 3.6 1.4 11.7 5.2 10.4 0 0-3.6 11.2 2.6 22.7 0 0-7.6 1.5-19.4-3.3-2.1-.8-14-61 22.8-63.4 0 0 21.6-1 19.8 13.3-1.1 9.7-26.2 18.2-26.2 18.2z" fill="url(#paint115_linear_2464_44055)"/><path d="M529.3 261.15c-2.4-.3-3.5 2-3.9 3l-1.6-.1c-.1 0-4.1-2.8-3-9.9 1.1-7.1-5.2-7.9-9-7.1-1.6.3-3.1.5-4.7.6-3.4.1-9-.2-13.4-1.9-.7 1.8-1.2 4.3-1.5 5.5-.9 4.4-1.3 9.2-1.3 15 0 12.2-.7 24 10.7 23.1 6.9-.5 15.5-3.7 19.7-8 2.6-2.7 3.6-7.5 3.6-7.5 1.3 1 4.1.4 5.1-2.7.6-1.7 1.9-4.4 1.7-6.2 0-1.5-1.1-3.7-2.4-3.8z" fill="url(#paint116_linear_2464_44055)"/><path d="M533.3 233.55c-8.2-7.3-9.9.5-18.5-4.5s-23.6-6.7-25.2 8.1c-.4 3.8 1.3 6.2 4.2 8.4 3.2 2.5 8.4 1.9 11.8 1.9 2.2 0 4.4-.2 6.5-.6 3.8-.7 9.9.2 8.8 7.2-1.1 7 2.9 9.8 3 9.9 0-.1 0-.3 0 0l1.6.1c.3-1 2.3-3 3.7-2.7 1 .2 1.7.9 2.1 1.7 0 0 4.3-6.1 5.6-10.6 2.5-9.3 2.4-13.6-3.6-18.9z" fill="url(#paint117_linear_2464_44055)"/><path d="M140.7 441.25l21.5-.1v10.5l-21.5.1.1 21-11 .1-.2-53.1 35-.2v10.5l-24 .1.1 11.1zm53 5.3c-1.4-.3-2.9-.3-3.4-.3-5.1 0-8.6 3.6-8.6 10.3l.1 15.9h-10.4l-.2-36.2h10v5.3h.1c1.9-4.1 5.6-5.7 9.3-5.7.8 0 2.1.2 2.9.4l.2 10.3zm14.1 10.6c.7 4.5 4.6 7.1 9 7.1 3.1 0 6.4-1.9 7.6-4.9l8.7 2.9c-2.3 7-9 10.8-16.2 10.8-11 0-19.9-7.6-20-18.9 0-10.5 8.7-19 19.1-19 10.8 0 18.1 7.3 18.1 18 0 1.3 0 2.6-.1 3.8l-26.2.2zm15.9-7.1c-.2-2.6-2.5-6.3-7.8-6.3-4.8 0-7.4 4-7.8 6.3h15.6zm26.7 6.9c.7 4.5 4.6 7.1 9 7.1 3.1 0 6.4-1.9 7.6-4.9l8.7 2.9c-2.3 7-9 10.8-16.2 10.8-11 .1-19.9-7.6-20-18.9 0-10.5 8.7-19 19.1-19 10.8 0 18.1 7.3 18.1 18 0 1.3 0 2.6-.1 3.8l-26.2.2zm15.8-7.1c-.2-2.6-2.5-6.3-7.8-6.3-4.8 0-7.4 4-7.8 6.3h15.6zm44.7 17.4h-.1c-3.4 5-8.8 5.3-11.2 5.3-10.5 0-17.3-9-17.3-18.8 0-9.2 6.9-18.8 17.3-18.8 2.1 0 7.1.4 10.9 4.8h.1l-.1-23.1H321l.3 55.2h-10.2l-.2-4.6zm-9-22.7c-5 0-8.9 3.8-8.9 9.2 0 5.5 4 9.3 9 9.3s8.9-3.8 8.9-9.3c-.1-5.5-4.1-9.2-9-9.2zm46.6-9.9c10.9 0 19.7 7.9 19.8 18.7 0 10.9-8.8 19.1-19.7 19.2-11 .1-19.8-7.9-19.8-18.8-.1-10.8 8.7-19.1 19.7-19.1zm.1 28.2c5 0 8.9-3.8 8.8-9.3 0-5.4-4-9.2-9-9.2s-8.9 3.8-8.8 9.3c0 5.4 4 9.2 9 9.2zm60.7-11.7l.1 20.2h-10.5l-.1-20.1c0-3.9-1.6-7.1-5.9-7-4.3 0-6.4 2.9-6.4 7.1l.1 20.1H376l-.2-36.2h10.4v4.8h.1c2.1-3.7 6.4-5.6 10.6-5.6 4.3 0 8.5 1.7 10.6 5.7 3.4-3.8 6.8-5.8 12-5.8 8.9 0 12.8 6.1 12.8 14.4l.1 22.6h-10.6l-.1-20.2c0-3.9-1.6-6.9-5.9-6.9-4.3 0-6.6 2.8-6.5 6.9z" fill="#fff"/><path opacity=".3" d="M330.8 422.35l4.1-1c.4 2.3 2.2 3.6 4.6 3.6 2 0 3.2-1.1 3.2-2.4 0-1.1-1-1.9-2.4-2.2l-3-.6c-3.4-.7-5.7-2.8-5.7-6 0-3.8 3.4-6.6 7.4-6.6 4.9 0 7.3 2.9 7.7 5.6l-4 1.2c-.4-1.6-1.6-2.9-3.7-2.9-1.8 0-3.1 1.1-3.1 2.4 0 1 .7 1.9 2.2 2.2l2.9.5c3.9.7 6 3.2 6 6.2 0 3.3-2.7 6.6-7.7 6.6s-7.8-2.6-8.5-6.6zm17.5-8.3h4.5l3.6 9.6 3.5-9.6h4.5l-5.8 14.4h-4.3l-6-14.4zm24.8-.4c4.3 0 7.8 3.1 7.9 7.4 0 4.3-3.5 7.6-7.8 7.6-4.4 0-7.9-3.1-7.9-7.5-.1-4.2 3.4-7.5 7.8-7.5zm0 11.2c2 0 3.5-1.5 3.5-3.7s-1.6-3.7-3.6-3.7-3.5 1.5-3.5 3.7 1.6 3.7 3.6 3.7zm15-9.2c1.5-1.8 3.6-2 4.4-2 4.2 0 6.9 3.8 6.9 7.4 0 3.8-2.7 7.5-6.9 7.5-.9 0-3-.2-4.4-2h-.1v1.7h-4.1l-.1-22h4.2l.1 9.4zm3.5 9.1c2 0 3.6-1.5 3.5-3.7 0-2.2-1.6-3.6-3.6-3.6-1.9 0-3.5 1.5-3.5 3.7.1 2.1 1.7 3.6 3.6 3.6zm17.9-11.3c4.3 0 7.8 3.2 7.9 7.4 0 4.3-3.5 7.6-7.8 7.6-4.4 0-7.9-3.1-7.9-7.5-.1-4.2 3.4-7.4 7.8-7.5zm0 11.2c2 0 3.5-1.5 3.5-3.7s-1.6-3.7-3.6-3.7-3.5 1.5-3.5 3.7 1.6 3.8 3.6 3.7zm21.4 1.6c-1.4 2-3.6 2.1-4.5 2.1-4.2 0-6.9-3.6-6.9-7.5 0-3.6 2.7-7.5 6.9-7.5.8 0 2.8.2 4.3 1.9h.1v-9.2h4.2l.1 22H431l-.1-1.8zm-3.6-9c-2 0-3.6 1.5-3.5 3.7 0 2.2 1.6 3.7 3.6 3.7s3.6-1.5 3.5-3.7c-.1-2.2-1.7-3.7-3.6-3.7zm10.7 6.8v-.1c0-3.5 3.5-4.4 6.3-4.5h1.4c.8 0 1.1-.4 1.1-1 0-.9-.8-1.8-2.3-1.8-1.3 0-2.3.8-2.6 2l-3.7-.8c.5-3.1 3.4-4.6 6.5-4.6 3.6 0 6.2 1.9 6.2 5.8v8.9H447v-1.8h-.1c-1.1 1.5-2.7 2.1-4.3 2.1-2.3.1-4.5-1.5-4.6-4.2zm8.9-1.6v-.3h-2.5c-.9 0-2.1.5-2.1 1.7 0 1 .9 1.5 1.8 1.4 1.8 0 2.8-1.3 2.8-2.8z" fill="#BDD4FF"/><path d="M122.1 376.25h3.8l.1 15h8v3.7l-11.8.1-.1-18.8zm15.8-.9c1.3 0 2.3 1 2.3 2.3 0 1.3-1 2.3-2.3 2.3-1.2 0-2.3-1-2.3-2.3 0-1.3 1.1-2.3 2.3-2.3zm-1.7 19.4h3.7l-.1-12.7h-3.7l.1 12.7zm10.8-11.2c1.3-1.6 3.1-1.8 3.9-1.8 3.7 0 6.1 3.3 6.1 6.5 0 3.3-2.4 6.6-6.1 6.6-.8 0-2.6-.2-3.9-1.7v1.5h-3.6l-.1-19.4h3.7v8.3zm3.1 8.1c1.7 0 3.1-1.3 3.1-3.3 0-1.9-1.4-3.2-3.2-3.2-1.7 0-3.1 1.3-3.1 3.2 0 1.9 1.4 3.3 3.2 3.3zm12.5-2.3c.2 1.6 1.6 2.5 3.2 2.5 1.1 0 2.3-.7 2.7-1.7l3.1 1c-.8 2.5-3.2 3.8-5.7 3.8-3.9 0-7-2.7-7-6.6 0-3.7 3-6.7 6.7-6.7 3.8 0 6.3 2.6 6.4 6.3v1.3l-9.4.1zm5.6-2.5c-.1-.9-.9-2.2-2.7-2.2-1.7 0-2.6 1.4-2.8 2.2h5.5zm14.2-1.3c-.5-.1-1-.1-1.2-.1-1.8 0-3 1.3-3 3.6v5.6h-3.6l-.1-12.7h3.5v1.9c.7-1.5 2-2 3.3-2 .3 0 .7.1 1 .1l.1 3.6zm7.2 4.3c0 1 .6 1.6 1.8 1.6.5 0 .6 0 1.3-.1v3c-.9.3-1.8.3-2.2.3-3.9 0-4.6-2.6-4.6-4.6v-5h-2.5v-3.2h2.5v-4h3.7v4h3.1v3.2h-3.1v4.8zm8.8-.7c.2 1.6 1.6 2.5 3.2 2.5 1.1 0 2.3-.7 2.7-1.7l3.1 1c-.8 2.5-3.2 3.8-5.7 3.8-3.9 0-7-2.7-7-6.6 0-3.7 3-6.7 6.7-6.7 3.8 0 6.3 2.6 6.4 6.3v1.3l-9.4.1zm.1-2.4h5.5c-.1-.9-.9-2.2-2.7-2.2-1.7 0-2.7 1.3-2.8 2.2zm3.7-11.5l-2.5 4.5h3l3.7-4.5h-4.2z" fill="#BDD4FF"/><path opacity=".6" d="M51.2 470.05l-1 2.7h-2.7l4.7-12.5h3.1l4.9 12.5h-2.7l-1-2.7h-5.3zm4.5-2.4l-1.8-4.9-1.8 4.9h3.6zm9.2-1.4H61v-2.1h7.1v1.9l-4 4.5h4.1v2.1H61v-1.9l3.9-4.5zm4.6 4c0-2.1 2.1-2.7 3.7-2.7h.8c.5 0 .7-.2.7-.6 0-.5-.5-1.1-1.3-1-.8 0-1.3.5-1.5 1.2l-2.2-.5c.3-1.8 2-2.7 3.8-2.7 2.1 0 3.7 1.1 3.7 3.4v5.3h-2.3v-1.1c-.6.9-1.6 1.2-2.5 1.2-1.5 0-2.8-.9-2.9-2.5zm5.3-1v-.2h-1.5c-.5 0-1.2.3-1.2 1 0 .6.5.9 1 .9 1.1 0 1.7-.8 1.7-1.7zm10.9 2.2c-.8 1.2-2.1 1.3-2.7 1.3-2.5 0-4.1-2.1-4.1-4.4 0-2.2 1.6-4.4 4.1-4.4.5 0 1.7.1 2.6 1.1v-5.5h2.5l.1 13h-2.4l-.1-1.1zm-2.1-5.3c-1.2 0-2.1.9-2.1 2.2 0 1.3 1 2.2 2.1 2.2 1.2 0 2.1-.9 2.1-2.2 0-1.4-1-2.2-2.1-2.2zm4.9-3.6l1.9-2.8h2.3l1.9 2.8h-2.1l-1-1.5-1 1.5h-2zm4.4 1.4h-2.5v8.5h2.5v-8.5z" fill="#BDD4FF"/><path d="M228.1 389.45h3.1l3.6 10.5 3.5-10.5h3l-4.9 13.8h-3.3l-5-13.8zm19.8 7c-.4-.1-.8-.1-.9-.1-1.3 0-2.2.9-2.2 2.7v4.1h-2.7v-9.4h2.6v1.4c.5-1.1 1.5-1.5 2.4-1.5.2 0 .5 0 .7.1l.1 2.7zm2.9-7.7c1 0 1.7.8 1.7 1.7 0 .9-.7 1.7-1.7 1.7-.9 0-1.7-.8-1.7-1.7 0-.9.8-1.7 1.7-1.7zm-1.3 14.4h2.8v-9.4h-2.8v9.4zm5.4-9.4h2.7v10.7c0 2-1.2 3.4-3.3 3.4-.5 0-1.2 0-1.7-.2v-2.3c.3.1.6.1.9.1.8 0 1.3-.4 1.3-1.3l.1-10.4zm-.3-3.3c0 .9.8 1.7 1.7 1.7 1 0 1.7-.8 1.7-1.7 0-.9-.8-1.7-1.7-1.7-1 0-1.7.7-1.7 1.7zm11.7 7.4c0-1-.5-1.8-1.6-1.8-1.2 0-1.7.9-1.7 1.8v5.2h-2.7l-.1-14.3h2.7v6c.8-1.1 2.1-1.3 2.6-1.3 2.4 0 3.5 1.8 3.5 3.7v5.8h-2.7v-5.1zm7.4 1.2c.2 1.2 1.2 1.8 2.3 1.8.8 0 1.7-.5 2-1.3l2.3.8c-.6 1.8-2.3 2.8-4.2 2.8-2.9 0-5.2-2-5.2-4.9 0-2.7 2.2-4.9 5-4.9s4.7 1.9 4.7 4.7v1h-6.9zm4.1-1.8c-.1-.7-.6-1.6-2-1.6-1.2 0-1.9 1-2 1.6h4zm6.1-8.7c1 0 1.7.8 1.7 1.7 0 .9-.7 1.7-1.7 1.7-.9 0-1.7-.8-1.7-1.7 0-.9.7-1.7 1.7-1.7zm-1.3 14.4h2.8v-9.4h-2.8v9.4zm12.1-1.2c-.9 1.3-2.3 1.4-3 1.4-2.7 0-4.5-2.3-4.5-4.9 0-2.4 1.8-4.9 4.5-4.9.5 0 1.8.1 2.8 1.2v-6h2.7l.1 14.3h-2.7l.1-1.1zm-2.3-5.9c-1.3 0-2.3 1-2.3 2.4s1 2.4 2.3 2.4c1.3 0 2.3-1 2.3-2.4 0-1.5-1-2.4-2.3-2.4z" fill="#BDD4FF"/><path opacity=".9" d="M179.2 405.85h4.7l.1 18.2h9.7v4.5l-14.4.1-.1-22.8zm19.2-1.1c1.6 0 2.8 1.2 2.9 2.8 0 1.5-1.2 2.8-2.8 2.8-1.5 0-2.8-1.2-2.8-2.8-.1-1.5 1.1-2.7 2.7-2.8zm-2.2 23.8h4.6l-.1-15.5h-4.6l.1 15.5zm13.2-13.7c1.6-2 3.8-2.2 4.7-2.2 4.6 0 7.4 4.1 7.4 8 0 4-3 8.1-7.4 8.1-1 0-3.2-.2-4.7-2.1h-.1v1.9h-4.4l-.1-23.6h4.5l.1 9.9zm3.8 9.8c2.1 0 3.8-1.6 3.8-4 0-2.3-1.7-3.9-3.9-3.9-2.1 0-3.8 1.6-3.8 3.9 0 2.4 1.8 4 3.9 4zm15.3-2.8c.3 1.9 2 3 3.8 3 1.3 0 2.8-.8 3.3-2.1l3.7 1.3c-1 3-3.9 4.6-6.9 4.6-4.7 0-8.5-3.3-8.5-8.1 0-4.5 3.7-8.1 8.2-8.1 4.6 0 7.7 3.1 7.8 7.7 0 .6 0 1.1-.1 1.6l-11.3.1zm6.7-3c-.1-1.1-1.1-2.7-3.3-2.7-2 0-3.2 1.7-3.4 2.7h6.7zm17.4-1.7c-.6-.1-1.2-.1-1.5-.1-2.2 0-3.7 1.5-3.7 4.4v6.8H243v-15.4h4.3v2.3h.1c.8-1.8 2.4-2.4 4-2.5.3 0 .9.1 1.2.2v4.3zm8.7 5.4c0 1.2.7 2 2.2 2 .7 0 .8 0 1.6-.1v3.7c-1 .3-2.2.4-2.7.4-4.8 0-5.6-3.1-5.6-5.6v-6.1h-3v-3.9h3.1v-4.8h4.5v4.8h3.8v3.9h-3.8l-.1 5.7zm6.4 1.3v-.1c0-3.7 3.8-4.8 6.8-4.8h1.5c.8 0 1.2-.4 1.2-1.1 0-1-.8-1.9-2.4-1.9-1.4 0-2.4.8-2.8 2.1l-4-.9c.5-3.3 3.7-4.9 6.9-4.9 3.9 0 6.7 2 6.7 6.2v9.6h-4.2v-1.9h-.1c-1.2 1.7-2.9 2.2-4.6 2.3-2.6 0-5-1.7-5-4.6zm9.5-1.7v-.3h-2.7c-.9 0-2.3.6-2.3 1.8 0 1.1.9 1.6 1.9 1.6 2-.1 3.1-1.6 3.1-3.1zm19.8 3.9c-1.5 2.1-3.8 2.3-4.9 2.3-4.5 0-7.4-3.9-7.4-8 0-3.9 3-8 7.4-8 .9 0 3 .2 4.7 2h.1v-9.9h4.5l.1 23.6h-4.4l-.1-2zm-3.8-9.7c-2.1 0-3.8 1.6-3.8 3.9s1.7 4 3.8 4c2.1 0 3.8-1.6 3.8-4 0-2.3-1.7-3.9-3.8-3.9z" fill="#BDD4FF"/><path d="M100.7 402.85h2.4v9.4h5v2.3h-7.4v-11.7zm9.9-.6c.8 0 1.5.6 1.5 1.4 0 .8-.6 1.4-1.5 1.4-.8 0-1.4-.6-1.4-1.4 0-.7.6-1.4 1.4-1.4zm-1.1 12.3h2.4v-8h-2.4v8zm6.8-7.1c.8-1 2-1.1 2.5-1.1 2.4 0 3.8 2.1 3.8 4.1 0 2.1-1.5 4.2-3.9 4.2-.5 0-1.7-.1-2.4-1.1v1H114l-.1-12.2h2.3l.1 5.1zm2 5.1c1.1 0 2-.8 2-2.1 0-1.2-.9-2-2-2s-2 .8-2 2 .9 2.1 2 2.1zm7.9-1.5c.2 1 1 1.6 2 1.6.7 0 1.4-.4 1.7-1.1l1.9.7c-.5 1.5-2 2.4-3.6 2.4-2.4 0-4.4-1.7-4.4-4.2 0-2.3 1.9-4.2 4.2-4.2 2.4 0 4 1.6 4 4v.8h-5.8zm3.5-1.5c0-.6-.5-1.4-1.7-1.4-1.1 0-1.6.9-1.7 1.4h3.4zm8.9-.9c-.3-.1-.6-.1-.8-.1-1.1 0-1.9.8-1.9 2.3v3.5h-2.3v-8h2.2v1.2c.4-.9 1.2-1.3 2.1-1.3.2 0 .5 0 .6.1l.1 2.3zm3.2 2.4c.2 1 1 1.6 2 1.6.7 0 1.4-.4 1.7-1.1l1.9.7c-.5 1.5-2 2.4-3.6 2.4-2.4 0-4.4-1.7-4.4-4.2 0-2.3 1.9-4.2 4.2-4.2 2.4 0 4 1.6 4 4v.8h-5.8zm3.5-1.6c0-.6-.5-1.4-1.7-1.4-1.1 0-1.6.9-1.7 1.4h3.4zm3.5.9c0-2.4 1.9-4.2 4.3-4.2 1.7 0 3.5.9 3.9 2.7l-2.1.7c-.2-.6-.8-1.2-1.8-1.2s-1.9.8-1.9 2 .8 2 1.9 2c1 0 1.6-.6 1.8-1.3l2.1.6c-.5 1.8-2.3 2.8-4 2.8-2.4.1-4.2-1.7-4.2-4.1zm13.7-4.3c2.4 0 4.4 1.7 4.4 4.1 0 2.4-1.9 4.2-4.4 4.2-2.4 0-4.4-1.7-4.4-4.2 0-2.2 2-4.1 4.4-4.1zm0 6.3c1.1 0 2-.8 2-2.1 0-1.2-.9-2-2-2s-2 .8-2 2c.1 1.2.9 2.1 2 2.1z" fill="#BDD4FF"/><path opacity=".7" d="M492.5 478.05l.1 25.7h-4.1v-1.6l-15.2.1v1.6h-3.9l-.1-25.7h8.2c.3-1.4.7-2.9.8-4.2l4.6.5c-.5 1.3-1 2.5-1.5 3.7l11.1-.1zm-19.3 3.7v3.3l15.2-.1v-3.3l-15.2.1zm.1 6.8v3.3l15.2-.1v-3.3l-15.2.1zm15.2 10.1v-3.3l-15.2.1v3.3l15.2-.1zm37-18.8l.1 23.8h-4v-1.7l-17.7.1v1.7h-3.8l-.1-23.8h10.6v-6h3.9v6l11-.1zm-21.7 3.9v5.3h6.8v-5.3h-6.8zm.1 14.5h6.8v-5.4h-6.8v5.4zm10.6-14.5v5.3h7v-5.3h-7zm7.1 14.4v-5.4h-7v5.4h7z" fill="#BDD4FF"/><path opacity=".4" d="M303.1 494.25H299l-.1-19.9h4.1v8.7l6.8-8.7h5.1l-7.6 9.5 8.2 10.4h-5.3l-7.2-9.4.1 9.4zm13.2-3.8v-.1c0-3.3 3.3-4.2 6-4.2h1.3c.7 0 1.1-.4 1.1-.9 0-.9-.7-1.7-2.1-1.7-1.2 0-2.1.7-2.4 1.9l-3.5-.8c.4-2.9 3.2-4.3 6.1-4.3 3.4 0 5.9 1.8 5.9 5.4v8.4H325v-1.7h-.1c-1 1.5-2.6 2-4 2-2.5 0-4.6-1.5-4.6-4zm8.3-1.5v-.3h-2.4c-.8 0-2 .5-2 1.6 0 1 .8 1.4 1.7 1.4 1.8-.1 2.7-1.3 2.7-2.7zm20-2.4v7.6h-3.9v-7.5c0-1.5-.6-2.6-2.2-2.6s-2.4 1.1-2.4 2.7v7.5h-4l-.1-13.6h3.9v1.8h.1c.8-1.4 2.4-2.1 4-2.1s3.2.6 4 2.1c1.3-1.4 2.5-2.2 4.5-2.2 3.3 0 4.8 2.3 4.8 5.4v8.5h-4v-7.6c0-1.5-.6-2.6-2.2-2.6-1.7 0-2.5 1-2.5 2.6zm11.4 3.7v-.1c0-3.3 3.3-4.2 6-4.2h1.3c.7 0 1.1-.4 1.1-.9 0-.9-.7-1.7-2.1-1.7-1.2 0-2.1.7-2.4 1.9l-3.5-.8c.4-2.9 3.2-4.3 6.1-4.3 3.4 0 5.9 1.8 5.9 5.4v8.4h-3.7v-1.7h-.1c-1 1.5-2.6 2-4 2-2.5 0-4.6-1.5-4.6-4zm8.3-1.5v-.3h-2.4c-.8 0-2 .5-2 1.6 0 1 .8 1.4 1.7 1.4 1.8-.1 2.7-1.3 2.7-2.7zm15.8-4.5c-.5-.1-1.1-.1-1.3-.1-1.9 0-3.2 1.3-3.2 3.9v5.9h-3.9l-.1-13.6h3.8v2h.1c.7-1.6 2.1-2.1 3.5-2.2.3 0 .8.1 1.1.1v4zm12 7.9c-1.3 1.9-3.3 2-4.3 2-3.9 0-6.5-3.4-6.5-7 0-3.4 2.6-7 6.5-7 .8 0 2.7.1 4.1 1.8h.1v-8.7h3.9l.1 20.6h-3.8l-.1-1.7zm-3.4-8.5c-1.9 0-3.3 1.4-3.3 3.4 0 2.1 1.5 3.5 3.4 3.5s3.3-1.4 3.3-3.5c0-2-1.5-3.4-3.4-3.4zm12.8-10.6c1.4 0 2.5 1.1 2.5 2.5 0 1.3-1.1 2.4-2.5 2.5-1.3 0-2.4-1.1-2.5-2.4.1-1.5 1.2-2.6 2.5-2.6zm-1.9 20.8h4l-.1-13.6h-4l.1 13.6zm11.6-6.5v6.4h-4l-.1-20.7h4l.1 12.5 4.7-5.4h5.1l-5.4 6.3 5.7 7.3h-5l-4.8-6.4h-.3zm10.7 2.6v-.1c0-3.3 3.3-4.2 6-4.2h1.3c.7 0 1.1-.4 1.1-.9 0-.9-.7-1.7-2.1-1.7-1.2 0-2.1.7-2.4 1.9l-3.5-.8c.4-2.9 3.2-4.3 6.1-4.3 3.4 0 5.9 1.8 5.9 5.4v8.4h-3.7v-1.7h-.1c-1 1.5-2.6 2-4 2-2.5 0-4.6-1.5-4.6-4zm8.3-1.5v-.3h-2.4c-.8 0-2 .5-2 1.6 0 1 .8 1.4 1.7 1.4 1.8-.1 2.7-1.3 2.7-2.7zm16.2-2.3c0-1.5-.7-2.6-2.4-2.6s-2.4 1.3-2.4 2.7v7.5h-4l-.1-13.6h3.9v1.8c1-1.8 3.3-2 3.8-2.1 3.5 0 4.9 2.6 4.9 5.4v8.4h-3.9l.2-7.5z" fill="#BDD4FF"/><path opacity=".7" d="M218.8 382.35h-1.9v-9.2h1.9v4l3.1-4h2.4l-3.5 4.4 3.8 4.8h-2.5l-3.3-4.3v4.3zm7.6-2.6c.1.8.8 1.2 1.6 1.2.5 0 1.1-.3 1.3-.8l1.5.5c-.4 1.2-1.6 1.9-2.8 1.9-1.9 0-3.4-1.3-3.5-3.3 0-1.8 1.5-3.3 3.3-3.3 1.9 0 3.1 1.3 3.1 3.1v.7h-4.5zm2.7-1.3c0-.5-.4-1.1-1.3-1.1-.8 0-1.3.7-1.4 1.1h2.7zm5-1.7c.6-.8 1.5-.9 1.9-.9 1.8 0 3 1.6 3 3.2s-1.2 3.3-3 3.3c-.4 0-1.3-.1-1.9-.9v.8h-1.8v-9.6h1.8v4.1zm1.5 4c.9 0 1.5-.7 1.5-1.6 0-.9-.7-1.6-1.6-1.6-.8 0-1.5.7-1.5 1.6 0 1 .7 1.6 1.6 1.6zm6.2-1.1c.1.8.8 1.2 1.6 1.2.5 0 1.1-.3 1.3-.8l1.5.5c-.4 1.2-1.6 1.9-2.8 1.9-1.9 0-3.4-1.3-3.5-3.3 0-1.8 1.5-3.3 3.3-3.3 1.9 0 3.1 1.3 3.1 3.1v.7h-4.5zm2.7-1.2c0-.5-.4-1.1-1.3-1.1-.8 0-1.3.7-1.4 1.1h2.7zm5-1.7c.6-.8 1.5-.9 1.9-.9 1.8 0 3 1.6 3 3.2s-1.2 3.3-3 3.3c-.4 0-1.3-.1-1.9-.9v.8h-1.8v-9.6h1.8v4.1zm1.5 3.9c.9 0 1.5-.7 1.5-1.6 0-.9-.7-1.6-1.6-1.6-.8 0-1.5.7-1.5 1.6 0 1 .7 1.6 1.6 1.6zm4.4-.2c0-1.5 1.5-2 2.7-2h.6c.3 0 .5-.2.5-.4 0-.4-.3-.8-1-.8-.6 0-1 .3-1.1.9l-1.6-.4c.2-1.3 1.5-2 2.8-2 1.6 0 2.7.8 2.7 2.5v3.9h-1.7v-.8c-.5.7-1.2.9-1.9.9-1.1.1-2-.6-2-1.8zm3.8-.7v-.1h-1.1c-.4 0-.9.2-.9.7 0 .4.4.6.8.6.8 0 1.2-.6 1.2-1.2zm3 .7l1.6-.4c.1.5.4.9 1 .9.5 0 .8-.3.7-.5 0-.4-.3-.5-1-.6-1.2-.2-2.3-.6-2.3-2 0-1.1 1.1-2 2.5-2 1.6 0 2.4 1 2.5 1.7l-1.6.4c-.1-.4-.4-.7-.9-.7-.4 0-.7.2-.7.5 0 .4.3.5 1 .5 1.2.1 2.3.6 2.4 2 0 1.1-.8 2.1-2.5 2.1-1.9 0-2.6-1.2-2.7-1.9zm6.2-.1c0-1.5 1.5-2 2.7-2h.6c.3 0 .5-.2.5-.4 0-.4-.3-.8-1-.8-.6 0-1 .3-1.1.9l-1.6-.4c.2-1.3 1.5-2 2.8-2 1.6 0 2.7.8 2.7 2.5v3.9h-1.7v-.8c-.5.7-1.2.9-1.9.9-1 .1-2-.6-2-1.8zm3.9-.7v-.1h-1.1c-.4 0-.9.2-.9.7 0 .4.4.6.8.6.7.1 1.2-.5 1.2-1.2zm7.4-1c0-.7-.3-1.2-1.1-1.2s-1.1.6-1.1 1.2v3.5h-1.8v-6.3h1.8v.8c.5-.8 1.5-.9 1.8-.9 1.6 0 2.3 1.2 2.3 2.5v3.9h-1.8l-.1-3.5zM39.4 503.85l-11.4.1-.1-27 11.2-.1c4.3 0 8.6 2.3 8.7 7.1 0 2.7-1.4 4.6-3.8 5.8v.1c3.2 1.2 5 3 5 6.6 0 5.4-4.9 7.4-9.6 7.4zm-1.1-21.8h-5v5.8h4.6c2 0 4.3-.5 4.3-3 0-2.2-2-2.9-3.9-2.8zm.8 10.6h-5.7v6h5.9c2 0 4.2-.6 4.2-3 0-2.5-2.4-3-4.4-3zm25.2-2c-.7-.1-1.5-.1-1.7-.1-2.6 0-4.4 1.8-4.4 5.2v8.1h-5.3l-.1-18.4h5.1v2.7h.1c1-2.1 2.8-2.9 4.7-2.9.4 0 1.1.1 1.5.2l.1 5.2zm0-8.6v-4l11.8-.1v4l-11.8.1zm8.7 21.7h-5.4l-.1-18.4h5.4l.1 18.4zm2.9-18.5h5.7l4.6 12.3 4.5-12.3h5.7l-7.5 18.5h-5.5l-7.5-18.5zm20.2-3.3v-4l11.8-.1v4l-11.8.1zm8.7 21.6h-5.4l-.1-18.4h5.4l.1 18.4zm10.3-16.2c1.9-2.4 4.5-2.6 5.6-2.6 5.4 0 8.8 4.8 8.8 9.5 0 4.8-3.5 9.6-8.9 9.6-1.2 0-3.8-.2-5.6-2.5v2.2h-5.2l-.1-28.1h5.4v11.9zm4.4 11.6c2.5 0 4.5-2 4.5-4.7 0-2.8-2.1-4.6-4.6-4.6-2.5 0-4.5 1.9-4.5 4.7.1 2.7 2.1 4.6 4.6 4.6zm12.9-.6v-.1c0-4.4 4.5-5.7 8.1-5.7h1.8c1 0 1.4-.5 1.4-1.3 0-1.2-1-2.3-2.9-2.3-1.7 0-2.9 1-3.3 2.5l-4.7-1c.6-3.9 4.4-5.8 8.3-5.8 4.6 0 7.9 2.4 8 7.4l.1 11.4h-5v-2.3h-.1c-1.4 2-3.5 2.7-5.5 2.7-3.3-.1-6.2-2.1-6.2-5.5zm11.3-2.1v-.4h-3.2c-1.1 0-2.7.7-2.7 2.1 0 1.3 1.1 1.9 2.3 1.9 2.3 0 3.6-1.7 3.6-3.6z" fill="#BDD4FF"/><path d="M318.2 388.75h7.9v3.8h-7.9v7.7h-4l-.1-19.6 12.9-.1v3.8h-8.8v4.4zm19.5 1.9c-.5-.1-1.1-.1-1.2-.1-1.9 0-3.2 1.3-3.2 3.8v5.8h-3.8l-.1-13.3h3.7v1.9h.1c.7-1.5 2.1-2.1 3.4-2.1.3 0 .8.1 1 .1l.1 3.9zm5.2 3.9c.3 1.7 1.7 2.6 3.3 2.6 1.1 0 2.4-.7 2.8-1.8l3.2 1.1c-.9 2.6-3.3 4-6 4-4 0-7.3-2.8-7.4-7 0-3.8 3.2-7 7-7 4 0 6.7 2.7 6.7 6.6v1.4l-9.6.1zm5.8-2.6c-.1-1-.9-2.3-2.9-2.3-1.8 0-2.7 1.5-2.9 2.3h5.8zm8.6-12.3c1.4 0 2.5 1.1 2.5 2.4 0 1.3-1.1 2.4-2.4 2.4-1.3 0-2.4-1.1-2.4-2.4-.1-1.3 1-2.3 2.3-2.4zm-1.9 20.5h3.9l-.1-13.3h-3.9l.1 13.3zm16.1-7.5c0-1.4-.7-2.6-2.3-2.6-1.7 0-2.4 1.3-2.4 2.6v7.4h-3.9l-.1-20.3h3.9v8.6c1.1-1.6 3-1.8 3.7-1.8 3.4 0 4.9 2.5 4.9 5.3v8.3h-3.9l.1-7.5zm10.6 1.8c.3 1.7 1.7 2.6 3.3 2.6 1.1 0 2.4-.7 2.8-1.8l3.2 1.1c-.9 2.6-3.3 4-6 4-4 0-7.3-2.8-7.4-7 0-3.8 3.2-7 7-7 4 0 6.7 2.7 6.7 6.6v1.4l-9.6.1zm5.8-2.6c-.1-1-.9-2.3-2.9-2.3-1.7 0-2.7 1.5-2.9 2.3h5.8zm8.5-12.3c1.4 0 2.5 1.1 2.5 2.4 0 1.3-1.1 2.4-2.4 2.4-1.3 0-2.4-1.1-2.4-2.4-.1-1.3 1-2.4 2.3-2.4zm-1.8 20.4h3.9l-.1-13.3h-3.9l.1 13.3zm12.7-5c0 1 .6 1.7 1.9 1.7.6 0 .7 0 1.4-.1v3.2c-.9.3-1.9.3-2.3.3-4.1 0-4.8-2.7-4.8-4.9v-5.3h-2.6v-3.4h2.6v-4.2h3.8v4.2h3.3v3.4h-3.3v5.1zm34.8 56.2h3.7l4.3 12.5 4.2-12.5h3.6l-5.9 16.5h-3.9l-6-16.5zm15.6 13.3c0-2.8 2.7-3.5 4.9-3.5h1.1c.6 0 .9-.3.9-.8 0-.7-.6-1.4-1.8-1.4-1 0-1.8.6-2 1.5l-2.9-.6c.4-2.4 2.7-3.5 5-3.6 2.8 0 4.8 1.5 4.8 4.5v6.9h-3v-1.4c-.8 1.2-2.1 1.6-3.3 1.6-1.9.1-3.7-1.2-3.7-3.2zm6.9-1.3v-.3h-2c-.7 0-1.6.4-1.6 1.3 0 .8.7 1.1 1.4 1.1 1.5.1 2.2-.9 2.2-2.1zm9.4-5.5c1.1-1.4 2.8-1.6 3.4-1.6 3.3 0 5.3 2.9 5.4 5.8 0 2.9-2.1 5.8-5.4 5.9-.7 0-2.3-.1-3.4-1.5v1.3h-3.2l-.1-17.1h3.3v7.2zm2.7 7.1c1.5 0 2.8-1.2 2.8-2.9s-1.3-2.8-2.8-2.8c-1.5 0-2.7 1.2-2.7 2.8 0 1.7 1.2 2.9 2.7 2.9zm7.9-.5c0-2.8 2.7-3.5 4.9-3.5h1.1c.6 0 .9-.3.9-.8 0-.7-.6-1.4-1.8-1.4-1 0-1.8.6-2 1.5l-2.9-.6c.4-2.4 2.7-3.5 5-3.6 2.8 0 4.8 1.5 4.8 4.5v6.9h-3v-1.4c-.8 1.2-2.1 1.6-3.3 1.6-2 .2-3.7-1.1-3.7-3.2zm6.8-1.2v-.3h-2c-.7 0-1.6.4-1.6 1.3 0 .8.7 1.1 1.4 1.1 1.5.1 2.2-1 2.2-2.1zm14.4 2.9c-1.1 1.5-2.8 1.6-3.5 1.7-3.3 0-5.3-2.8-5.4-5.8 0-2.8 2.1-5.8 5.3-5.8.7 0 2.2.1 3.4 1.5v-7.2h3.3l.1 17.1h-3.2v-1.5zm-2.8-7.1c-1.5 0-2.8 1.2-2.8 2.8 0 1.7 1.3 2.9 2.8 2.9 1.5 0 2.8-1.2 2.8-2.9 0-1.6-1.3-2.8-2.8-2.8zm12.2 3.5c0 1.2.6 2.1 1.9 2.1 1.4 0 2-1 2-2.2v-6.3h3.3l.1 11.2h-3.2v-1.4c-1.1 1.6-2.8 1.6-3.1 1.6-2.8 0-4.1-2.1-4.1-4.4v-7h3.3l-.2 6.4zm9.5 1.8l2.9-.8c.2.8.8 1.5 1.9 1.5 1 0 1.3-.6 1.3-1 0-.7-.6-.9-1.8-1.1-2.1-.3-4.1-1-4.1-3.5 0-2 2-3.6 4.4-3.6 2.9 0 4.2 1.8 4.4 3.1l-2.8.7c-.2-.8-.7-1.3-1.6-1.3-.8 0-1.3.4-1.3.9 0 .7.5.9 1.7 1 2.2.2 4.2 1 4.2 3.6 0 1.9-1.5 3.7-4.5 3.7-3.3.1-4.5-2-4.7-3.2z" fill="#BDD4FF"/><path opacity=".5" d="M162.5 498.45h5.5l.1 21.6 11.5-.1v5.3l-17 .1-.1-26.9zm22.8-1.3c1.9 0 3.4 1.5 3.4 3.3 0 1.8-1.5 3.3-3.3 3.3-1.8 0-3.3-1.5-3.3-3.3-.1-1.8 1.4-3.2 3.2-3.3zm-2.6 28.1h5.4l-.1-18.4h-5.4l.1 18.4zm15.6-16.2c1.9-2.3 4.5-2.6 5.6-2.6 5.4 0 8.7 4.8 8.8 9.4 0 4.8-3.5 9.6-8.8 9.6-1.2 0-3.8-.2-5.6-2.5h-.1v2.2H193l-.1-27.9h5.4v11.8zm4.5 11.6c2.5 0 4.5-1.9 4.5-4.7 0-2.7-2-4.6-4.6-4.6-2.5 0-4.5 1.9-4.5 4.7.1 2.7 2.1 4.6 4.6 4.6zm18.1-3.3c.4 2.3 2.3 3.6 4.5 3.6 1.5 0 3.3-.9 3.9-2.5l4.4 1.5c-1.2 3.5-4.6 5.4-8.2 5.5-5.6 0-10.1-3.9-10.1-9.6 0-5.3 4.4-9.6 9.7-9.6 5.5 0 9.1 3.7 9.2 9.1 0 .7 0 1.3-.1 1.9l-13.3.1zm8-3.5c-.1-1.3-1.2-3.2-3.9-3.2-2.4 0-3.8 2-4 3.2h7.9zm20.5-2c-.7-.1-1.5-.1-1.7-.1-2.6 0-4.3 1.8-4.3 5.2v8h-5.2l-.1-18.3h5.1v2.7h.1c1-2.1 2.8-2.9 4.7-2.9.4 0 1.1.1 1.4.2v5.2zm16.2 10.7c-1.8 2.5-4.5 2.7-5.8 2.7-5.3 0-8.7-4.6-8.8-9.5 0-4.6 3.5-9.5 8.7-9.5 1.1 0 3.6.2 5.5 2.4h.1l-.1-11.7h5.3l.1 27.9h-5.2l.2-2.3zm-4.6-11.5c-2.5 0-4.5 1.9-4.5 4.7 0 2.8 2 4.7 4.5 4.7s4.5-1.9 4.5-4.7c0-2.8-2-4.7-4.5-4.7zm13.7 8.6v-.1c0-4.4 4.5-5.6 8-5.7h1.8c1 0 1.4-.5 1.4-1.3 0-1.2-1-2.3-2.9-2.3-1.6 0-2.9 1-3.3 2.5l-4.7-1c.6-3.9 4.4-5.8 8.2-5.8 4.6 0 7.9 2.4 7.9 7.3l.1 11.4h-4.9v-2.3h-.1c-1.4 2-3.5 2.7-5.4 2.7-3.2.1-6.1-2-6.1-5.4zm11.2-2v-.4h-3.2c-1.1 0-2.7.7-2.7 2.1 0 1.3 1.1 1.8 2.2 1.8 2.5 0 3.8-1.6 3.7-3.5zm23.5 4.7c-1.8 2.5-4.5 2.7-5.8 2.7-5.3 0-8.7-4.6-8.8-9.5 0-4.6 3.5-9.5 8.7-9.5 1.1 0 3.6.2 5.5 2.4h.1l-.1-11.7h5.3l.1 27.9h-5.2l.2-2.3zm-4.6-11.5c-2.5 0-4.5 1.9-4.5 4.7 0 2.8 2 4.7 4.5 4.7s4.5-1.9 4.5-4.7c.1-2.8-2-4.7-4.5-4.7zm19.1 6c.4 2.3 2.3 3.6 4.5 3.6 1.5 0 3.3-.9 3.9-2.5l4.4 1.5c-1.2 3.5-4.6 5.4-8.2 5.5-5.6 0-10.1-3.9-10.1-9.6 0-5.3 4.4-9.6 9.7-9.6 5.5 0 9.1 3.7 9.2 9.1 0 .7 0 1.3-.1 1.9l-13.3.1zm8-3.5c-.1-1.3-1.2-3.2-3.9-3.2-2.4 0-3.8 2-4 3.2h7.9z" fill="#BDD4FF"/><path d="M368.4 510.05h10.1v4.9h-10.1v9.9h-5.2l-.1-25.1 16.5-.1v4.9l-11.3.1.1 5.4zm25 2.6c-.7-.1-1.4-.1-1.6-.1-2.4 0-4.1 1.7-4 4.9v7.5h-4.9l-.1-17.1h4.7v2.5h.1c.9-2 2.6-2.7 4.4-2.7.4 0 1 .1 1.3.2l.1 4.8zm5.4-14c1.8 0 3.1 1.4 3.1 3.1 0 1.7-1.4 3.1-3.1 3.1-1.7 0-3.1-1.4-3.1-3.1 0-1.7 1.4-3.1 3.1-3.1zm-2.3 26.1h5l-.1-17.1h-5l.1 17.1zm20.6-9.5c0-1.9-.9-3.3-3-3.3s-3.1 1.6-3.1 3.3v9.5h-5l-.1-26h5l.1 11c1.4-2.1 3.8-2.4 4.7-2.4 4.3 0 6.3 3.2 6.3 6.8v10.6h-5l.1-9.5zm13.4 2.2c.3 2.1 2.2 3.3 4.2 3.3 1.4 0 3-.9 3.6-2.3l4.1 1.4c-1.1 3.3-4.3 5.1-7.6 5.1-5.2 0-9.4-3.6-9.4-8.9 0-4.9 4.1-8.9 9-9 5.1 0 8.5 3.4 8.6 8.5 0 .6 0 1.2-.1 1.8l-12.4.1zm7.5-3.3c-.1-1.2-1.2-3-3.7-3-2.2 0-3.5 1.9-3.7 3h7.4zm14.9 4.1c0 1.3.7 2.2 2.4 2.2.7 0 .9 0 1.8-.1v4.1c-1.2.4-2.4.4-3 .4-5.3 0-6.2-3.4-6.2-6.2v-6.8h-3.3v-4.3h3.4v-5.3h4.9v5.3h4.2v4.3h-4.2v6.4zm-275.2-41.9h3.2l.1 12.7h6.7v3.1h-10v-15.8zm11.2 12.7c0-2.7 2.6-3.4 4.7-3.4h1c.6 0 .8-.3.8-.7 0-.7-.6-1.3-1.7-1.3-1 0-1.7.6-1.9 1.5l-2.8-.6c.4-2.3 2.6-3.4 4.8-3.4 2.7 0 4.6 1.4 4.7 4.3v6.7h-2.9v-1.3c-.8 1.2-2 1.6-3.2 1.6-1.8-.2-3.5-1.4-3.5-3.4zm6.6-1.2v-.2h-1.9c-.6 0-1.6.4-1.6 1.2 0 .8.6 1.1 1.3 1.1 1.5 0 2.2-1 2.2-2.1zm14-12.3l.1 16.4h-3.2l-.1-16.4h3.2zm4.5-.1c1.1 0 2 .9 2 1.9 0 1.1-.9 1.9-2 1.9-1 0-1.9-.9-1.9-1.9 0-1 .8-1.9 1.9-1.9zm-1.5 16.5h3.2v-10.8h-3.2v10.8zm9.2-9.5c1.1-1.4 2.7-1.5 3.3-1.5 3.2 0 5.1 2.8 5.1 5.5 0 2.8-2 5.6-5.2 5.6-.7 0-2.2-.1-3.3-1.5v1.3h-3.1l-.1-16.4h3.1l.2 7zm2.6 6.8c1.5 0 2.7-1.1 2.6-2.8 0-1.6-1.2-2.7-2.7-2.7-1.5 0-2.6 1.1-2.6 2.7 0 1.7 1.2 2.8 2.7 2.8zm10.6-1.9c.2 1.3 1.4 2.1 2.7 2.1.9 0 1.9-.6 2.3-1.4l2.6.9c-.7 2.1-2.7 3.2-4.8 3.2-3.3 0-5.9-2.3-5.9-5.6 0-3.1 2.6-5.6 5.7-5.6 3.2 0 5.4 2.2 5.4 5.4v1.1l-8-.1zm4.7-2.1c-.1-.8-.7-1.9-2.3-1.9-1.4 0-2.2 1.2-2.3 1.9h4.6zm12-1.2c-.4-.1-.9-.1-1-.1-1.5 0-2.6 1.1-2.5 3.1v4.7H245v-10.8h3v1.6c.6-1.2 1.7-1.7 2.8-1.7.2 0 .6.1.8.1v3.1zm6.1 3.7c0 .8.5 1.4 1.5 1.4.5 0 .5 0 1.1-.1v2.6c-.7.2-1.5.2-1.9.2-3.3 0-3.9-2.2-3.9-3.9v-4.2h-2.1v-2.7h2.1v-3.4h3.1v3.4h2.7v2.7h-2.7l.1 4zm4.4 1c0-2.7 2.6-3.4 4.7-3.4h1c.6 0 .8-.3.8-.7 0-.7-.6-1.3-1.7-1.3-1 0-1.7.6-1.9 1.5l-2.8-.6c.4-2.3 2.6-3.4 4.8-3.4 2.7 0 4.6 1.4 4.7 4.3v6.7h-2.9v-1.3c-.8 1.2-2 1.6-3.2 1.6-1.7-.2-3.4-1.4-3.5-3.4zm.7-13.4h3.6l2.2 3.8H266l-3.2-3.8zm5.9 12.2v-.2h-1.9c-.6 0-1.6.4-1.6 1.2 0 .8.6 1.1 1.3 1.1 1.5-.1 2.3-1 2.2-2.1zm-243.9 30.8h4.8v2.3h-4.8v4.6h-2.4l-.1-11.7H30v2.3h-5.3l.1 2.5zm11.7 1.2c-.3-.1-.6-.1-.8-.1-1.1 0-1.9.8-1.9 2.3v3.5h-2.3v-8h2.2v1.2c.4-.9 1.2-1.3 2.1-1.3.2 0 .5 0 .6.1l.1 2.3zm3.1 2.3c.2 1 1 1.6 2 1.6.7 0 1.4-.4 1.7-1.1l1.9.7c-.5 1.5-2 2.4-3.6 2.4-2.4 0-4.4-1.7-4.4-4.2 0-2.3 1.9-4.2 4.2-4.2 2.4 0 4 1.6 4 4v.8h-5.8zm3.5-1.5c0-.6-.5-1.4-1.7-1.4-1.1 0-1.6.9-1.7 1.4h3.4zm6.4-7.4l.1 12.2h-2.4l-.1-12.2h2.4zm1.7 10.1l2-.5c.1.6.6 1.1 1.3 1.1.7 0 1-.4 1-.7 0-.5-.4-.7-1.3-.8-1.5-.2-2.9-.7-2.9-2.5 0-1.5 1.5-2.6 3.2-2.6 2.1 0 3 1.3 3.2 2.2l-2 .5c-.1-.5-.5-.9-1.2-.9-.6 0-.9.3-.9.7 0 .5.4.6 1.2.7 1.5.2 3 .7 3 2.6 0 1.4-1.1 2.7-3.2 2.7-2.4-.2-3.3-1.7-3.4-2.5zm9.4-10.2c.8 0 1.5.6 1.5 1.4 0 .8-.6 1.4-1.5 1.4-.8 0-1.4-.6-1.4-1.4 0-.7.6-1.3 1.4-1.4zm-1.1 12.3h2.4v-8h-2.4v8zm16-9.7c0-3.7 3-6.5 6.5-6.5s5.4 2.3 5.8 4l-2.5.9c-.2-.8-1.2-2.4-3.4-2.4s-3.8 1.8-3.8 3.9c0 2.2 1.6 3.9 3.8 3.9 2.1 0 3.2-1.6 3.4-2.5l2.5.8c-.4 1.5-2.2 4.2-5.9 4.2-3.4.1-6.4-2.4-6.4-6.3zm21.9-.3c0 .7-.3 1.5-1.4 2 1.2.3 1.7 1.1 1.7 2.1 0 1.8-1.7 2.3-3.2 2.3h-5.1v-8.5h5.2c1.2 0 2.8.5 2.8 2.1zm-2.4.5c0-.4-.3-.7-.9-.7h-2.2v1.5H94c.8 0 1-.5 1-.8zm.3 3.2c0-.4-.3-.8-1.1-.8h-2.3v1.6h2.4c.8 0 1-.4 1-.8zm8.4-6c2.6 0 4.6 1.9 4.7 4.4 0 2.6-2.1 4.5-4.6 4.5-2.6 0-4.7-1.8-4.7-4.4-.1-2.5 2-4.5 4.6-4.5zm0 6.7c1.2 0 2.1-.9 2.1-2.2 0-1.3-1-2.2-2.1-2.2-1.2 0-2.1.9-2.1 2.2 0 1.3.9 2.2 2.1 2.2zm6.1-3.1c0-3.1.4-6.5 5.9-7.5l2.5-.5.4 2.1-2.9.6c-3.1.6-3.8 2.6-3.9 3.3h.1c1.2-1.5 2.9-1.5 3.3-1.5 2.1 0 3.9 1.7 3.9 4.2 0 2.8-1.9 4.6-4.6 4.6-2.7 0-4.7-1.8-4.7-5.3zm2.6.8c0 1.4 1 2.2 2.1 2.2 1.2 0 2.1-.8 2.1-2.2 0-1.5-1.1-2.2-2.1-2.2-1 .1-2.1.8-2.1 2.2zm12.6-4.5c2.6 0 4.6 1.9 4.7 4.4 0 2.6-2.1 4.5-4.6 4.5-2.6 0-4.7-1.8-4.7-4.4 0-2.5 2-4.5 4.6-4.5zm.1 6.7c1.2 0 2.1-.9 2.1-2.2 0-1.3-1-2.2-2.1-2.2-1.2 0-2.1.9-2.1 2.2-.1 1.3.9 2.2 2.1 2.2zm7.4-3.2l.3-3.4h7.3v6.4h1.1v4.8h-2.3v-2.6H133v2.6h-2.3v-4.8c.9 0 1.6-1.2 1.8-3zm2.6-1.2l-.1 1.3c-.1 1-.4 2.2-1.4 2.9h4v-4.2h-2.5zm7.4 4c0-2.1 2.1-2.7 3.7-2.7h.8c.5 0 .7-.2.7-.6 0-.5-.5-1.1-1.3-1-.8 0-1.3.5-1.5 1.2l-2.2-.5c.3-1.8 2-2.7 3.8-2.7 2.1 0 3.7 1.1 3.7 3.4v5.3h-2.3v-1.1c-.6.9-1.6 1.2-2.5 1.2-1.5 0-2.9-.9-2.9-2.5zm5.3-1v-.2h-1.5c-.5 0-1.2.3-1.2 1 0 .6.5.9 1 .9 1.1 0 1.7-.8 1.7-1.7z" fill="#BDD4FF"/><path opacity=".8" d="M478.4 510.65h2.3v8.9h4.7v2.2h-7v-11.1zm9.4-.5c.8 0 1.4.6 1.4 1.4 0 .8-.6 1.4-1.4 1.4-.7 0-1.4-.6-1.4-1.4 0-.8.7-1.4 1.4-1.4zm-1 11.5h2.2v-7.6h-2.2v7.6zm6.4-6.6c.8-1 1.9-1.1 2.3-1.1 2.2 0 3.6 2 3.6 3.9 0 2-1.4 3.9-3.6 4-.5 0-1.6-.1-2.3-1v.9H491l-.1-11.5h2.2l.1 4.8zm1.8 4.7c1 0 1.9-.8 1.9-1.9 0-1.1-.8-1.9-1.9-1.9-1 0-1.9.8-1.8 1.9 0 1.2.8 1.9 1.8 1.9zm7.5-1.3c.1.9 1 1.5 1.9 1.5.6 0 1.3-.4 1.6-1l1.8.6c-.5 1.5-1.9 2.2-3.4 2.3-2.3 0-4.2-1.6-4.2-3.9 0-2.2 1.8-4 4-4 2.3 0 3.8 1.5 3.8 3.8v.8l-5.5-.1zm3.3-1.5c0-.6-.5-1.3-1.6-1.3-1 0-1.6.8-1.6 1.3h3.2zm8.5-.8c-.3-.1-.6-.1-.7-.1-1.1 0-1.8.7-1.8 2.1v3.3h-2.2v-7.6h2.1v1.1c.4-.9 1.2-1.2 1.9-1.2.2 0 .4 0 .6.1l.1 2.3zm4.2 2.6c0 .6.3 1 1.1 1 .3 0 .4 0 .8-.1v1.8c-.5.2-1.1.2-1.3.2-2.3 0-2.7-1.5-2.7-2.7v-3h-1.5v-1.9h1.5v-2.4h2.2v2.4h1.9v1.9h-1.9l-.1 2.8zm3.1.7c0-1.9 1.8-2.4 3.3-2.4h.7c.4 0 .6-.2.6-.5 0-.5-.4-.9-1.2-.9-.7 0-1.2.4-1.4 1l-1.9-.4c.2-1.6 1.8-2.4 3.4-2.4 1.9 0 3.3 1 3.3 3v4.7h-2v-.9c-.6.8-1.4 1.1-2.2 1.1-1.4-.1-2.6-.9-2.6-2.3zm4.7-.9v-.2H525c-.5 0-1.1.3-1.1.9 0 .5.5.8.9.8 1 0 1.5-.7 1.5-1.5zm3.7.9l1.9-.5c.1.6.5 1 1.3 1 .7 0 .9-.4.9-.7 0-.5-.4-.6-1.2-.7-1.4-.2-2.7-.7-2.7-2.4 0-1.4 1.4-2.4 3-2.4 2 0 2.8 1.2 3 2.1l-1.9.5c-.1-.5-.5-.9-1.1-.9-.5 0-.9.3-.9.6 0 .5.4.6 1.2.7 1.5.2 2.8.7 2.8 2.4 0 1.3-1 2.5-3.1 2.5-2.3 0-3.1-1.4-3.2-2.2z" fill="#BDD4FF"/><path d="M549.04 530.98l-540 2.4-.8-165.5 540.1-2.4.7 165.5z" fill="url(#paint118_radial_2464_44055)"/><path d="M549.04 530.98l-540 2.4-.8-165.5 540.1-2.4.7 165.5z" fill="url(#paint119_radial_2464_44055)"/><path d="M549.04 530.98l-540 2.4-.8-165.5 540.1-2.4.7 165.5z" fill="url(#paint120_radial_2464_44055)"/><path d="M549.04 530.98l-540 2.4-.8-165.5 540.1-2.4.7 165.5z" fill="url(#paint121_radial_2464_44055)"/><path d="M549.04 530.98l-540 2.4-.8-165.5 540.1-2.4.7 165.5z" fill="url(#paint122_radial_2464_44055)"/><path d="M549.04 530.98l-540 2.4-.8-165.5 540.1-2.4.7 165.5z" fill="url(#paint123_radial_2464_44055)"/><path d="M46.3 413.35l5.1 8.4 12.8 3.8c.1 1.9-1.4 3.4-3.3 3.3l-2-.2c-1.7-.2-3 1.7-2.2 3.2 1.5 3.1 1.5 10.4 5.1 13.2 2.1 1.6 2.6 3.3 2.2 3.6-.4.2-2.4-1.1-2.6-1-.2.1 2.1 2.3 1.4 2.9-.6.5-3-1.8-3.3-1.7-.3.1 1.4 2 .6 2.3-.8.3-4.1-2.6-4.2-2.6-.2 0 1.2 2 0 2.1-1.1.1-5.9-4.5-6.5-5.7l-1.3-2.6c-.8-1.5-1.4-3.2-1.7-4.9l-1.5-8.1-1.5-3.3s-10.6-17.4-7.5-20.4c2.9-3 10.4 7.7 10.4 7.7z" fill="url(#paint124_linear_2464_44055)"/><path d="M33 315.15c8.5-8.5 22.7.4 18.7 11.7-.1.2-.1.3-.2.5-6.2 16.8-19.9 30.4-11.7 46.9s12.2 44 12.2 44c-3.8 3.1-8.9 4.2-13.7 2.9l-.8-.2s-19.4-39.1-22.5-52.4c-3.1-13.3 12.7-48 12.7-48l5.3-5.4z" fill="url(#paint125_linear_2464_44055)"/><path d="M33 315.15c8.5-8.5 22.7.4 18.7 11.7-.1.2-.1.3-.2.5-6.2 16.8-19.9 30.4-11.7 46.9s12.2 44 12.2 44c-3.8 3.1-8.9 4.2-13.7 2.9l-.8-.2s-19.4-39.1-22.5-52.4c-3.1-13.3 12.7-48 12.7-48l5.3-5.4z" fill="url(#paint126_linear_2464_44055)"/><path d="M522.5 402.65l-5.1 8.4-12.7 4c-.1 1.9 1.5 3.4 3.3 3.2l2-.2c1.7-.2 3 1.6 2.2 3.2-1.5 3.1-1.4 10.4-5 13.2-2.1 1.6-2.6 3.4-2.2 3.6.4.2 2.4-1.1 2.6-1 .2.1-2.1 2.3-1.4 2.9.6.5 2.9-1.8 3.2-1.7.3.1-1.4 2-.5 2.4.9.3 4.1-2.6 4.2-2.6.2 0-1.1 2 0 2.1 1.1.1 5.9-4.5 6.5-5.7l1.3-2.6c.8-1.6 1.3-3.2 1.6-4.9l1.4-8.2 1.5-3.3s10.4-17.5 7.3-20.5c-2.8-3-10.2 7.7-10.2 7.7z" fill="url(#paint127_linear_2464_44055)"/><path d="M534.9 304.35c-8.6-8.5-22.7.6-18.6 11.9.1.2.1.3.2.5 6.4 16.8 20.2 30.2 12.1 46.8-8.1 16.6-11.8 44.1-11.8 44.1 3.9 3.1 9 4.1 13.7 2.7l.8-.2s19-39.2 22.1-52.6c3-13.3-13.2-47.9-13.2-47.9l-5.3-5.3z" fill="url(#paint128_linear_2464_44055)"/><path d="M303.6 363.75c.1 3 2 8.8 2 8.8.1.9 1 1.6 1.8 1.6.8-.1 1.4-.9 1.3-1.8 0 0-.3-7.2-.7-8.9-.7-2.6-4.5-1.9-4.4.3z" fill="url(#paint129_linear_2464_44055)"/><path d="M308.3 362.45c-.2 3 .9 9.7.9 9.7 0 .9.8 1.7 1.6 1.7.9 0 1.5-.8 1.5-1.7 0 0 .6-7.7.6-9.8.1-2.1-4.4-2.1-4.6.1z" fill="url(#paint130_linear_2464_44055)"/><path d="M299.8 364.05c-.3 3.4 2 8.2 3.5 9 .3.2.7.2 1 .2.3-.1.5-.3.7-.6.1-.3.1-.6 0-1-1.1-3.2-1-4.5-1.6-7.7-.3-1.6-3.4-1.4-3.6.1z" fill="url(#paint131_linear_2464_44055)"/><path d="M313.5 362.75c-.7 2.9-.6 9.2-.6 9.2-.1.9.5 1.8 1.3 1.9.8.1 1.6-.6 1.7-1.5 0 0 1.4-7.3 1.5-8.9.2-2.7-3.4-2.8-3.9-.7z" fill="url(#paint132_linear_2464_44055)"/><path d="M259.6 363.95c-.1 3-1.9 8.8-1.9 8.8-.1.9-.9 1.6-1.8 1.6-.8-.1-1.4-.8-1.3-1.8 0 0 .2-7.3.6-8.9.6-2.6 4.5-1.9 4.4.3z" fill="url(#paint133_linear_2464_44055)"/><path d="M254.8 362.75c.2 3-.9 9.7-.9 9.7 0 .9-.7 1.7-1.6 1.7-.9 0-1.5-.7-1.5-1.7 0 0-.7-7.7-.7-9.8 0-2.1 4.6-2.2 4.7.1z" fill="url(#paint134_linear_2464_44055)"/><path d="M263.3 364.25c.3 3.4-1.9 8.3-3.4 9-.3.2-.7.3-1 .2-.3-.1-.5-.3-.7-.6-.1-.3-.1-.6 0-1 1.1-3.2.9-4.5 1.5-7.8.4-1.5 3.5-1.3 3.6.2z" fill="url(#paint135_linear_2464_44055)"/><path d="M249.7 363.05c.7 2.9.7 9.2.7 9.2.1.9-.5 1.8-1.3 1.9-.8.1-1.6-.5-1.7-1.5 0 0-1.5-7.3-1.6-8.9-.2-2.6 3.3-2.8 3.9-.7z" fill="url(#paint136_linear_2464_44055)"/><path d="M369.8 363.65c-.1 3-1.9 8.8-1.9 8.8-.1.9-.9 1.6-1.8 1.6-.8-.1-1.4-.8-1.3-1.8 0 0 .2-7.3.6-8.9.6-2.7 4.5-1.9 4.4.3z" fill="url(#paint137_linear_2464_44055)"/><path d="M365.1 362.35c.2 3-.9 9.7-.9 9.7 0 .9-.7 1.7-1.6 1.7-.9 0-1.5-.7-1.5-1.7 0 0-.7-7.7-.7-9.8 0-2.1 4.5-2.1 4.7.1z" fill="url(#paint138_linear_2464_44055)"/><path d="M373.5 363.85c.3 3.4-1.9 8.3-3.4 9-.3.2-.7.3-1 .2-.3-.1-.5-.3-.7-.6-.1-.3-.1-.6 0-1 1.1-3.2.9-4.5 1.5-7.8.4-1.5 3.5-1.3 3.6.2z" fill="url(#paint139_linear_2464_44055)"/><path d="M359.9 362.75c.7 2.9.7 9.2.7 9.2.1.9-.5 1.8-1.3 1.9-.8.1-1.6-.5-1.7-1.5 0 0-1.5-7.3-1.6-8.9-.2-2.7 3.4-2.8 3.9-.7z" fill="url(#paint140_linear_2464_44055)"/><mask id="a" style="mask-type:alpha" maskUnits="userSpaceOnUse" x="9" y="520" width="541" height="24"><path d="M549.3 530.85c0 6.3-120.8 11.9-270 12.6-149.2.7-270-3.8-270.1-10.1 0-6.3 120.8-11.9 270-12.6 149.2-.6 270.1 3.9 270.1 10.1z" fill="url(#paint141_radial_2464_44055)"/></mask><g mask="url(#a)"><path opacity=".51" d="M549.3 530.85c0 6.3-120.8 11.9-270 12.6-149.2.7-270-3.8-270.1-10.1 0-6.3 120.8-11.9 270-12.6 149.2-.6 270.1 3.9 270.1 10.1z" fill="url(#paint142_radial_2464_44055)"/></g></g><defs><linearGradient id="paint140_linear_2464_44055" x1="358.164" y1="373.18" x2="358.463" y2="361.271" gradientUnits="userSpaceOnUse"><stop stop-color="#FFE8E1"/><stop offset=".838" stop-color="#F6CFBE"/></linearGradient><linearGradient id="paint88_linear_2464_44055" x1="34.544" y1="255.081" x2="23.058" y2="248.914" gradientUnits="userSpaceOnUse"><stop stop-color="#CDA683"/><stop offset=".787" stop-color="#EBD2A2"/></linearGradient><linearGradient id="paint4_linear_2464_44055" x1="133.054" y1="267.816" x2="124.562" y2="264.771" gradientUnits="userSpaceOnUse"><stop stop-color="#BDD4FF"/><stop offset="1" stop-color="#E7EFFF"/></linearGradient><linearGradient id="paint5_linear_2464_44055" x1="141.54" y1="329.705" x2="135.446" y2="326.236" gradientUnits="userSpaceOnUse"><stop stop-color="#77A7FF"/><stop offset="1" stop-color="#BDD4FF"/></linearGradient><linearGradient id="paint6_linear_2464_44055" x1="123.863" y1="294.666" x2="117.138" y2="277.271" gradientUnits="userSpaceOnUse"><stop offset=".001" stop-color="#77A7FF"/><stop offset=".999" stop-color="#BDD4FF"/></linearGradient><linearGradient id="paint7_linear_2464_44055" x1="146.196" y1="246.142" x2="132.589" y2="226.139" gradientUnits="userSpaceOnUse"><stop offset=".001" stop-color="#77A7FF"/><stop offset=".999" stop-color="#BDD4FF"/></linearGradient><linearGradient id="paint8_linear_2464_44055" x1="171.414" y1="315.856" x2="172.158" y2="308.875" gradientUnits="userSpaceOnUse"><stop offset=".001" stop-color="#BDD4FF"/><stop offset=".999" stop-color="#EDF3FF"/></linearGradient><linearGradient id="paint9_linear_2464_44055" x1="173.191" y1="304.768" x2="176.796" y2="282.034" gradientUnits="userSpaceOnUse"><stop stop-color="#BDD4FF"/><stop offset="1" stop-color="#E7EFFF"/></linearGradient><linearGradient id="paint10_linear_2464_44055" x1="209.005" y1="299.261" x2="192.103" y2="292.15" gradientUnits="userSpaceOnUse"><stop stop-color="#77A7FF"/><stop offset="1" stop-color="#BDD4FF"/></linearGradient><linearGradient id="paint11_linear_2464_44055" x1="181.766" y1="318.285" x2="163.028" y2="275.122" gradientUnits="userSpaceOnUse"><stop stop-color="#77A7FF"/><stop offset="1" stop-color="#BDD4FF"/></linearGradient><linearGradient id="paint12_linear_2464_44055" x1="208.316" y1="363.35" x2="194.4" y2="358.739" gradientUnits="userSpaceOnUse"><stop stop-color="#77A7FF"/><stop offset="1" stop-color="#BDD4FF"/></linearGradient><linearGradient id="paint13_linear_2464_44055" x1="166.252" y1="395.916" x2="155.438" y2="332.558" gradientUnits="userSpaceOnUse"><stop stop-color="#BDD4FF"/><stop offset="1" stop-color="#E7EFFF"/></linearGradient><linearGradient id="paint14_linear_2464_44055" x1="168.913" y1="283.505" x2="171.355" y2="276.625" gradientUnits="userSpaceOnUse"><stop stop-color="#4687FF"/><stop offset=".999" stop-color="#77A7FF"/></linearGradient><linearGradient id="paint15_linear_2464_44055" x1="180.225" y1="240.507" x2="210.172" y2="199.022" gradientUnits="userSpaceOnUse"><stop offset=".001" stop-color="#BDD4FF"/><stop offset=".999" stop-color="#EDF3FF"/></linearGradient><linearGradient id="paint16_linear_2464_44055" x1="213.89" y1="225.54" x2="220.859" y2="223.221" gradientUnits="userSpaceOnUse"><stop offset=".001" stop-color="#BDD4FF"/><stop offset=".999" stop-color="#EDF3FF"/></linearGradient><linearGradient id="paint17_linear_2464_44055" x1="199.165" y1="223.048" x2="206.752" y2="216.873" gradientUnits="userSpaceOnUse"><stop offset=".001" stop-color="#BDD4FF"/><stop offset=".999" stop-color="#EDF3FF"/></linearGradient><linearGradient id="paint18_linear_2464_44055" x1="184.387" y1="228.263" x2="184.6" y2="225.607" gradientUnits="userSpaceOnUse"><stop offset=".001" stop-color="#BDD4FF"/><stop offset=".999" stop-color="#EDF3FF"/></linearGradient><linearGradient id="paint19_linear_2464_44055" x1="177.213" y1="250.271" x2="204.784" y2="251.876" gradientUnits="userSpaceOnUse"><stop stop-color="#77A7FF"/><stop offset="1" stop-color="#BDD4FF"/></linearGradient><linearGradient id="paint20_linear_2464_44055" x1="176.353" y1="264.998" x2="203.924" y2="266.604" gradientUnits="userSpaceOnUse"><stop offset=".001" stop-color="#77A7FF"/><stop offset=".999" stop-color="#BDD4FF"/></linearGradient><linearGradient id="paint21_linear_2464_44055" x1="213.166" y1="351.156" x2="211.292" y2="325.823" gradientUnits="userSpaceOnUse"><stop stop-color="#77A7FF"/><stop offset="1" stop-color="#BDD4FF"/></linearGradient><linearGradient id="paint22_linear_2464_44055" x1="201.956" y1="351.986" x2="200.082" y2="326.655" gradientUnits="userSpaceOnUse"><stop offset=".001" stop-color="#77A7FF"/><stop offset=".999" stop-color="#BDD4FF"/></linearGradient><linearGradient id="paint23_linear_2464_44055" x1="231.575" y1="363.69" x2="207.37" y2="372.026" gradientUnits="userSpaceOnUse"><stop offset=".001" stop-color="#BDD4FF"/><stop offset=".999" stop-color="#EDF3FF"/></linearGradient><linearGradient id="paint24_linear_2464_44055" x1="220.217" y1="424.366" x2="214.708" y2="397.932" gradientUnits="userSpaceOnUse"><stop stop-color="#BDD4FF"/><stop offset="1" stop-color="#EDF3FF"/></linearGradient><linearGradient id="paint25_linear_2464_44055" x1="210.225" y1="351.374" x2="208.351" y2="326.042" gradientUnits="userSpaceOnUse"><stop offset=".001" stop-color="#77A7FF"/><stop offset=".999" stop-color="#BDD4FF"/></linearGradient><linearGradient id="paint26_linear_2464_44055" x1="208.595" y1="348.74" x2="200.756" y2="326.871" gradientUnits="userSpaceOnUse"><stop offset=".001" stop-color="#BDD4FF"/><stop offset=".999" stop-color="#EDF3FF"/></linearGradient><linearGradient id="paint27_linear_2464_44055" x1="223.871" y1="382.404" x2="224.154" y2="377.596" gradientUnits="userSpaceOnUse"><stop offset=".001" stop-color="#77A7FF"/><stop offset=".999" stop-color="#BDD4FF"/></linearGradient><linearGradient id="paint28_linear_2464_44055" x1="183.733" y1="438.435" x2="217.251" y2="429.389" gradientUnits="userSpaceOnUse"><stop offset=".001" stop-color="#77A7FF"/><stop offset=".999" stop-color="#BDD4FF"/></linearGradient><linearGradient id="paint29_linear_2464_44055" x1="389.639" y1="372.072" x2="390.276" y2="311" gradientUnits="userSpaceOnUse"><stop stop-color="#77A7FF"/><stop offset="1" stop-color="#BDD4FF"/></linearGradient><linearGradient id="paint32_linear_2464_44055" x1="376.673" y1="363.665" x2="369.21" y2="375.238" gradientUnits="userSpaceOnUse"><stop stop-color="#FFE8E1"/><stop offset=".838" stop-color="#F6CFBE"/></linearGradient><linearGradient id="paint34_linear_2464_44055" x1="348.684" y1="358.596" x2="355.662" y2="337.83" gradientUnits="userSpaceOnUse"><stop stop-color="#FFE8E1"/><stop offset=".838" stop-color="#F6CFBE"/></linearGradient><linearGradient id="paint35_linear_2464_44055" x1="350.225" y1="353.634" x2="348.167" y2="367.703" gradientUnits="userSpaceOnUse"><stop stop-color="#FFE8E1" stop-opacity="0"/><stop offset="1" stop-color="#F6CFBE"/></linearGradient><linearGradient id="paint37_linear_2464_44055" x1="364.836" y1="371.813" x2="365.473" y2="310.741" gradientUnits="userSpaceOnUse"><stop stop-color="#77A7FF"/><stop offset="1" stop-color="#BDD4FF"/></linearGradient><linearGradient id="paint39_linear_2464_44055" x1="439.411" y1="355.828" x2="419.785" y2="356.625" gradientUnits="userSpaceOnUse"><stop stop-color="#FFE8E1"/><stop offset=".838" stop-color="#F6CFBE"/></linearGradient><linearGradient id="paint40_linear_2464_44055" x1="414.79" y1="372.334" x2="415.427" y2="311.262" gradientUnits="userSpaceOnUse"><stop stop-color="#77A7FF"/><stop offset="1" stop-color="#BDD4FF"/></linearGradient><linearGradient id="paint41_linear_2464_44055" x1="421.573" y1="314.009" x2="451.445" y2="349.594" gradientUnits="userSpaceOnUse"><stop stop-color="#FFE8E1"/><stop offset=".838" stop-color="#F6CFBE"/></linearGradient><linearGradient id="paint42_linear_2464_44055" x1="437.229" y1="264.702" x2="436.856" y2="266.128" gradientUnits="userSpaceOnUse"><stop stop-color="#BDD4FF"/><stop offset="1" stop-color="#E7EFFF"/></linearGradient><linearGradient id="paint43_linear_2464_44055" x1="437.774" y1="256.312" x2="443.693" y2="235.948" gradientUnits="userSpaceOnUse"><stop stop-color="#77A7FF"/><stop offset="1" stop-color="#BDD4FF"/></linearGradient><linearGradient id="paint44_linear_2464_44055" x1="433.838" y1="241.687" x2="445.945" y2="221.118" gradientUnits="userSpaceOnUse"><stop stop-color="#77A7FF"/><stop offset="1" stop-color="#BDD4FF"/></linearGradient><linearGradient id="paint45_linear_2464_44055" x1="440.544" y1="263.865" x2="435.88" y2="256.303" gradientUnits="userSpaceOnUse"><stop stop-color="#BDD4FF"/><stop offset="1" stop-color="#E7EFFF"/></linearGradient><linearGradient id="paint46_linear_2464_44055" x1="438.569" y1="258.44" x2="439.86" y2="252.595" gradientUnits="userSpaceOnUse"><stop stop-color="#BDD4FF"/><stop offset="1" stop-color="#E7EFFF"/></linearGradient><linearGradient id="paint47_linear_2464_44055" x1="437.223" y1="265.956" x2="438.403" y2="259.185" gradientUnits="userSpaceOnUse"><stop stop-color="#BDD4FF"/><stop offset="1" stop-color="#E7EFFF"/></linearGradient><linearGradient id="paint48_linear_2464_44055" x1="438.568" y1="261.655" x2="438.856" y2="254.639" gradientUnits="userSpaceOnUse"><stop stop-color="#BDD4FF"/><stop offset="1" stop-color="#E7EFFF"/></linearGradient><linearGradient id="paint49_linear_2464_44055" x1="438.043" y1="294.665" x2="436.668" y2="303.395" gradientUnits="userSpaceOnUse"><stop stop-color="#FFE8E1"/><stop offset=".838" stop-color="#F6CFBE"/></linearGradient><linearGradient id="paint50_linear_2464_44055" x1="433.989" y1="302.365" x2="429.02" y2="279.221" gradientUnits="userSpaceOnUse"><stop stop-color="#FFE8E1"/><stop offset=".838" stop-color="#F6CFBE"/></linearGradient><linearGradient id="paint51_linear_2464_44055" x1="398.63" y1="387.406" x2="425.688" y2="381.812" gradientUnits="userSpaceOnUse"><stop stop-color="#BF8E80"/><stop offset="1" stop-color="#855D5D"/></linearGradient><linearGradient id="paint52_linear_2464_44055" x1="477.695" y1="371.598" x2="447.812" y2="333.891" gradientUnits="userSpaceOnUse"><stop stop-color="#F86E80"/><stop offset=".999" stop-color="#FFD4D8"/></linearGradient><linearGradient id="paint53_linear_2464_44055" x1="137.465" y1="218.795" x2="119.917" y2="261.494" gradientUnits="userSpaceOnUse"><stop stop-color="#BF8E80"/><stop offset="1" stop-color="#855D5D"/></linearGradient><linearGradient id="paint54_linear_2464_44055" x1="140.352" y1="219.668" x2="122.319" y2="263.55" gradientUnits="userSpaceOnUse"><stop stop-color="#BF8E80"/><stop offset="1" stop-color="#855D5D"/></linearGradient><linearGradient id="paint55_linear_2464_44055" x1="134.498" y1="217.259" x2="116.464" y2="261.142" gradientUnits="userSpaceOnUse"><stop stop-color="#BF8E80"/><stop offset="1" stop-color="#855D5D"/></linearGradient><linearGradient id="paint56_linear_2464_44055" x1="137.464" y1="218.511" x2="119.43" y2="262.394" gradientUnits="userSpaceOnUse"><stop stop-color="#BF8E80"/><stop offset="1" stop-color="#855D5D"/></linearGradient><linearGradient id="paint57_linear_2464_44055" x1="132.187" y1="216.224" x2="114.021" y2="260.428" gradientUnits="userSpaceOnUse"><stop stop-color="#BF8E80"/><stop offset="1" stop-color="#855D5D"/></linearGradient><linearGradient id="paint58_linear_2464_44055" x1="143.977" y1="221.471" x2="126.43" y2="264.17" gradientUnits="userSpaceOnUse"><stop stop-color="#BF8E80"/><stop offset="1" stop-color="#855D5D"/></linearGradient><linearGradient id="paint59_linear_2464_44055" x1="94.976" y1="352.157" x2="100.742" y2="298.371" gradientUnits="userSpaceOnUse"><stop stop-color="#77A7FF"/><stop offset="1" stop-color="#BDD4FF"/></linearGradient><linearGradient id="paint60_linear_2464_44055" x1="91.291" y1="267.989" x2="99.117" y2="277.856" gradientUnits="userSpaceOnUse"><stop stop-color="#BDD4FF"/><stop offset="1" stop-color="#E7EFFF" stop-opacity="0"/></linearGradient><linearGradient id="paint62_linear_2464_44055" x1="278.557" y1="426.138" x2="276.977" y2="340.814" gradientUnits="userSpaceOnUse"><stop stop-color="#F86E80"/><stop offset=".999" stop-color="#FFD4D8"/></linearGradient><linearGradient id="paint66_linear_2464_44055" x1="230.523" y1="351.493" x2="257.328" y2="354.465" gradientUnits="userSpaceOnUse"><stop stop-color="#BF8E80"/><stop offset="1" stop-color="#855D5D"/></linearGradient><linearGradient id="paint68_linear_2464_44055" x1="255.213" y1="426.561" x2="253.633" y2="341.243" gradientUnits="userSpaceOnUse"><stop stop-color="#F86E80"/><stop offset=".999" stop-color="#FFD4D8"/></linearGradient><linearGradient id="paint3_linear_2464_44055" x1="140.473" y1="295.559" x2="123.045" y2="302.692" gradientUnits="userSpaceOnUse"><stop stop-color="#BDD4FF"/><stop offset="1" stop-color="#E7EFFF"/></linearGradient><linearGradient id="paint71_linear_2464_44055" x1="305.107" y1="425.641" x2="303.527" y2="340.32" gradientUnits="userSpaceOnUse"><stop stop-color="#F86E80"/><stop offset=".999" stop-color="#FFD4D8"/></linearGradient><linearGradient id="paint73_linear_2464_44055" x1="277.373" y1="301.537" x2="277.423" y2="286.624" gradientUnits="userSpaceOnUse"><stop stop-color="#BF8E80"/><stop offset="1" stop-color="#855D5D"/></linearGradient><linearGradient id="paint74_linear_2464_44055" x1="277.785" y1="223.288" x2="276.449" y2="336.965" gradientUnits="userSpaceOnUse"><stop stop-color="#855D53"/><stop offset="1" stop-color="#533C3F"/></linearGradient><linearGradient id="paint75_linear_2464_44055" x1="277.25" y1="272.771" x2="277.106" y2="241.412" gradientUnits="userSpaceOnUse"><stop stop-color="#BF8E80"/><stop offset="1" stop-color="#855D5D"/></linearGradient><linearGradient id="paint76_linear_2464_44055" x1="275.979" y1="266.293" x2="277.542" y2="236.609" gradientUnits="userSpaceOnUse"><stop stop-color="#0E1B33"/><stop offset=".239" stop-color="#1C2538"/><stop offset=".698" stop-color="#313441"/><stop offset=".998" stop-color="#393944"/></linearGradient><linearGradient id="paint77_linear_2464_44055" x1="275.836" y1="229.462" x2="276.874" y2="245.141" gradientUnits="userSpaceOnUse"><stop stop-color="#233B67"/><stop offset="1" stop-color="#0E1B33"/></linearGradient><linearGradient id="paint78_linear_2464_44055" x1="257.337" y1="275.963" x2="258.199" y2="275.734" gradientUnits="userSpaceOnUse"><stop stop-color="#BDD4FF"/><stop offset="1" stop-color="#E7EFFF"/></linearGradient><linearGradient id="paint79_linear_2464_44055" x1="253.722" y1="270.973" x2="256.745" y2="272.427" gradientUnits="userSpaceOnUse"><stop stop-color="#BDD4FF"/><stop offset="1" stop-color="#E7EFFF"/></linearGradient><linearGradient id="paint80_linear_2464_44055" x1="297.313" y1="275.782" x2="296.248" y2="275.534" gradientUnits="userSpaceOnUse"><stop stop-color="#BDD4FF"/><stop offset="1" stop-color="#E7EFFF"/></linearGradient><linearGradient id="paint81_linear_2464_44055" x1="299.363" y1="270.577" x2="297.911" y2="272.513" gradientUnits="userSpaceOnUse"><stop stop-color="#BDD4FF"/><stop offset="1" stop-color="#E7EFFF"/></linearGradient><linearGradient id="paint82_linear_2464_44055" x1="286.656" y1="284.177" x2="286.803" y2="266.695" gradientUnits="userSpaceOnUse"><stop stop-color="#305EB2"/><stop offset="1" stop-color="#233B67"/></linearGradient><linearGradient id="paint83_linear_2464_44055" x1="267.813" y1="284.019" x2="267.96" y2="266.537" gradientUnits="userSpaceOnUse"><stop stop-color="#305EB2"/><stop offset="1" stop-color="#233B67"/></linearGradient><linearGradient id="paint86_linear_2464_44055" x1="252.295" y1="353.348" x2="252.302" y2="354.88" gradientUnits="userSpaceOnUse"><stop stop-color="#BF8E80"/><stop offset="1" stop-color="#855D5D"/></linearGradient><linearGradient id="paint87_linear_2464_44055" x1="302.144" y1="361.671" x2="303.1" y2="364.437" gradientUnits="userSpaceOnUse"><stop stop-color="#BF8E80"/><stop offset="1" stop-color="#855D5D"/></linearGradient><linearGradient id="paint70_linear_2464_44055" x1="330.879" y1="350.101" x2="296.005" y2="361.49" gradientUnits="userSpaceOnUse"><stop stop-color="#BF8E80"/><stop offset="1" stop-color="#855D5D"/></linearGradient><linearGradient id="paint89_linear_2464_44055" x1="41.903" y1="410.321" x2="86.891" y2="348.575" gradientUnits="userSpaceOnUse"><stop stop-color="#77A7FF"/><stop offset="1" stop-color="#BDD4FF"/></linearGradient><linearGradient id="paint93_linear_2464_44055" x1="56.515" y1="309.389" x2="56.326" y2="286.104" gradientUnits="userSpaceOnUse"><stop stop-color="#BF8E80"/><stop offset="1" stop-color="#855D5D"/></linearGradient><linearGradient id="paint94_linear_2464_44055" x1="68.991" y1="276.016" x2="27.568" y2="258.622" gradientUnits="userSpaceOnUse"><stop stop-color="#BF8E80"/><stop offset="1" stop-color="#855D5D"/></linearGradient><linearGradient id="paint95_linear_2464_44055" x1="52.553" y1="270.518" x2="36.554" y2="243.853" gradientUnits="userSpaceOnUse"><stop stop-color="#CDA683"/><stop offset=".787" stop-color="#EBD2A2"/></linearGradient><linearGradient id="paint96_linear_2464_44055" x1="547.423" y1="432.777" x2="451.955" y2="283.961" gradientUnits="userSpaceOnUse"><stop stop-color="#F86E80"/><stop offset=".999" stop-color="#FFD4D8"/></linearGradient><linearGradient id="paint99_linear_2464_44055" x1="118.698" y1="431.304" x2="119.323" y2="426.688" gradientUnits="userSpaceOnUse"><stop offset=".001" stop-color="#77A7FF"/><stop offset=".999" stop-color="#BDD4FF"/></linearGradient><linearGradient id="paint100_linear_2464_44055" x1="128.251" y1="426.307" x2="138.885" y2="426.87" gradientUnits="userSpaceOnUse"><stop offset=".001" stop-color="#77A7FF"/><stop offset=".999" stop-color="#BDD4FF"/></linearGradient><linearGradient id="paint101_linear_2464_44055" x1="108.101" y1="429.87" x2="108.725" y2="425.254" gradientUnits="userSpaceOnUse"><stop offset=".001" stop-color="#77A7FF"/><stop offset=".999" stop-color="#BDD4FF"/></linearGradient><linearGradient id="paint102_linear_2464_44055" x1="129.464" y1="403.436" x2="140.098" y2="404" gradientUnits="userSpaceOnUse"><stop offset=".001" stop-color="#77A7FF"/><stop offset=".999" stop-color="#BDD4FF"/></linearGradient><linearGradient id="paint103_linear_2464_44055" x1="137.255" y1="418.568" x2="112.691" y2="396.558" gradientUnits="userSpaceOnUse"><stop stop-color="#BDD4FF"/><stop offset="1" stop-color="#EDF3FF"/></linearGradient><linearGradient id="paint104_linear_2464_44055" x1="118.222" y1="407.453" x2="122.911" y2="373.99" gradientUnits="userSpaceOnUse"><stop offset=".001" stop-color="#77A7FF"/><stop offset=".999" stop-color="#BDD4FF"/></linearGradient><linearGradient id="paint105_linear_2464_44055" x1="146.25" y1="438.417" x2="147.455" y2="429.509" gradientUnits="userSpaceOnUse"><stop offset=".001" stop-color="#77A7FF"/><stop offset=".999" stop-color="#BDD4FF"/></linearGradient><linearGradient id="paint106_linear_2464_44055" x1="154.124" y1="429.267" x2="163.131" y2="431.36" gradientUnits="userSpaceOnUse"><stop offset=".001" stop-color="#77A7FF"/><stop offset=".999" stop-color="#BDD4FF"/></linearGradient><linearGradient id="paint107_linear_2464_44055" x1="135.653" y1="436.984" x2="136.858" y2="428.076" gradientUnits="userSpaceOnUse"><stop offset=".001" stop-color="#77A7FF"/><stop offset=".999" stop-color="#BDD4FF"/></linearGradient><linearGradient id="paint108_linear_2464_44055" x1="159.025" y1="408.169" x2="168.032" y2="410.261" gradientUnits="userSpaceOnUse"><stop offset=".001" stop-color="#77A7FF"/><stop offset=".999" stop-color="#BDD4FF"/></linearGradient><linearGradient id="paint109_linear_2464_44055" x1="160.211" y1="421.894" x2="147.947" y2="407.122" gradientUnits="userSpaceOnUse"><stop stop-color="#BDD4FF"/><stop offset="1" stop-color="#EDF3FF"/></linearGradient><linearGradient id="paint110_linear_2464_44055" x1="146.239" y1="408.393" x2="153.004" y2="366.851" gradientUnits="userSpaceOnUse"><stop offset=".001" stop-color="#77A7FF"/><stop offset=".999" stop-color="#BDD4FF"/></linearGradient><linearGradient id="paint111_linear_2464_44055" x1="514.067" y1="293.416" x2="507.581" y2="267.273" gradientUnits="userSpaceOnUse"><stop offset=".006" stop-color="#F6CFBE"/><stop offset="1" stop-color="#BF8E80"/></linearGradient><linearGradient id="paint112_linear_2464_44055" x1="385.872" y1="229.772" x2="386.114" y2="292.863" gradientUnits="userSpaceOnUse"><stop stop-color="#233B67"/><stop offset="1" stop-color="#0E1B33"/></linearGradient><linearGradient id="paint113_linear_2464_44055" x1="387.473" y1="309.641" x2="394.764" y2="279.78" gradientUnits="userSpaceOnUse"><stop stop-color="#FFE8E1"/><stop offset=".838" stop-color="#F6CFBE"/></linearGradient><linearGradient id="paint114_linear_2464_44055" x1="396.265" y1="288.07" x2="386.378" y2="252.924" gradientUnits="userSpaceOnUse"><stop stop-color="#FFE8E1"/><stop offset=".838" stop-color="#F6CFBE"/></linearGradient><linearGradient id="paint115_linear_2464_44055" x1="378.496" y1="229.8" x2="378.738" y2="292.891" gradientUnits="userSpaceOnUse"><stop stop-color="#233B67"/><stop offset="1" stop-color="#0E1B33"/></linearGradient><linearGradient id="paint116_linear_2464_44055" x1="504.755" y1="281.67" x2="520.961" y2="229.251" gradientUnits="userSpaceOnUse"><stop offset=".006" stop-color="#F6CFBE"/><stop offset="1" stop-color="#BF8E80"/></linearGradient><linearGradient id="paint117_linear_2464_44055" x1="489.577" y1="244.902" x2="538.453" y2="244.678" gradientUnits="userSpaceOnUse"><stop stop-color="#EBD2A2"/><stop offset="1" stop-color="#CDA683"/></linearGradient><linearGradient id="paint124_linear_2464_44055" x1="57.886" y1="436.761" x2="41.583" y2="414.452" gradientUnits="userSpaceOnUse"><stop stop-color="#BF8E80"/><stop offset="1" stop-color="#855D5D"/></linearGradient><linearGradient id="paint125_linear_2464_44055" x1="21.087" y1="395.154" x2="66.076" y2="333.407" gradientUnits="userSpaceOnUse"><stop stop-color="#77A7FF"/><stop offset="1" stop-color="#BDD4FF"/></linearGradient><linearGradient id="paint126_linear_2464_44055" x1="4.787" y1="381.577" x2="32.324" y2="370.605" gradientUnits="userSpaceOnUse"><stop stop-color="#BDD4FF"/><stop offset="1" stop-color="#E7EFFF" stop-opacity="0"/></linearGradient><linearGradient id="paint127_linear_2464_44055" x1="507.303" y1="419.407" x2="547.243" y2="413.742" gradientUnits="userSpaceOnUse"><stop offset=".006" stop-color="#F6CFBE"/><stop offset="1" stop-color="#BF8E80"/></linearGradient><linearGradient id="paint128_linear_2464_44055" x1="567.707" y1="419.765" x2="472.239" y2="270.95" gradientUnits="userSpaceOnUse"><stop stop-color="#F86E80"/><stop offset=".999" stop-color="#FFD4D8"/></linearGradient><linearGradient id="paint129_linear_2464_44055" x1="306.403" y1="373.073" x2="305.689" y2="358.811" gradientUnits="userSpaceOnUse"><stop stop-color="#BF8E80"/><stop offset="1" stop-color="#855D5D"/></linearGradient><linearGradient id="paint130_linear_2464_44055" x1="311.082" y1="372.839" x2="310.368" y2="358.577" gradientUnits="userSpaceOnUse"><stop stop-color="#BF8E80"/><stop offset="1" stop-color="#855D5D"/></linearGradient><linearGradient id="paint131_linear_2464_44055" x1="302.661" y1="373.26" x2="301.948" y2="358.998" gradientUnits="userSpaceOnUse"><stop stop-color="#BF8E80"/><stop offset="1" stop-color="#855D5D"/></linearGradient><linearGradient id="paint132_linear_2464_44055" x1="315.398" y1="372.623" x2="314.684" y2="358.361" gradientUnits="userSpaceOnUse"><stop stop-color="#BF8E80"/><stop offset="1" stop-color="#855D5D"/></linearGradient><linearGradient id="paint133_linear_2464_44055" x1="257.049" y1="374.312" x2="257.161" y2="360.047" gradientUnits="userSpaceOnUse"><stop stop-color="#BF8E80"/><stop offset="1" stop-color="#855D5D"/></linearGradient><linearGradient id="paint134_linear_2464_44055" x1="252.377" y1="374.275" x2="252.489" y2="360.01" gradientUnits="userSpaceOnUse"><stop stop-color="#BF8E80"/><stop offset="1" stop-color="#855D5D"/></linearGradient><linearGradient id="paint135_linear_2464_44055" x1="260.682" y1="374.341" x2="260.793" y2="360.076" gradientUnits="userSpaceOnUse"><stop stop-color="#BF8E80"/><stop offset="1" stop-color="#855D5D"/></linearGradient><linearGradient id="paint136_linear_2464_44055" x1="248.053" y1="374.243" x2="248.165" y2="359.977" gradientUnits="userSpaceOnUse"><stop stop-color="#BF8E80"/><stop offset="1" stop-color="#855D5D"/></linearGradient><linearGradient id="paint137_linear_2464_44055" x1="367.16" y1="373.406" x2="367.459" y2="361.498" gradientUnits="userSpaceOnUse"><stop stop-color="#FFE8E1"/><stop offset=".838" stop-color="#F6CFBE"/></linearGradient><linearGradient id="paint138_linear_2464_44055" x1="362.497" y1="373.289" x2="362.796" y2="361.38" gradientUnits="userSpaceOnUse"><stop stop-color="#FFE8E1"/><stop offset=".838" stop-color="#F6CFBE"/></linearGradient><linearGradient id="paint139_linear_2464_44055" x1="370.795" y1="373.497" x2="371.094" y2="361.589" gradientUnits="userSpaceOnUse"><stop stop-color="#FFE8E1"/><stop offset=".838" stop-color="#F6CFBE"/></linearGradient><radialGradient id="paint2_radial_2464_44055" cx="0" cy="0" r="1" gradientUnits="userSpaceOnUse" gradientTransform="translate(64.446 92.193) scale(80.2375)"><stop stop-color="#E6EEFF"/><stop offset=".362" stop-color="#E3ECFF"/><stop offset=".626" stop-color="#DAE6FF"/><stop offset=".858" stop-color="#CADCFF"/><stop offset="1" stop-color="#BCD3FF"/></radialGradient><radialGradient id="paint0_radial_2464_44055" cx="0" cy="0" r="1" gradientUnits="userSpaceOnUse" gradientTransform="matrix(67.1169 0 0 67.1502 512.309 115.034)"><stop stop-color="#E6EEFF"/><stop offset=".362" stop-color="#E3ECFF"/><stop offset=".626" stop-color="#DAE6FF"/><stop offset=".858" stop-color="#CADCFF"/><stop offset="1" stop-color="#BCD3FF"/></radialGradient><radialGradient id="paint61_radial_2464_44055" cx="0" cy="0" r="1" gradientUnits="userSpaceOnUse" gradientTransform="rotate(-.262 68578.275 -61836.292) scale(9.9153)"><stop stop-color="#F86E80" stop-opacity=".6"/><stop offset=".999" stop-color="#FFD4D8" stop-opacity="0"/></radialGradient><radialGradient id="paint33_radial_2464_44055" cx="0" cy="0" r="1" gradientUnits="userSpaceOnUse" gradientTransform="rotate(-.263 65997.131 -73859.686) scale(40.5296)"><stop stop-color="#F86E80" stop-opacity=".6"/><stop offset=".999" stop-color="#FFD4D8" stop-opacity="0"/></radialGradient><radialGradient id="paint63_radial_2464_44055" cx="0" cy="0" r="1" gradientUnits="userSpaceOnUse" gradientTransform="matrix(59.17814 -.8606 .24487 16.83792 279.757 374.394)"><stop stop-color="#F86E80"/><stop offset=".999" stop-color="#FFD4D8" stop-opacity="0"/></radialGradient><radialGradient id="paint118_radial_2464_44055" cx="0" cy="0" r="1" gradientUnits="userSpaceOnUse" gradientTransform="matrix(19.40737 67.10652 -12.65856 3.66089 44.344 372.352)"><stop stop-color="#4687FF" stop-opacity=".3"/><stop offset=".999" stop-color="#77A7FF" stop-opacity="0"/></radialGradient><radialGradient id="paint119_radial_2464_44055" cx="0" cy="0" r="1" gradientUnits="userSpaceOnUse" gradientTransform="rotate(-.262 84426.808 -116135.567) scale(59.0994)"><stop stop-color="#4687FF" stop-opacity=".3"/><stop offset=".999" stop-color="#77A7FF" stop-opacity="0"/></radialGradient><radialGradient id="paint120_radial_2464_44055" cx="0" cy="0" r="1" gradientUnits="userSpaceOnUse" gradientTransform="rotate(-.262 79983.866 -115110.396) scale(68.6132)"><stop stop-color="#4687FF" stop-opacity=".3"/><stop offset=".999" stop-color="#77A7FF" stop-opacity="0"/></radialGradient><radialGradient id="paint121_radial_2464_44055" cx="0" cy="0" r="1" gradientUnits="userSpaceOnUse" gradientTransform="matrix(87.94658 -.4029 .01908 4.1648 282.666 367.977)"><stop stop-color="#4687FF" stop-opacity=".3"/><stop offset=".999" stop-color="#77A7FF" stop-opacity="0"/></radialGradient><radialGradient id="paint122_radial_2464_44055" cx="0" cy="0" r="1" gradientUnits="userSpaceOnUse" gradientTransform="matrix(141.84451 -.6498 .0232 5.066 131.316 369.154)"><stop stop-color="#fff" stop-opacity=".7"/><stop offset=".999" stop-color="#fff" stop-opacity="0"/></radialGradient><radialGradient id="paint123_radial_2464_44055" cx="0" cy="0" r="1" gradientUnits="userSpaceOnUse" gradientTransform="rotate(-.262 99785.19 -129913.675) scale(120.595)"><stop stop-color="#fff" stop-opacity=".7"/><stop offset=".999" stop-color="#fff" stop-opacity="0"/></radialGradient><radialGradient id="paint97_radial_2464_44055" cx="0" cy="0" r="1" gradientUnits="userSpaceOnUse" gradientTransform="rotate(-.262 76548.317 -117436.053) scale(37.617)"><stop stop-color="#F86E80"/><stop offset="1" stop-color="#F86E80" stop-opacity="0"/></radialGradient><radialGradient id="paint98_radial_2464_44055" cx="0" cy="0" r="1" gradientUnits="userSpaceOnUse" gradientTransform="rotate(-.262 82632.778 -109050.846) scale(49.7527)"><stop stop-color="#F86E80"/><stop offset="1" stop-color="#F86E80" stop-opacity="0"/></radialGradient><radialGradient id="paint64_radial_2464_44055" cx="0" cy="0" r="1" gradientUnits="userSpaceOnUse" gradientTransform="rotate(-.262 80757.31 -73014.96) scale(59.7726)"><stop stop-color="#F86E80"/><stop offset=".999" stop-color="#FFD4D8" stop-opacity="0"/></radialGradient><radialGradient id="paint65_radial_2464_44055" cx="0" cy="0" r="1" gradientUnits="userSpaceOnUse" gradientTransform="rotate(-.263 65426.514 -49425.395) scale(40.5296)"><stop stop-color="#F86E80" stop-opacity=".6"/><stop offset=".999" stop-color="#FFD4D8" stop-opacity="0"/></radialGradient><radialGradient id="paint72_radial_2464_44055" cx="0" cy="0" r="1" gradientUnits="userSpaceOnUse" gradientTransform="rotate(-.263 64480.519 -71043.618) scale(39.5457)"><stop stop-color="#F86E80"/><stop offset=".999" stop-color="#FFD4D8" stop-opacity="0"/></radialGradient><radialGradient id="paint67_radial_2464_44055" cx="0" cy="0" r="1" gradientUnits="userSpaceOnUse" gradientTransform="rotate(-.263 68235.928 -73086.396) scale(44.2407)"><stop stop-color="#F86E80" stop-opacity=".6"/><stop offset=".999" stop-color="#FFD4D8" stop-opacity="0"/></radialGradient><radialGradient id="paint30_radial_2464_44055" cx="0" cy="0" r="1" gradientUnits="userSpaceOnUse" gradientTransform="rotate(-.263 79673.872 -78499.642) scale(23.8967)"><stop stop-color="#4687FF"/><stop offset=".999" stop-color="#77A7FF" stop-opacity="0"/></radialGradient><radialGradient id="paint69_radial_2464_44055" cx="0" cy="0" r="1" gradientUnits="userSpaceOnUse" gradientTransform="rotate(-.262 64970.314 -48067.815) scale(45.2571)"><stop stop-color="#F86E80"/><stop offset=".999" stop-color="#FFD4D8" stop-opacity="0"/></radialGradient><radialGradient id="paint84_radial_2464_44055" cx="0" cy="0" r="1" gradientUnits="userSpaceOnUse" gradientTransform="rotate(-.263 62067.672 -60969.097) scale(17.1802)"><stop stop-color="#555476" stop-opacity=".3"/><stop offset="1" stop-color="#F8F8F8" stop-opacity="0"/></radialGradient><radialGradient id="paint85_radial_2464_44055" cx="0" cy="0" r="1" gradientUnits="userSpaceOnUse" gradientTransform="matrix(17.24812 -.07917 .07917 17.24802 279.31 284.352)"><stop stop-color="#555476" stop-opacity=".3"/><stop offset="1" stop-color="#F8F8F8" stop-opacity="0"/></radialGradient><radialGradient id="paint36_radial_2464_44055" cx="0" cy="0" r="1" gradientUnits="userSpaceOnUse" gradientTransform="rotate(-.263 68806.339 -97521.808) scale(44.2407)"><stop stop-color="#F86E80" stop-opacity=".6"/><stop offset=".999" stop-color="#FFD4D8" stop-opacity="0"/></radialGradient><radialGradient id="paint31_radial_2464_44055" cx="0" cy="0" r="1" gradientUnits="userSpaceOnUse" gradientTransform="rotate(-.262 76410.102 -73708.79) scale(34.7144)"><stop stop-color="#4687FF"/><stop offset=".999" stop-color="#77A7FF" stop-opacity="0"/></radialGradient><radialGradient id="paint1_radial_2464_44055" cx="0" cy="0" r="1" gradientUnits="userSpaceOnUse" gradientTransform="translate(334.491 18.55) scale(46.9698)"><stop stop-color="#E6EEFF"/><stop offset=".362" stop-color="#E3ECFF"/><stop offset=".626" stop-color="#DAE6FF"/><stop offset=".858" stop-color="#CADCFF"/><stop offset="1" stop-color="#BCD3FF"/></radialGradient><radialGradient id="paint38_radial_2464_44055" cx="0" cy="0" r="1" gradientUnits="userSpaceOnUse" gradientTransform="rotate(-53.695 482.894 -185.525) scale(31.266 20.0413)"><stop stop-color="#BDD4FF"/><stop offset="1" stop-color="#E7EFFF" stop-opacity="0"/></radialGradient><radialGradient id="paint90_radial_2464_44055" cx="0" cy="0" r="1" gradientUnits="userSpaceOnUse" gradientTransform="matrix(58.35989 -.26732 .05036 10.99498 61.85 374.755)"><stop stop-color="#4687FF"/><stop offset=".999" stop-color="#77A7FF" stop-opacity="0"/></radialGradient><radialGradient id="paint91_radial_2464_44055" cx="0" cy="0" r="1" gradientUnits="userSpaceOnUse" gradientTransform="rotate(-.262 81434.625 -4968.784) scale(39.2537)"><stop stop-color="#4687FF"/><stop offset=".999" stop-color="#77A7FF" stop-opacity="0"/></radialGradient><radialGradient id="paint92_radial_2464_44055" cx="0" cy="0" r="1" gradientUnits="userSpaceOnUse" gradientTransform="matrix(19.43496 -3.56709 3.4381 18.7322 36.818 273.008)"><stop stop-color="#E8E8E9"/><stop offset="1" stop-color="#D0D1D3"/></radialGradient><radialGradient id="paint141_radial_2464_44055" cx="0" cy="0" r="1" gradientUnits="userSpaceOnUse" gradientTransform="matrix(270.07018 -1.23498 .05176 11.31928 278.749 530.49)"><stop stop-color="#fff"/><stop offset=".003" stop-color="#FDFDFD"/><stop offset=".123" stop-color="#C3C3C3"/><stop offset=".247" stop-color="#8F8F8F"/><stop offset=".37" stop-color="#636363"/><stop offset=".494" stop-color="#3F3F3F"/><stop offset=".618" stop-color="#242424"/><stop offset=".742" stop-color="#101010"/><stop offset=".867" stop-color="#040404"/><stop offset=".995"/></radialGradient><radialGradient id="paint142_radial_2464_44055" cx="0" cy="0" r="1" gradientUnits="userSpaceOnUse" gradientTransform="matrix(270.07018 -1.23498 .05176 11.31928 278.749 530.49)"><stop stop-color="#4D4C6A" stop-opacity=".3"/><stop offset=".088" stop-color="#575673" stop-opacity=".266"/><stop offset=".24" stop-color="#73728A" stop-opacity=".208"/><stop offset=".438" stop-color="#A0A0B0" stop-opacity=".133"/><stop offset=".671" stop-color="#DEDEE4" stop-opacity=".043"/><stop offset=".784" stop-color="#fff" stop-opacity="0"/></radialGradient><clipPath id="clip0_2464_44055"><path fill="#fff" d="M0 0h555v555H0z"/></clipPath></defs></svg>