<svg width="555" height="555" viewBox="0 0 555 555" fill="none" xmlns="http://www.w3.org/2000/svg"><path d="M277.5 552.7c151.99 0 275.2-123.21 275.2-275.2S429.49 2.3 277.5 2.3 2.3 125.51 2.3 277.5s123.21 275.2 275.2 275.2z" fill="url(#paint0_linear_2463_40753)"/><path d="M277.5 529.6c139.23 0 252.1-112.87 252.1-252.1S416.73 25.4 277.5 25.4 25.4 138.27 25.4 277.5s112.87 252.1 252.1 252.1z" fill="url(#paint1_linear_2463_40753)"/><path opacity=".87" d="M441.3 191.3c-4.1-1.8-5.7-6.4-10.8-7.4-3.7-.7-7.5 1.9-9.5 3.5 1.1-1.5 1.9-4.2-2.2-8.3-6.3-6.3-10.5-5.3-13.4-4-5.1 2.3-7.8 9.7-7.8 9.7s-3.5-3.5-5.9-3.4c-2.5 0-6.1 3.3-6.1 3.3-4.6-1.1-7.7-.7-9.8.3-1.3 6.5-6.4 12.3-11 16.6 5.1-.3 12.7-2.4 12.7-2.4s8.8 2.1 14 2.8c15.6 2.2 23.4-5.3 31.4-1.7 12.1 5.5 16.9-1 33.9-1.8 4.1 0-6.9-3.2-15.5-7.2z" fill="#fff"/><path opacity=".47" d="M403.8 176.1c-5.1 3.9-5.7 7.3-5.7 7.3-2-1-4.2-1.7-6.4-2-4.3-.5-5.6 2.8-5.6 2.8s-3-1.4-8.5-.3c-.6.1-1.2.3-1.8.6-.6 2.9-1.7 5.8-3.4 8.2l1.1.4c1.9-2.4 4-4.5 6.3-6.5 3.5-2.9 7.6.5 7.6.5 1.8-1.5 4-2.5 6.3-2.7 2.2-.3 4.4.5 5.9 2.1 0 0 .6-3.2 4.5-7.6 3.9-4.4 11.1-2.9 11.1-2.9s-5.5-4.4-11.4.1zm17.3 11.3s3.1-2 6.1-1.9c3 0 7.1.2 7.1.2-1.7-1.6-4.1-2.3-6.4-1.7-5.1.8-6.8 3.4-6.8 3.4z" fill="#fff"/><path opacity=".86" d="M113.8 145h11.3l7.9-1.1-7.2-1.9s-3.3-3.5-5.3-3.4c-2.7.2-5.2 4.8-8.6 3.6-3.4-1.1-9.6 2.8-9.6 2.8h11.5z" fill="#fff"/><path opacity=".84" d="M218.1 139.1c-4.3-2.5-4.4-1.9-6.1-2.5-1.4-.5-1.6-1.4-2.2-2.6 0 0-1.8-6.1-8.9-5.6-2.2.1-4.3 1-6 2.5-.5.3-.8.5-.8.5s.2-3.8-3.7-6.3c-8.7-5.6-14.8-1.8-17.3-.3-8 4.8-10.2 9.9-10.2 9.9s-4.3-2.5-8.4-1.6c-4 .9-7.3 9.6-7.3 9.6-.2 0-.5-.1-.7-.1-1.8-.3-7.8.2-7.3 3.4.1 1 1.3 1.9 2.7 2.3 6.1 1.4 8.9-1.2 12.1-.6 1.3.3 3.2.5 3.2.5.9.2 1.8.4 2.5.5 1.5.3 4.1 0 7-.5.9.4 1.9.7 2.9.9 4.5 1.2 9.1 1.7 13.8 1.6 2.4 0 4.8-.3 7.2-.8 3.1-.7 6.3-1 9.5-.8 2.1.1 4.2.2 6.3 0 3.8-.3 7.6-1 11.3-2.3 2.2-.1 4.7 0 5.2-.5 2.2-1.4-.4-4.7-4.8-7.2z" fill="#fff"/><path opacity=".58" d="M236.4 145.4c1.9.4-1.9 2.6-7.6 1.8-3.7-.5-6.2-2.5-1.8-3.8 4.4-1.3 6.6 1.4 9.4 2zm-87.8-7.3c-.6 1.3-.9 2.7-1 4.2 1.3-1.5 2.7-2.8 4.3-4 1.7-1.4 4-1.9 6.1-1.3 3.5 1 3.4 1.1 3.4 1.1s2.3-1.9 7.9-6.4c5.7-4.5 14.8-2 14.8-2s4.2-11.7-10.8-5.9c-6.7 2.6-10.8 9.8-10.8 9.8s-5.8-1.7-10.2 0c-1.5.6-2.7 2.3-3.7 4.5z" fill="#fff"/><path d="M301.3 92.6s40.1-.2 65.7 12.4c23.4 11.6 64.8 3.9 64.8 3.9l13.8-76.8s-44.9 6.2-63.6-2.5c-25.8-12.1-65.7-12.4-65.7-12.4l-15 75.4z" fill="url(#paint2_linear_2463_40753)"/><path d="M266.7 253.1c.6.3 1.2.5 1.9.6l1.5.3 47.5-242.9-3.5-.7-47.4 242.7z" fill="url(#paint3_linear_2463_40753)"/><path d="M311.9 7.6c-.5 2.4 1.1 4.7 3.5 5.2s4.7-1.1 5.2-3.5-1.1-4.7-3.5-5.2-4.7 1.1-5.2 3.5z" fill="url(#paint4_radial_2463_40753)"/><path d="M348.3 81.4c-5.8-13.1.1-28.5 13.2-34.3 13.1-5.8 28.5.1 34.3 13.2 4.5 10.3 2 22.3-6.4 29.8l-7.9-22.5-1.6 1.7v5.8L374.5 59l-7.1 7.7v5.8l-2.8-8.4-16.3 17.3z" fill="#fff"/><path d="M276.9 355.9l42 22.1-16.3 15.2-27.6-20.4 1.9-16.9zm-83.3 51.9L168 394.3l-3.5 26.3 21.7 10 7.4-22.8z" fill="#DCBAD2"/><path d="M503.2 389.8c-5.5 11-11.8 21.6-18.8 31.7-.9 1.3-1.9 2.7-2.9 4-2.3 3.2-4.7 6.3-7.2 9.4-5.8 7.3-12 14.2-18.6 20.8-16.4 16.4-35 30.5-55.4 41.9-4.3 2.4-8.7 4.7-13.1 6.8-3.8 1.8-7.6 3.6-11.5 5.2-4.1 1.7-8.3 3.4-12.6 4.9-11.3 4.1-23 7.4-35 9.8-4.1.8-8.3 1.6-12.4 2.2h-.2c-12.4 1.9-25.2 2.9-38.1 2.9a263 263 0 01-21.8-.9c-1-.1-2.1-.2-3.1-.3-9.4-.9-18.7-2.4-27.7-4.3-10.1-2.1-19.9-4.9-29.5-8.2-14.3-4.9-28-11.1-41-18.4-13.5-7.6-26.3-16.4-38.2-26.3-7.4-6.2-14.5-12.8-21.2-19.8l7.7-6.1 31.6-24.7 8.8-6.9 24.9-19.4 14.3 19.3 7.5-7.9 2.9-3 20.7-21.8.4-.1 10.7-4.2 20.5-8 32.1-12.6 26.6 28.5 9.9-9.3 9.2-8.6 4.7-4.4 49.4-46.4 69.52-65.26c4.41-4.14 11.58-2.84 14.25 2.6l29.54 60.26 13.09 76.6z" fill="url(#paint5_linear_2463_40753)"/><path d="M447.01 315.41L380.9 385.4l53.3 13 33.1-73.5-20.29-9.49z" fill="url(#paint6_linear_2463_40753)"/><path d="M527.4 311c-.1.6-.2 1.2-.2 1.9-1 7.2-2.3 14.2-3.9 21.2-4.5 19.6-11.2 38.2-20 55.8-5.5 11-11.8 21.6-18.8 31.7-.9 1.3-1.9 2.7-2.9 4-2.3 3.2-4.7 6.3-7.2 9.4-5.8 7.3-12 14.2-18.6 20.8-16.4 16.4-35 30.5-55.4 41.9-4.3 2.4-8.7 4.7-13.1 6.8-3.8 1.8-7.6 3.6-11.5 5.2-4.1 1.7-8.3 3.4-12.6 4.9-11.3 4.1-23 7.4-35 9.8-4.1.8-8.3 1.6-12.4 2.2h-.2c-12.4 1.9-25.2 2.9-38.1 2.9a263 263 0 01-21.8-.9c-1-.1-2.1-.2-3.1-.3-9.4-.9-18.7-2.4-27.7-4.3-10.1-2.1-19.9-4.9-29.5-8.2l16.4-6.8 13.5-5.6 10.6-10.3 3.7-3.6 6.6-1.3 37.5-7.7 2.5-.5-1.8-17.9-1.3-13.6 44.7 8.6 4.6.9h.3l.9-29.4.2-6 .5-16.4.8-25.4 31.8 3.1 14.2 1.4 11.3 1.1 18.3 1.8 6.2-10.6 6.2-10.7s1.1.1 2.9.2c5.2.2 16.1-.3 21.2-6.8 4.82-6.24.64-27.26-2.2-38.96-.99-4.09 2.1-8.04 6.31-8.04h1.57c5.86 0 9.05-6.85 5.27-11.33l-3.9-4.63a20.031 20.031 0 01-4.51-15.68l9.99-30.08 47.57 56.93c1.38 1.75 3.99 1.9 5.55.31l.78-.79a7.356 7.356 0 0110.19-.27l3.58 3.24z" fill="url(#paint7_linear_2463_40753)"/><g opacity=".5"><path opacity=".5" d="M484.4 421.5c-.9 1.3-1.9 2.7-2.9 4-2.3 3.2-4.7 6.3-7.2 9.4-5.8 7.3-12 14.2-18.6 20.8L414 393.5l-3.5-5.2 6.2-10.6 6.2-10.7 17.1 15.1 1.2 1.1 43.2 38.3z" fill="url(#paint8_linear_2463_40753)"/><path opacity=".5" d="M373.1 492.5l14.2 12c-3.8 1.8-7.6 3.6-11.5 5.2-4.1 1.7-8.3 3.4-12.6 4.9-11.3 4.1-23 7.4-35 9.8-4.1.8-8.3 1.6-12.4 2.2h-.2c-.6-1-1.2-2-1.9-2.9-8.1-12.7-15-23.6-19.9-31.4-5-7.8-7.9-12.5-7.9-12.5l-1.8-17.9-1.3-13.6 44.7 8.6 4.6.9h.3l40.7 34.7z" fill="url(#paint9_linear_2463_40753)"/><path opacity=".5" d="M255.7 528.6c-1-.1-2.1-.2-3.1-.3-9.4-.9-18.7-2.4-27.7-4.3l.4-20.6 10.6-10.3 3.7-3.6 16.1 39.1z" fill="url(#paint10_linear_2463_40753)"/></g><path d="M153.34 489.83c.44 3.15-2.98 5.37-5.7 3.73a255.782 255.782 0 01-31.44-22.36c-7.4-6.2-14.5-12.8-21.2-19.8-7.8-8.2-15.1-16.9-21.8-26.2-2.2-3-4.3-6.1-6.4-9.2-4.7-7.1-9-14.5-13-22-3.7-7-7-14.2-10-21.6l-.6-.2.3-.5c-6.79-16.98-11.89-34.82-14.93-53.41-.18-1.07.13-2.17.82-3.01L96.47 234c1.84-2.23 5.4-1.64 6.43 1.06l24.55 64.73c.1.27.17.55.21.83l6.74 49.97 8.5 63.2 2.7 20 7.74 56.04z" fill="url(#paint11_linear_2463_40753)"/><path d="M110.2 311.7l-20.3 58.2-2.6 7.7-2.7 7.7-15.7-5-2-.6-23-7.3-.6-.2.3-.5 51.75-68.99 14.85 8.99z" fill="url(#paint12_linear_2463_40753)"/><path d="M149.7 289.9l-16.2 10.3 16.2 5.6v-15.9z" fill="#3684FF"/><path d="M221.7 347.9L203 358.4l13.4 12.8 5.3-23.3zm88.8 57.3l-35.7-2.4 17.9 26.3 17.8-13.2v-10.7z" fill="#225AD6"/><path d="M400.3 497.7c-4.3 2.4-8.7 4.7-13.1 6.8-3.8 1.8-7.6 3.6-11.5 5.2-4.1 1.7-8.3 3.4-12.6 4.9-11.3 4.1-23 7.4-35 9.8-4.1.8-8.3 1.6-12.4 2.2h-.2c-12.4 1.9-25.2 2.9-38.1 2.9a263 263 0 01-21.8-.9c-1-.1-2.1-.2-3.1-.3-9.4-.9-18.7-2.4-27.7-4.3-10.1-2.1-19.9-4.9-29.5-8.2-14.3-4.9-28-11.1-41-18.4-13.5-7.6-26.3-16.4-38.2-26.3-7.4-6.2-14.5-12.8-21.2-19.8-7.8-8.2-15.1-16.9-21.8-26.2-2.2-3-4.3-6.1-6.4-9.2-4.7-7.1-9-14.5-13-22-3.7-7-7-14.2-10-21.6l-.6-.2.5.1 10.83 1.36c6.82.86 13.4-2.84 16.22-9.1l2.84-6.29c1.13-2.51 3.59-4.17 6.34-4.23 4.39-.1 11.01-1.26 14.37-6.84 3.51-5.83.88-24.56-1.3-36.54-.99-5.45 3.2-10.46 8.74-10.46 3.59 0 5.75-3.99 3.79-7l-6.03-9.23a21.92 21.92 0 01-3.44-14.38l6.94-34.43 37.8 60.24 2 3.3 6.7-8.8 20.9 23.2 25.1 28 6.5 7.2 6.3 7 5.2 5.7 8.2-13.2 3.9 3.5 19.2 17.1 39 34.9 9.4 8.4 17.3-6.6 2.3 2.3 15.4 15.8 5.1 5.3 47 48.4 20.1 20.9z" fill="url(#paint13_linear_2463_40753)"/><path opacity=".5" d="M313.7 523.8l2 2.9h-.2c-12.4 1.9-25.2 2.9-38.1 2.9a263 263 0 01-21.8-.9c-1-.1-2.1-.2-3.1-.3l-16.8-35.2-43.1-90.4-6.1-12.8-.3-.7-5.8-12.2-9.7-20.4-13.8-28.9-11.1-23.2-2.7-5.7 6.7-8.8 18.3 25.9 21.2 30 7.7 10.9 10 14.2.2.2 6.7 9.5 55.5 79.4 14.2 20.3 8.4 12 21.7 31.3z" fill="url(#paint14_linear_2463_40753)"/><path opacity=".5" d="M375.7 509.7c-4.1 1.7-8.3 3.4-12.6 4.9-11.3 4.1-23 7.4-35 9.8l-22.8-32-.8-1.1-20.4-29.3-7.6-10.8-52.2-74.7-6.9-9.9-2.7-3.9-1.1-1.6 8.2-13.2 3.9 3.5 19.2 17.1 39 34.9 9.4 8.4 8.1 9.6.7.8 18.3 21.8 11.7 13.9 29.1 34.5 14.5 17.3z" fill="url(#paint15_linear_2463_40753)"/><path d="M289.2 343.5c-.2 0-.4-.1-.5-.1-.3 0-.5-.1-.8-.2-.2 0-.4-.1-.5-.1.7.2 1.5.3 2.3.5-.2 0-.3-.1-.5-.1zm-3.1-.7c-.2-.1-.4-.1-.6-.2-.2-.1-.4-.1-.6-.2.6.2 1.2.4 1.8.5-.2 0-.4-.1-.6-.1zm-139.5 11.4c0 .3 0 .7-.1 1 0-.4.1-.7.1-1zm136.6-12.3c-.4-.1-.7-.3-1-.4.4.1.8.3 1.2.4h-.2zm.4.1c.2.1.4.2.7.2-.3 0-.5-.1-.7-.2zm6.9 1.7c-.2 0-.3 0-.5-.1.4.1.7.1 1.1.1-.2.1-.4 0-.6 0zm8.7-1.3c.3-.2.5-.3.8-.5-.2.1-.5.3-.8.5zm-1.2.6c.3-.1.7-.3 1-.5-.3.2-.7.3-1 .5zm-1.2.4c-.1 0-.1 0-.2.1h-.2c.5-.1 1-.3 1.5-.5-.3.1-.7.3-1.1.4zm-1.4.3c.1 0 .2 0 .3-.1-.1.1-.2.1-.3.1zm-147.8 3.9c-.1.4-.2.8-.3 1.3.1-.5.2-.9.3-1.3zm-.8 4.8c-.1.5-.1.9-.1 1.4-.1-.5 0-.9.1-1.4zm3.8-15.3c-.1.4-.3.8-.4 1.3.1-.4.2-.9.4-1.3zm.6-1.8c.4-1 .7-2 1.1-3-.4 1-.7 2-1.1 3zm-2.1 6.6c.3-1.1.6-2.2 1-3.2-.4 1.1-.7 2.3-1 3.4-.1 0 0-.1 0-.2zm1.6-5.1c.2-.5.3-.9.5-1.4-.2.5-.4 1-.5 1.5v-.1z" fill="#B77E6D"/><path d="M474.4 434.9c-5.8 7.3-12 14.2-18.6 20.8-16.4 16.4-35 30.5-55.4 41.9-4.3 2.4-8.7 4.7-13.1 6.8-3.8 1.8-7.6 3.6-11.5 5.2-4.1 1.7-8.3 3.4-12.6 4.9-2.8-6.2-7.3-14.1-12.2-22.2-8.3-13.7-18-27.9-23.4-35.4-1.6-2.2-2.8-3.8-3.5-4.7-1.7-2-2.9-5-3.6-8.4-1.7-8.3 0-18.5 6.8-20.4.3-.1.7-.2 1-.2 1.5-.3 3.4-.5 5.3-.7 10.8-.7 26.1.9 26.1-3.9 0-5-16.1-8.8-25.5-12.5-1.6-.6-3.1-1.2-4.2-1.9-2.8-1.6-6.2-3.6-9.4-6.1-4.7-3.6-8.9-7.9-10.1-12.4-.2-.8-.3-1.5-.3-2.3 0-4.1 3.7-5.3 7.5-6.3 4.2-1 8.5-1.6 8.2-4.9-.1-1.8-1.4-3.8-3.2-5.8-4.7-5.3-13.5-11.3-18.4-17.1-1.9-2.2-2.9-5.2-3.3-8.4.4-.4.7-.7 1-1.2 4.5-6.4 14.9 7.5 18 11.7 1.2 1.6 4 5.9 7.3 10.6 5.8 8.1 13.1 17.2 16.5 15.5 5.4-2.7 2.2-9.6 0-14.4-2.2-4.8 5.8-2.7 15.3 11.2 1.6 2.3 4.2 5.6 7.5 9.5 16.4 19.2 49.5 53.1 53.2 59.3 4.5 7.5 13.1-2.7-2.7-22.9-9-11.6-18.8-22.9-24-32-.4-.7-.7-1.3-1-1.9-2.4-4.6-3.3-8.6-2.1-11.7.3-.9.8-1.6 1.5-2.3.5-.5 1.1-1 1.7-1.3 5.6-3.4 14.9.4 23.4 6.6 5.1 3.8 10 8.4 13.6 12.9 1.1 1.4 2.8 3.3 5 5.7 8.2 9.2 23.4 24.8 39.2 38.7z" fill="#B8D3FF"/><path d="M147 350.9c0-.2.1-.3.1-.5.1-.4.1-.7.2-1.1 0-.2.1-.3.1-.5-.2 1.1-.4 2.2-.5 3.2-.1-.3 0-.7.1-1.1zm1.2-5.6l.3-1.2c-.1.5-.3 1.1-.4 1.6 0-.2 0-.3.1-.4zm.8-2.9l-.3 1.2c0-.5.1-.8.3-1.2zm-.9 3.3c-.1.5-.3 1.1-.4 1.6.1-.6.2-1.1.4-1.6zm-1.5 12.3c0-.4-.1-.8-.1-1.2v-1.3c0 .9 0 1.8.1 2.5zm148-14.2h-3.2c1.1.1 2.1.1 3.2 0z" fill="#B77E6D"/><path d="M363.2 514.6c-11.3 4.1-23 7.4-35 9.8-4.1.8-8.3 1.6-12.4 2.2h-.2c-12.4 1.9-25.2 2.9-38.1 2.9a263 263 0 01-21.8-.9c-1-.1-2.1-.2-3.1-.3-9.4-.9-18.7-2.4-27.7-4.3-10.1-2.1-19.9-4.9-29.5-8.2-14.3-4.9-28-11.1-41-18.4-13.5-7.6-26.3-16.4-38.2-26.3-7.4-6.2-14.5-12.8-21.2-19.8-7.8-8.2-15.1-16.9-21.8-26.2-2.2-3-4.3-6.1-6.4-9.2-4.7-7.1-9-14.5-13-22 5-5.7 9.4-10.6 13.1-14.3l1.1-1.1c3.9-4 6.8-6.4 8.3-6.9 5.2-1.7 8.2 1.9 11 5.9.6.8 1.1 1.6 1.7 2.4 1.7 2.3 3.4 4.4 5.6 5.1 1.2.4 2.5.4 4-.2.5-.2 1.5-.8 2.8-1.9 5.6-4.5 17.8-16.6 33.2-32.4 5.5-5.7 11.5-11.8 17.7-18.3-.1.2-.2.5-.3.7-.1.2-.2.5-.3.7 0 .1-.1.2-.1.3 0 .1-.1.3-.2.4-.1.2-.2.5-.3.8v.1c-.1.5-.3.9-.5 1.4 0 .1 0 .1-.1.2v.2c-.1.3-.2.6-.3.8-.1.1-.1.3-.1.4 0 .1-.1.2-.1.3-.3 1-.7 2.1-1 3.2 0 .1 0 .1-.1.2 0 .1 0 .1-.1.2l-.3 1.2c0 .2-.1.3-.1.5-.1.5-.3 1.1-.4 1.6-.1.5-.3 1.1-.4 1.6 0 .1 0 .2-.1.3-.1.4-.2.8-.3 1.3 0 .2-.1.3-.1.5-.1.4-.2.8-.2 1.2-.1.4-.1.7-.2 1.1 0 .2 0 .3-.1.5v.3c-.1.5-.1.9-.2 1.4v.4c0 .3 0 .7-.1 1v2.3c0 .2 0 .4.1.6.8 6.1 11.5 4.3 24-1.5 6.1-2.8 12.6-6.5 18.6-10.6 2.1-1.4 4.1-2.9 6.1-4.5.1-.1.3-.2.4-.3 11.8-9.1 11.8-2.7 6.5 7.2-1.4 2.7-3.2 5.5-5.3 8.4-2.2 3.2-4.8 6.3-7.4 9.2-1.1 1.1-2 2.2-3 3.3-2.6 2.9-4.6 5.4-6.1 7.7l-.1.1c-.2.4-.5.7-.7 1-4.7 7.1-4.4 11-2.5 13.9 1.1 1.7 4.5.4 9.2-2.8 5.6-3.9 13.2-10.6 20.7-18.2.8-.8 1.6-1.7 2.5-2.5.7-.7 1.3-1.4 2-2.1l.6-.6c.9-1 1.9-2 2.8-3 1.6-1.6 3.2-3.3 4.8-5 2-2.1 4.1-4.2 6.2-6.3 12-12.1 23.8-22.8 27.7-21.7 5.4 1.6.5 11.2-2.2 18.1-2.7 6.9 5 14.4 12.2 6.9 7.2-7.5 13.5-15.5 18.9-13.3.3.1.7.2 1 .4h.1c.1 0 .2.1.3.1.2.1.4.1.7.2.2.1.4.1.6.2.2.1.4.1.6.2l1.2.3.7.2c.4.1.8.2 1.1.2.4.1.8.1 1.1.2.1 0 .2 0 .4.1.4 0 .7.1 1.1.1h3.5c.3 0 .5 0 .8-.1.1 0 .2 0 .3-.1.2 0 .5-.1.8-.2.2 0 .4-.1.7-.2.3-.1.7-.2 1-.4.3-.1.6-.3.9-.4 0 0 .1 0 .1-.1l.9-.6c.3-.2.6-.5.9-.8.3 3.2 1.4 6.2 3.3 8.4 4.9 5.8 13.7 11.8 18.4 17.1 78.93 65.79 21.7 55.4 10.9 56.1-2 .1-3.8.3-5.3.7-.4.1-.7.2-1 .2-43.45 13.05 12.04 45.56 23.7 68.9 4.8 8.6 9.2 16.5 12.1 22.6z" fill="url(#paint16_linear_2463_40753)"/><path d="M150.7 336.8c.2-.5.3-.9.5-1.4-.2.5-.3.9-.5 1.4zm138.5 6.7c-.2 0-.4-.1-.5-.1.2.1.3.1.5.1zm1.3.2c-.2 0-.3 0-.5-.1.2.1.4.1.5.1zm-143.4 6.7c.1-.4.1-.7.2-1.1-.1.4-.2.7-.2 1.1zm149.7-7c-.1 0-.1 0-.2.1.1-.1.2-.1.2-.1zm-1.1.2c-.1 0-.2 0-.3.1.1 0 .2 0 .3-.1zm-144.5-8.3c.4-1 .7-2 1.1-3-.4 1-.7 2-1.1 3zm-1 3.1c.1-.4.3-.9.4-1.3-.2.4-.3.9-.4 1.3zm-3.7 16.7c0-.3 0-.7.1-1 0 .4-.1.7-.1 1zm1.2-7.8c.1-.5.2-1.1.4-1.6-.2.5-.3 1-.4 1.6zm140.2-4c-.2 0-.4-.1-.6-.1.3 0 .4 0 .6.1zm-139.7 2l.3-1.2-.3 1.2zm-1.4 6.8c.1-.4.1-.8.2-1.2-.1.4-.2.8-.2 1.2zm-.2 1.7c0-.5.1-.9.1-1.4 0 .5-.1.9-.1 1.4zm.7-5c.1-.4.2-.8.3-1.3-.1.5-.2.9-.3 1.3zm138.1-6.2c-.2-.1-.4-.1-.6-.2.2.1.4.1.6.2zm1.3.4c-.2-.1-.4-.1-.6-.2.2 0 .4.1.6.2zm-137.6-1.1c.3-1.1.6-2.2 1-3.2-.4 1.1-.7 2.2-1 3.2zm134.1 0c-.4-.1-.7-.3-1-.4.3.1.6.2 1 .4zM146.6 358c0-.4-.1-.8-.1-1.2.1.4.1.8.1 1.2zm2-14.4l.3-1.2-.3 1.2zm135.7-1.4c-.2-.1-.5-.2-.7-.2.2.1.4.2.7.2zm8.4 1.7h-.9c.4-.1.6 0 .9 0z" fill="#B77E6D"/><path d="M147.6 347.6c0-.1 0-.2.1-.3 0 .1-.1.2-.1.3zm-.4 1.7c0-.2.1-.3.1-.5 0 .2 0 .4-.1.5zm.9-3.6c0-.1.1-.3.1-.4-.1.1-.1.2-.1.4zm140.6-2.3c-.3 0-.5-.1-.8-.2.3.1.5.2.8.2zm-5.1-1.4c-.1 0-.3-.1-.4-.1.1 0 .2.1.4.1zm6.4 1.6c-.3 0-.5-.1-.8-.1.3.1.6.1.8.1zm-143 7.3c0-.2.1-.3.1-.5-.1.2-.1.3-.1.5zm144.4-7.1c-.3 0-.6-.1-.8-.1.2 0 .5.1.8.1zm2.7 0h-.9c.3.1.6.1.9 0zm-6.7-.7c-.2-.1-.5-.1-.7-.2.2.1.4.2.7.2zm-1.3-.3c-.2-.1-.4-.1-.6-.2.1.1.4.1.6.2z" fill="#B77E6D"/><path d="M481.6 425.5c-2.3 3.2-4.7 6.3-7.2 9.4-15.8-13.9-31-29.5-39.2-38.7-2.2-2.4-3.9-4.4-5-5.7-3.6-4.5-8.5-9.1-13.6-12.9-8.5-6.2-17.8-10-23.4-6.6-.6.4-1.2.8-1.7 1.3-.7.7-1.2 1.5-1.5 2.3-1.2 3.1-.2 7.1 2.1 11.7.3.6.7 1.3 1 1.9 5.2 9.1 14.9 20.4 24 32 15.8 20.3 7.2 30.4 2.7 22.9-3.7-6.2-36.8-40.1-53.2-59.3-3.3-3.9-6-7.1-7.5-9.5-9.5-13.9-17.6-16-15.3-11.2 2.2 4.8 5.4 11.7 0 14.4-3.4 1.7-10.8-7.5-16.5-15.5-3.4-4.7-6.2-9-7.3-10.6-3.1-4.3-13.5-18.1-18-11.7-.3.4-1.6.8-2 1.2-.9-8.3 2.9-18 9.1-18.8 8.5-1.1 9.4-13.3 4.9-15.5-4.5-2.2-11.7-3.2-17.1-13.9-5.4-10.7-8.9-33.6-10.2-55.5-.5-8.9-3.7-19.4-7.2-28.7 6.1 2 13.4 9.9 24.8 26.1 10.1 14.4 40.9 47.5 72.5 80.8 11.4 12 22.9 24.1 33.7 35.3 5.4 5.6 10.6 11.1 15.4 16.2 5.1 5.4 9.9 10.4 14.1 14.9.4.4.8.8 1.1 1.2 5.6 6 10.3 11 13.7 14.9 7 8.1 16.5 17.8 26.8 27.6z" fill="#fff"/><path d="M300 341.9l-.9.6s.1 0 .1-.1c.3-.2.6-.4.8-.5zm-1 .6c-.7.4-1.4.7-2.2.9.4-.1.8-.2 1.1-.4.4-.2.8-.3 1.1-.5z" fill="#B77E6D"/><path d="M300.9 341.1c-.3.3-.6.6-.9.8.3-.3.6-.6.9-.8zm-1.7 1.3c-.1.1-.2.1-.2.1.1 0 .2-.1.2-.1zm-2.6 1c-.3.1-.6.1-.9.2.3 0 .6-.1.9-.2zm-146.5-4.7c0-.1.1-.2.1-.3-.1.1-.1.2-.1.3zm.5-1.6c0-.1.1-.2.1-.3 0 .1-.1.2-.1.3zm144.8 6.6c-.3 0-.6.1-.9.1.3 0 .6-.1.9-.1zM149 342.4c0-.1.1-.3.1-.4-.1.1-.1.2-.1.4zm-.5 1.7c0-.2.1-.3.1-.5 0 .1-.1.3-.1.5zm136.3-1.7c-.2-.1-.4-.1-.6-.2.2.1.4.2.6.2z" fill="#B77E6D"/><path d="M150.84 336.22c0 .1 0 .1-.1.2 0 .1 0 .1-.1.2-.1.4-.3.8-.4 1.3 0 .1-.1.2-.1.3-.3 1.1-.7 2.1-1 3.2 0 .1 0 .1-.1.2 0 .1 0 .1-.1.2l-.3 1.2c0 .2-.1.3-.1.5l-.3 1.2c0 .1-.1.3-.1.4-.1.5-.3 1.1-.4 1.6 0 .1 0 .2-.1.3-.1.4-.2.8-.3 1.3 0 .2-.1.3-.1.5-.1.4-.1.7-.2 1.1 0 .2-.1.3-.1.5-.1.4-.1.8-.2 1.2v.3c-.1.5-.1.9-.1 1.4v.4c0 .3 0 .7-.1 1v1.7c0 .4.1.8.1 1.2 1.4 10.1 29.7-1.6 48.6-16.5 18.9-14.9 8.6 9.1-5.9 24.5-14.4 15.5-17.1 24.7-14.4 29 2.7 4.3 21.6-13 36.9-29.3 15.3-16.3 36-37.6 41.4-36 5.4 1.6.5 11.2-2.3 18.1-2.7 6.9 5 14.4 12.2 6.9 7.2-7.5 13.5-15.5 18.9-13.3.3.1.7.3 1 .4 0 0 .1 0 .1.1.1 0 .2.1.3.1.2.1.4.2.7.2.2.1.4.1.6.2.2.1.4.1.6.2.2.1.4.1.6.2.2.1.4.1.6.2.2.1.5.1.7.2.2 0 .4.1.5.1.3.1.5.1.8.2.2 0 .4.1.5.1.1 0 .3 0 .4.1.1 0 .2 0 .4.1.2 0 .3 0 .5.1.2 0 .4 0 .6.1h3.5c.3 0 .5 0 .8-.1.1 0 .2 0 .3-.1.3 0 .5-.1.8-.2h.2c.1 0 .1 0 .2-.1.8-.2 1.5-.5 2.2-.9 0 0 .1 0 .1-.1l.9-.6c.3-.2.6-.5.9-.8-.9-8.3 2.9-18 9.1-18.8 8.6-1.1 9.5-13.3 5-15.5-4.5-2.1-11.7-3.2-17.1-13.9-5.4-10.7-9.9-33.6-11.3-55.5-.5-8.9-3.7-19.3-7.3-28.6-4.7-1.6-8.8.3-13.7 4.5-7 6-67.1 70.7-113.4 118.9-.3.9-.7 1.9-1.1 3v.2c.1.3-.1.7-.2 1.2z" fill="#E5EEFF"/><path d="M290 343.6c-.1 0-.2 0-.4-.1.2.1.3.1.4.1zm5.4.1c-.3 0-.5.1-.8.1.3 0 .5-.1.8-.1zm-11.1-1.5c.2.1.4.1.6.2-.3 0-.5-.1-.6-.2zm2.4.8c.2.1.5.1.7.2-.3-.1-.5-.2-.7-.2zm14.2-1.9c-.3.3-.6.6-.9.8.3-.3.6-.6.9-.8zm-1.8 1.3s-.1 0-.1.1c.1 0 .1-.1.1-.1zm-3.4 1.2c.3 0 .5-.1.7-.2-.2.1-.5.2-.7.2zm-12.1-1.6c-.1 0-.2-.1-.3-.1.1 0 .2.1.3.1zm-134.6.4c0-.1 0-.1.1-.2-.1 0-.1.1-.1.2zm-1.3 4.9c0 .1 0 .2-.1.3 0-.1.1-.2.1-.3zm.9-3.7c0 .2-.1.3-.1.5 0-.2.1-.4.1-.5 0-.1 0-.1 0 0zm1.6-5.2c0 .1-.1.2-.1.3 0-.1 0-.2.1-.3z" fill="#B77E6D"/><path d="M443.22 360c-.15 0-.29-.06-.38-.19-14.78-19.16-32.63-37.94-49.89-56.1-16.2-17.04-32.94-34.66-47.26-52.68a.48.48 0 01.08-.68.48.48 0 01.68.08c14.28 17.99 31.02 35.59 47.2 52.62 17.28 18.18 35.14 36.97 49.96 56.18.16.21.12.52-.09.68-.1.06-.2.09-.3.09z" fill="url(#paint17_linear_2463_40753)"/><path d="M419.56 429.95c1.09.56 4.66.43 4.67-.39.03-2.41-.07-5.92-.07-5.92s-3.28.23-6.15.12c-2.87-.12-6.37-.99-7.94.2-1.78 1.35-.25 3.2 2.31 3.81 2.31.54 5.62 1.37 7.18 2.18z" fill="url(#paint18_linear_2463_40753)"/><path d="M419.83 428.57c1.16.41 4.32.4 4.49-.28.17-.68-.32-6.02-.32-6.02s-3.03.33-5.9.22c-2.87-.12-6.23-.31-7.8.87-1.68 1.27-.11 2.65 2.02 3.41 2.25.8 5.16.97 7.51 1.8z" fill="url(#paint19_linear_2463_40753)"/><path d="M419.83 428.57c1.16.41 4.32.4 4.49-.28.17-.68-.32-6.02-.32-6.02s-3.03.33-5.9.22c-2.87-.12-6.23-.31-7.8.87-1.68 1.27-.11 2.65 2.02 3.41 2.25.8 5.16.97 7.51 1.8z" fill="url(#paint20_linear_2463_40753)"/><path d="M419.16 419.43l4.94.92s.4 3.09-.18 3.91c-.65.92-1.98.8-3.76.01-1.77-.8-1-4.84-1-4.84z" fill="url(#paint21_linear_2463_40753)"/><path d="M452.48 411.32l1.03 3.2s-2.91 2.1-3.35 3.05c-.44.94-2.6-6.52-2.6-6.52l4.92.27z" fill="url(#paint22_linear_2463_40753)"/><path d="M450.28 416.65c-1.1 1.78-1.59 7.5-2.27 8.13-.09.08-1.72-.96-2.43.66-.31.7.53 2.05 1.81 2.32 2.43.51 5.49-.19 5.81-3 .32-2.81 3.76-8 3.34-8.7-.42-.69-3.16-2.58-3.16-2.58s-2.5 2.2-3.1 3.17z" fill="url(#paint23_linear_2463_40753)"/><path d="M456.66 416.06s-.79-.9-2.47.13c-1.68 1.03-2.61 7.75-3.03 9.31-.42 1.57-2.51 2.27-3.52 2.19-1.01-.08.34.5 2.81.55 2.47.05 3.94-1.27 4.1-1.98 1.77-7.66 2.99-7.76 2.11-10.2z" fill="url(#paint24_linear_2463_40753)"/><path d="M453.53 413.69s-1.9-12.39-5.55-18.37c-1.73-2.84-4.14-5.2-4.5-5.68-.18-.25-2.39-.34 4.58-13.63 1.78-3.39 2.57-7.11 1.92-9.74-.09-.36-11.97 1.93-11.97 1.93l-.93 9.6s-2.75 5.91-2.86 11.02c-.07 3.16.22 3.9 1.58 5.67 2.49 3.26 12.5 21.24 13.85 23.4.68 1.07 3.88-4.2 3.88-4.2z" fill="url(#paint25_linear_2463_40753)"/><path d="M449.66 373.31s-.65 2.91-6.14 5.81c-7.23 3.83-16.75 13.13-17.09 17.39-.34 4.25.14 11.29-.81 19.78-.65 5.82-.29 7.06-1.47 8.05-1.36 1.14-4.8.41-6.14-1.94-1.58-2.78-.66-25.13-.26-30.16.4-5.03 14.15-25.72 14.15-25.72l17.76 6.79z" fill="url(#paint26_linear_2463_40753)"/><path d="M441.47 340.1c3.03-3.42 4.61-1.4 9.53-2.73 1.73-.47 2.75-1.16 4.18-.46 5.67 2.77 1.5 12.65-.41 23.83-1.39 8.16-6.74 15.15-6.74 15.15s-.52-1.02-3.88-3.23c-2.53-1.67-12.27-6.14-12.27-6.14s3.11-3.75 4.56-9.9c1.45-6.15 2.54-13.7 5.03-16.52z" fill="url(#paint27_linear_2463_40753)"/><path d="M455.01 323.99l-3.49-4.24c1.05.4 2.83 1.92 3.49 4.24z" fill="url(#paint28_linear_2463_40753)"/><path d="M448.86 323.82l2.33.52.51 2.08.19 3.83-.01.01c-.18-3.3-1.47-5.3-3.02-6.44z" fill="url(#paint29_linear_2463_40753)"/><path d="M449.48 321.97l4.74 2.78c1.14 1.56 1.76 3.85.92 7.05l-2.99 1.41s.56.59-.82.78c-.83.12-2.13.04-2.97.02-.77-.02-2.3-.47-2.74-1.06-1.83-2.41 3.86-10.98 3.86-10.98z" fill="url(#paint30_linear_2463_40753)"/><path d="M458.58 332.43c-1 .68-1.85.17-2.66 1.37-.73 1.07-1.71 1.81-2.75 1.42-.01 0-2.58-.45-2.5-1.59.04-.46-.1-2.17.11-2.59 1.54.78 2.94-1.22 2.23-1.84-.23-.2-.63-.32-.81-.31-.4.02-.86.34-.86.34s-.41-.46-.32-.63c.59-1.15 1.98-2.94 1.6-3.85-.45-1.08-2.58-.6-3.31-2.81-.01-.03-.26-.48-.27-.51-.68-2.16 2.16-4.2 4.15-3.12.43.24-.21.62 1.34 1.39 1 .5 2.2.79 3.83 1.72 6.8 3.9 1.82 9.93.22 11.01z" fill="url(#paint31_linear_2463_40753)"/><path d="M457.32 340.81s-2.01-4.11-2.02-5.13c-.01-1.02 5.71-.89 7.25-7.86 1.54-6.97-9.21-9.38-9.21-9.38s1.57 11.01-1.45 14.12c-3.02 3.1-6.23.39-6.23.39a10717.01 10717.01 0 002.73 5.27l8.93 2.59z" fill="url(#paint32_linear_2463_40753)"/><path d="M449.14 362.17c-4.89 0-9.8-1.95-13.22-5.48a.489.489 0 01.7-.68c4.43 4.57 11.49 6.35 17.56 4.42.26-.08.53.06.61.32.08.26-.06.53-.32.61-1.73.54-3.53.81-5.33.81z" fill="url(#paint33_linear_2463_40753)"/><path d="M453.49 366.34h-.05c-7.61-.77-12.8-6.71-16.97-11.49a.47.47 0 01.05-.68c.2-.18.51-.16.68.05 4.06 4.65 9.11 10.43 16.33 11.16.27.03.46.26.43.53-.01.25-.22.43-.47.43z" fill="url(#paint34_linear_2463_40753)"/><path d="M333.43 318.27c1.15.42 4.68-.16 4.58-.98-.28-2.39-.83-5.87-.83-5.87s-3.22.65-6.08.9c-2.87.25-6.44-.17-7.85 1.21-1.59 1.56.16 3.2 2.78 3.48 2.35.26 5.75.66 7.4 1.26z" fill="url(#paint35_linear_2463_40753)"/><path d="M333.52 316.87c1.2.26 4.34-.15 4.42-.85.08-.69-1.09-5.93-1.09-5.93s-2.96.72-5.82.97c-2.87.25-6.22.48-7.62 1.86-1.5 1.48.22 2.64 2.44 3.12 2.33.51 5.23.31 7.67.83z" fill="url(#paint36_linear_2463_40753)"/><path d="M333.52 316.87c1.2.26 4.34-.15 4.42-.85.08-.69-1.09-5.93-1.09-5.93s-2.96.72-5.82.97c-2.87.25-6.22.48-7.62 1.86-1.5 1.48.22 2.64 2.44 3.12 2.33.51 5.23.31 7.67.83z" fill="url(#paint37_linear_2463_40753)"/><path d="M331.69 307.89l5.02.28s.79 3.02.32 3.9c-.53 1-1.86 1.05-3.73.49-1.86-.56-1.61-4.67-1.61-4.67z" fill="url(#paint38_linear_2463_40753)"/><path d="M357.51 300.08l.96 3.22s-2.96 2.04-3.42 2.97c-.46.93-2.47-6.58-2.47-6.58l4.93.39z" fill="url(#paint39_linear_2463_40753)"/><path d="M355.2 305.37c-1.14 1.75-1.75 7.46-2.44 8.08-.09.08-1.7-1-2.45.61-.32.69.49 2.07 1.76 2.36 2.42.56 5.49-.08 5.87-2.88.38-2.8 3.92-7.92 3.52-8.62-.4-.7-3.1-2.64-3.1-2.64s-2.54 2.13-3.16 3.09z" fill="url(#paint40_linear_2463_40753)"/><path d="M361.6 304.91s-.77-.91-2.47.08c-1.7.99-2.78 7.69-3.22 9.25-.45 1.56-2.55 2.22-3.56 2.11-1.01-.1.33.51 2.79.61 2.46.1 3.96-1.19 4.14-1.89 1.92-7.63 3.14-7.7 2.32-10.16z" fill="url(#paint41_linear_2463_40753)"/><path d="M358.52 302.47s-1.64-12.42-5.16-18.49c-1.67-2.88-4.03-5.29-4.38-5.77-.18-.25-2.38-.39 4.86-13.53 1.85-3.35 2.72-7.05 2.13-9.7-.08-.36-12 1.68-12 1.68l-1.13 9.57s-2.87 5.85-3.09 10.96c-.13 3.15.14 3.9 1.46 5.7 2.42 3.31 12.05 21.5 13.35 23.69.64 1.1 3.96-4.11 3.96-4.11z" fill="url(#paint42_linear_2463_40753)"/><path d="M356.05 258.26s-.27 2.97-5.35 6.55c-6.68 4.72-14.94 15.16-14.73 19.43.2 4.26 1.58 11.18 1.72 19.72.1 5.86.61 7.04-.44 8.17-1.21 1.31-4.71 1.02-6.33-1.14-1.92-2.56-3.86-24.84-4.1-29.88-.24-5.04 10.75-27.31 10.75-27.31l18.48 4.46z" fill="url(#paint43_linear_2463_40753)"/><path d="M293.96 243.08c.2-.52.14-1.12-1.4-1.55-1.33-.38-2.5-.53-3.31-.91-.15-.07-.14-.29-.04-.42.1-.11.25-.17.37-.09 0 0 3.16.79 3.24.5.08-.28-3.11-1.94-3.11-1.94a.353.353 0 01-.08-.45c.1-.17.33-.21.49-.1 0 0 3.09 1.94 3.26 1.68.17-.26-2.37-2.26-2.37-2.26a.338.338 0 01-.01-.49.35.35 0 01.45-.04s2.6 2.15 2.73 2.03c.33-.31-1.24-1.9-1.24-1.9a.3.3 0 01.02-.42.3.3 0 01.37-.02c.46.34.9 1.06 1.85 1.94.83.77.72.6 1.64 1.42.92.82 3.07 1.97 3.07 1.97s1.92 2.17 1.55 2.6c-.37.44-3.97-.77-4.29-.61-.5.25-1.52.37-1.86.28-.34-.09-1.58.09-1.8.13-.72.14-1.4.15-1.68.28-.63.3-.41-.27-.21-.53.52-.64 2.12-.49 2.36-1.1z" fill="url(#paint44_linear_2463_40753)"/><path d="M325.83 229.32c-6.93 3.41-12.91 7.93-14.76 9.04-.4.24-1.98.05-5.13.44-4.8.59-4.8.7-7.1 1.4-1.61.5-1.57 2.21-.81 3.48.11.19.63 1.18 1.28 1.26 3.36.41 10.69.44 14.32-.63 3.84-1.13 6.81-3.97 14.56-6.6 6.96-2.36.32-9.71-2.36-8.39z" fill="url(#paint45_linear_2463_40753)"/><path d="M297.77 251.07c-.1.25-.32.44-1.68-.53-1.3-.92-2.32-1.79-3.17-2.35-.16-.1-.29.08-.28.29.01.19.09.4.23.46 0 0 2.91 2.36 2.8 2.68-.11.3-3.56-1.43-3.56-1.43-.17-.06-.31.06-.33.27-.02.24.12.51.32.59 0 0 3.55 1.54 3.52 1.91-.03.38-3.19-.53-3.19-.53-.19-.05-.33.12-.31.37.02.22.15.43.32.5 0 0 3.29.82 3.32 1.04.07.59-2.09.42-2.09.42-.16-.02-.26.14-.23.35.02.18.14.35.27.4.56.22 1.26-.05 2.52.27 1.1.28 1.14.37 2.33.7 1.2.33 1.33-.06 1.93-.3.76-.3.59-.31 4.15-.94 0 0-4.54-3.26-4.86-3.55-.32-.29-.62-.7-.76-.97-.46-.86-1.96-1.82-2.32-2.4-.49-.79-.69-.37-.48.19.4 1.06 1.82 1.91 1.55 2.56z" fill="url(#paint46_linear_2463_40753)"/><path d="M323.3 226.76c1.38.16 2.92.52 4.65 1.14 0 0 3.2.5 3.2.34 0 0 .5 2.34-2 6.6 0 0-3.18-1.73-5.68-1.86-2.53-.12 1.05-3.11 1.05-3.11l-1.22-3.11z" fill="url(#paint47_linear_2463_40753)"/><path d="M324.98 240.11c-.59-4.53 1.97-4.4 4.2-8.98.78-1.61.94-2.84 2.4-3.45 5.81-2.45 8.17 10.65 17.4 16.45 10.24 6.44 7.01 14.52 7.01 14.52s-.81-.26-4.68.82c-2.92.82-12.69 5.23-12.69 5.23s-.79-4.81-4.47-9.94c-3.68-5.14-8.68-10.91-9.17-14.65z" fill="url(#paint48_linear_2463_40753)"/><path d="M323.82 234.66c-3.66 6.96-9.75 10.63-11.31 12.22-.34.35-1.99.61-5.05 1.86-4.68 1.91-4.66 2.02-6.78 3.34-1.49.93-.97 2.57.14 3.57.17.15.61.76 1.3.75 4.25-.05 11.58-2.37 14.96-4.42 3.57-2.16 9.23-5.79 15.49-11.5 3.89-3.55-6.51-10.07-8.75-5.82z" fill="url(#paint49_linear_2463_40753)"/><path d="M321.72 219.32l-5.49-.15c.99-.52 3.31-.87 5.49.15z" fill="url(#paint50_linear_2463_40753)"/><path d="M317.55 223.86l1.93-1.42 1.9.99 3.01 2.37v.01c-2.61-2.04-4.96-2.38-6.84-1.95z" fill="url(#paint51_linear_2463_40753)"/><path d="M313.12 227.11l4.43-3.25c1.88-.42 4.24-.09 6.84 1.95l.11 3.31s.76-.28.39 1.07c-.22.81-.81 1.97-1.16 2.73-.32.7-1.34 1.93-2.06 2.1-2.94.7-8.55-7.91-8.55-7.91z" fill="url(#paint52_linear_2463_40753)"/><path d="M313.12 227.11l4.43-3.25c1.88-.42 4.24-.09 6.84 1.95l.11 3.31s.76-.28.39 1.07c-.22.81-.81 1.97-1.16 2.73-.32.7-1.34 1.93-2.06 2.1-2.94.7-8.55-7.91-8.55-7.91z" fill="url(#paint53_linear_2463_40753)"/><path d="M326.33 222.9c.22 1.19-.57 1.76.21 2.99.7 1.09.98 2.28.21 3.08-.01.01-1.43 2.19-2.45 1.66-.41-.21-2.03-.77-2.33-1.13 1.33-1.1.05-3.18-.8-2.78-.27.13-.54.45-.61.62-.14.37-.02.92-.02.92s-.58.2-.71.05c-.82-1-1.92-2.98-2.9-2.99-1.17-.01-1.57 2.13-3.89 1.93-.03 0-.54.04-.58.04-2.25-.23-3-3.64-1.22-5.05.39-.31.49.44 1.81-.68.85-.72 1.6-1.71 3.1-2.83 6.26-4.7 9.82 2.27 10.18 4.17z" fill="#1A1A1A"/><path d="M333.53 227.37s-4.57.22-5.51-.17c-.94-.39 1.45-5.59-4.34-9.77-5.78-4.18-12.26 4.74-12.26 4.74s10.73 2.92 12.38 6.93c1.65 4.01-2.11 5.87-2.11 5.87s3.19-.22 4.1-.28c.91-.06 1.82-.13 1.82-.13l5.92-7.19z" fill="url(#paint54_linear_2463_40753)"/><path d="M336.21 252.5c-1.55 0-3.11-.12-4.65-.38a.489.489 0 01-.4-.56c.04-.26.29-.44.56-.4 7.04 1.16 14.46-.47 20.37-4.48a.483.483 0 01.54.8c-4.82 3.28-10.62 5.02-16.42 5.02z" fill="url(#paint55_linear_2463_40753)"/><path d="M333.11 254.51a.48.48 0 01-.48-.44.49.49 0 01.44-.53c6.34-.58 12.17-5.55 16.42-9.18.2-.17.51-.15.68.05.17.2.15.51-.05.68-4.35 3.71-10.31 8.8-16.96 9.4-.02.02-.03.02-.05.02z" fill="url(#paint56_linear_2463_40753)"/><path d="M43.8 372.4c.01-.14.08-.28.21-.37 20.12-13.45 16.82-11.53 36.11-27.52 18.1-15.01 36.81-30.52 55.76-43.58a.48.48 0 11.55.79c-18.91 13.03-37.61 28.54-55.69 43.53-19.31 16.01-16.02 14.1-36.19 27.58a.483.483 0 01-.75-.43z" fill="url(#paint57_linear_2463_40753)"/><path d="M164.84 335.47c1.76 1.13 4.67 6.08 5.56 6.35.11.03 1.14-1.61 2.48-.45.58.5.4 2.08-.63 2.87-1.98 1.51-5.03 2.19-6.53-.2s-6.84-5.6-6.77-6.4c.08-.81 1.74-3.69 1.74-3.69s3.19.91 4.15 1.52z" fill="url(#paint58_linear_2463_40753)"/><path d="M158.83 337.69s.33-1.15 2.28-.95c1.96.2 5.7 5.86 6.75 7.09 1.05 1.23 3.24.96 4.12.45.88-.51-.09.6-2.29 1.71-2.2 1.11-4.1.55-4.55-.01-4.91-6.14-6.05-5.7-6.31-8.29z" fill="url(#paint59_linear_2463_40753)"/><path d="M143.72 310.71s19.82-6.63 24.72-5.72c4.9.91-.69 23.41-3.41 30.31 0 0-4.93.92-5.15.1-.22-.82 1.18-20.1 1.18-20.1l-20.61 13.47 3.27-18.06z" fill="url(#paint60_linear_2463_40753)"/><path d="M116.79 364.94l-3.98-3.08s-2.57 1.76-2.8 2.73c-.26 1.1.72 2.01 2.49 2.81 1.78.8 4.29-2.46 4.29-2.46z" fill="url(#paint61_linear_2463_40753)"/><path d="M112.73 368.25c-.07 2.09-2.86 7.11-2.64 8.02.03.11 1.96.16 1.65 1.91-.13.75-1.59 1.41-2.79.92-2.31-.93-4.45-3.22-3.15-5.72 1.3-2.5 1.34-8.74 2.07-9.08.73-.34 4.06-.38 4.06-.38s.84 3.19.8 4.33z" fill="url(#paint62_linear_2463_40753)"/><path d="M107.76 364.2s1.16-.31 1.98 1.48c.82 1.79-2.14 7.89-2.67 9.42-.53 1.53.82 3.28 1.7 3.78s-.56.23-2.64-1.1-2.56-3.25-2.31-3.93c2.81-7.34 1.85-8.11 3.94-9.65z" fill="url(#paint63_linear_2463_40753)"/><path d="M130.94 311.5s-1.74 2.42-.26 8.45c1.95 7.95 1.33 21.24-1.62 24.33-2.95 3.08-8.53 7.41-14.23 13.76-3.91 4.36-5.08 4.91-5.03 6.45.05 1.78 2.89 3.86 5.53 3.29 3.13-.67 21.38-16.24 24.86-19.89 3.48-3.65 7.63-27.64 7.63-27.64l-16.88-8.75z" fill="url(#paint64_linear_2463_40753)"/><path d="M192.6 291.84c-.26-.49-.28-1.09 1.19-1.72 1.27-.54 2.41-.84 3.17-1.33.14-.09.11-.31-.02-.42-.11-.1-.27-.14-.38-.04 0 0-3.03 1.19-3.15.91-.12-.27 2.84-2.32 2.84-2.32.12-.12.13-.32.02-.45a.351.351 0 00-.5-.04s-2.82 2.32-3.01 2.08c-.2-.23 2.06-2.55 2.06-2.55.12-.15.1-.37-.05-.49a.337.337 0 00-.45.02s-2.31 2.46-2.45 2.37c-.37-.26.98-2.04.98-2.04.09-.13.06-.32-.08-.41a.289.289 0 00-.37.03c-.42.4-.75 1.17-1.59 2.17-.73.87-.64.69-1.44 1.62-.81.93-2.8 2.35-2.8 2.35s-1.21 2.78-.79 3.16c.42.38 3.42-1.66 3.75-1.54.53.19 1.55.18 1.88.04.33-.14 1.58-.11 1.8-.1.73.05 1.41-.03 1.7.07.66.22.37-.32.14-.56-.56-.58-2.14-.23-2.45-.81z" fill="url(#paint65_linear_2463_40753)"/><path d="M159.23 282.27c7.31 2.5 13.82 6.22 15.79 7.08.43.19 1.97-.2 5.14-.22 4.83-.03 4.85.08 7.22.48 1.66.29 1.84 2 1.24 3.34-.09.2-.47 1.25-1.11 1.41-3.28.84-10.54 1.8-14.29 1.2-3.95-.63-7.26-3.07-15.29-4.69-7.16-1.42-1.52-9.56 1.3-8.6z" fill="url(#paint66_linear_2463_40753)"/><path d="M189.9 300.38c.15.22.41.36 1.53-.87 1.07-1.17 1.88-2.24 2.6-2.97.13-.13.3.01.33.22.03.18 0 .41-.13.5 0 0-2.34 2.93-2.17 3.21.17.27 3.18-2.15 3.18-2.15.15-.09.31-.01.37.19.07.23-.01.53-.18.65 0 0-3.14 2.26-3.04 2.62.1.36 3.01-1.2 3.01-1.2.17-.09.34.04.38.29.03.22-.06.45-.21.55 0 0-3.04 1.5-3.02 1.72.06.59 2.13-.03 2.13-.03.15-.05.28.08.3.29.01.18-.06.37-.18.45-.5.34-1.24.22-2.41.8-1.01.51-1.03.61-2.13 1.18-1.1.57-1.31.22-1.95.12-.81-.14-.64-.17-4.26-.04 0 0 3.74-4.15 3.99-4.5.25-.35.46-.81.54-1.11.27-.94 1.53-2.2 1.75-2.84.31-.87.59-.51.51.09-.14 1.12-1.34 2.26-.94 2.83z" fill="url(#paint67_linear_2463_40753)"/><path d="M162.72 282.15c-1.37.18-2.91.55-4.64 1.19 0 0-3.19.54-3.2.38 0 0-.48 2.34 2.07 6.58 0 0 3.16-1.77 5.66-1.92 2.53-.15-1.09-3.1-1.09-3.1l1.2-3.13z" fill="url(#paint68_linear_2463_40753)"/><path d="M161.19 295.52c.54-4.54-2.02-4.38-4.3-8.93-.8-1.6-.97-2.82-2.44-3.43-5.84-2.39-9.1 9.37-17.21 16.64-6.16 5.52-7.15 14.62-7.15 14.62s1.1-.29 4.99.75c2.93.78 12.75 5.09 12.75 5.09s.74-4.81 4.36-9.99c3.62-5.18 8.55-11.01 9-14.75z" fill="url(#paint69_linear_2463_40753)"/><path d="M160.96 289.88c5.06 6.02 11.78 8.32 13.64 9.53.41.27 2.07.17 5.33.74 4.98.88 4.98.98 7.34 1.82 1.66.59 1.5 2.3.62 3.52-.13.18-.44.87-1.12 1.01-4.17.85-11.82.15-15.56-1.13-3.94-1.35-10.24-3.69-17.58-7.95-4.55-2.63 4.24-11.21 7.33-7.54z" fill="url(#paint70_linear_2463_40753)"/><path d="M164.22 274.69l5.49-.21c-1-.51-3.32-.83-5.49.21z" fill="url(#paint71_linear_2463_40753)"/><path d="M168.44 279.18l-1.94-1.39-1.89 1.01-2.98 2.4v.01c2.57-2.07 4.92-2.43 6.81-2.03z" fill="url(#paint72_linear_2463_40753)"/><path d="M172.9 282.38l-4.46-3.2c-1.89-.4-4.24-.04-6.82 2.02l-.07 3.31s-.77-.27-.38 1.07c.23.81.84 1.96 1.19 2.72.33.7 1.36 1.91 2.08 2.08 2.95.68 8.46-8 8.46-8z" fill="url(#paint73_linear_2463_40753)"/><path d="M172.9 282.38l-4.46-3.2c-1.89-.4-4.24-.04-6.82 2.02l-.07 3.31s-.77-.27-.38 1.07c.23.81.84 1.96 1.19 2.72.33.7 1.36 1.91 2.08 2.08 2.95.68 8.46-8 8.46-8z" fill="url(#paint74_linear_2463_40753)"/><path d="M159.65 278.32c-.21 1.19.59 1.76-.17 2.99-.68 1.1-.96 2.29-.18 3.08.01.01 1.46 2.18 2.46 1.64.41-.22 2.03-.79 2.32-1.15-1.34-1.09-.08-3.18.77-2.79.27.13.55.44.61.61.14.37.03.92.03.92s.58.19.71.04c.81-1.01 1.88-3 2.87-3.03 1.17-.03 1.6 2.11 3.91 1.89.03 0 .54.04.58.03 2.25-.26 2.96-3.68 1.16-5.06-.39-.3-.49.44-1.82-.66-.86-.71-1.61-1.69-3.13-2.8-6.3-4.62-9.79 2.39-10.12 4.29z" fill="url(#paint75_linear_2463_40753)"/><path d="M152.5 282.88s4.57.17 5.51-.23c.94-.4-1.51-5.58 4.23-9.82s12.32 4.6 12.32 4.6-10.7 3.04-12.31 7.07c-1.61 4.02 2.18 5.85 2.18 5.85s-3.19-.18-4.1-.24c-.91-.05-1.82-.11-1.82-.11l-6.01-7.12z" fill="url(#paint76_linear_2463_40753)"/><path d="M139.62 304.47c3.26 3.66 7.97 6.02 12.89 6.23a.48.48 0 00.04-.96c-6.36-.27-12.38-4.36-14.98-10.18a.479.479 0 00-.64-.24c-.24.11-.35.4-.24.64a17.23 17.23 0 002.93 4.51z" fill="url(#paint77_linear_2463_40753)"/><path d="M133.6 304c.01.01.02.02.03.04 5.64 5.17 13.52 5.09 19.86 5.03.27 0 .48-.22.48-.49s-.22-.48-.49-.48c-6.17.06-13.84.13-19.2-4.78-.2-.18-.5-.17-.68.03-.17.18-.17.47 0 .65z" fill="url(#paint78_linear_2463_40753)"/><path d="M491.25 411.23c-16.2-17.04-24.7-26.59-39.01-44.61a.48.48 0 01.08-.68.48.48 0 01.68.08c14.28 17.99 22.65 27.39 38.83 44.42m-68.88-46.82s-.67.39-.82.48c-.15.08-4.36 1.3-4.58 1.41-.21.11-2.12 1.6-2.22 1.79-.1.19-.84 2.85-.84 2.85s.21.44.6.12c.31.1.41.07.59-.09.15-.14 1.35-1.74 1.35-1.74l1.09-.8.44.11-1.74 2.33s.03.33.34.26c.31-.08 2.28-2.16 2.28-2.16s1.84-.69 2.25-.87c.41-.18 1.34-.98 1.34-.98l1.26-.23-1.34-2.48z" fill="#0E1B33"/><path d="M440.79 341.75c-2.15 7.57-7.34 12.42-8.54 14.29-.26.41-1.82 1-4.56 2.86-4.19 2.84-4.14 2.94-5.95 4.67-1.27 1.22-.42 2.71.87 3.46.19.11.76.61 1.43.46 4.15-.93 10.84-4.71 13.73-7.41 3.04-2.85 7.83-7.57 12.78-14.45 3.08-4.28-8.45-8.5-9.76-3.88z" fill="url(#paint79_linear_2463_40753)"/><defs><linearGradient id="paint0_linear_2463_40753" x1="83.179" y1="699.291" x2="349.761" y2="120.652" gradientUnits="userSpaceOnUse"><stop stop-color="#77A7FF"/><stop offset="1" stop-color="#BDD4FF" stop-opacity="0"/></linearGradient><linearGradient id="paint1_linear_2463_40753" x1="277.5" y1="529.6" x2="277.5" y2="25.4" gradientUnits="userSpaceOnUse"><stop stop-color="#6DA5FF"/><stop offset=".712" stop-color="#E7EFFF"/></linearGradient><linearGradient id="paint2_linear_2463_40753" x1="319.903" y1="54.359" x2="414.223" y2="70.991" gradientUnits="userSpaceOnUse"><stop stop-color="#3684FF"/><stop offset=".366" stop-color="#6DA5FF"/><stop offset=".716" stop-color="#3684FF"/><stop offset=".79" stop-color="#3F89FF"/><stop offset=".909" stop-color="#5697FF"/><stop offset="1" stop-color="#6DA5FF"/></linearGradient><linearGradient id="paint3_linear_2463_40753" x1="266.7" y1="132.2" x2="317.6" y2="132.2" gradientUnits="userSpaceOnUse"><stop stop-color="#6DA5FF"/><stop offset="1" stop-color="#B8D3FF"/></linearGradient><linearGradient id="paint78_linear_2463_40753" x1="149.599" y1="312.709" x2="137.882" y2="299.55" gradientUnits="userSpaceOnUse"><stop stop-color="#233B67"/><stop offset="1" stop-color="#0E1B33"/></linearGradient><linearGradient id="paint5_linear_2463_40753" x1="503.2" y1="388.649" x2="94.9" y2="388.649" gradientUnits="userSpaceOnUse"><stop stop-color="#3684FF"/><stop offset=".999" stop-color="#6DA5FF"/></linearGradient><linearGradient id="paint6_linear_2463_40753" x1="424.1" y1="398.4" x2="424.1" y2="315.414" gradientUnits="userSpaceOnUse"><stop stop-color="#3684FF"/><stop offset=".999" stop-color="#6DA5FF"/></linearGradient><linearGradient id="paint7_linear_2463_40753" x1="361.4" y1="247.418" x2="361.4" y2="437.222" gradientUnits="userSpaceOnUse"><stop stop-color="#6DA5FF"/><stop offset="1" stop-color="#B8D3FF"/></linearGradient><linearGradient id="paint8_linear_2463_40753" x1="436.506" y1="379.494" x2="457.179" y2="427.484" gradientUnits="userSpaceOnUse"><stop stop-color="#6DA5FF"/><stop offset="1" stop-color="#B8D3FF"/></linearGradient><linearGradient id="paint9_linear_2463_40753" x1="318.876" y1="451.007" x2="339.226" y2="498.245" gradientUnits="userSpaceOnUse"><stop stop-color="#E4C2DB"/><stop offset=".395" stop-color="#4466EA"/></linearGradient><linearGradient id="paint10_linear_2463_40753" x1="230.109" y1="501.781" x2="239.37" y2="523.278" gradientUnits="userSpaceOnUse"><stop stop-color="#E4C2DB"/><stop offset=".695" stop-color="#4466EA"/></linearGradient><linearGradient id="paint11_linear_2463_40753" x1="28.66" y1="363.373" x2="153.358" y2="363.373" gradientUnits="userSpaceOnUse"><stop stop-color="#3684FF"/><stop offset=".999" stop-color="#6DA5FF"/></linearGradient><linearGradient id="paint12_linear_2463_40753" x1="76.75" y1="302.715" x2="76.75" y2="385.3" gradientUnits="userSpaceOnUse"><stop stop-color="#3684FF"/><stop offset=".999" stop-color="#6DA5FF"/></linearGradient><linearGradient id="paint13_linear_2463_40753" x1="221.7" y1="230.683" x2="221.7" y2="431.746" gradientUnits="userSpaceOnUse"><stop stop-color="#6DA5FF"/><stop offset="1" stop-color="#B8D3FF"/></linearGradient><linearGradient id="paint14_linear_2463_40753" x1="192.32" y1="326.728" x2="254.226" y2="470.428" gradientUnits="userSpaceOnUse"><stop stop-color="#6DA5FF"/><stop offset="1" stop-color="#B8D3FF"/></linearGradient><linearGradient id="paint15_linear_2463_40753" x1="266.275" y1="369.534" x2="312.089" y2="475.879" gradientUnits="userSpaceOnUse"><stop stop-color="#6DA5FF"/><stop offset="1" stop-color="#B8D3FF"/></linearGradient><linearGradient id="paint16_linear_2463_40753" x1="208.826" y1="329.522" x2="208.826" y2="529.5" gradientUnits="userSpaceOnUse"><stop stop-color="#3684FF"/><stop offset=".999" stop-color="#6DA5FF"/></linearGradient><linearGradient id="paint17_linear_2463_40753" x1="345.58" y1="305.12" x2="443.699" y2="305.12" gradientUnits="userSpaceOnUse"><stop stop-color="#233B67"/><stop offset="1" stop-color="#0E1B33"/></linearGradient><linearGradient id="paint18_linear_2463_40753" x1="409.3" y1="426.814" x2="424.231" y2="426.814" gradientUnits="userSpaceOnUse"><stop stop-color="#233B67"/><stop offset="1" stop-color="#0E1B33"/></linearGradient><linearGradient id="paint19_linear_2463_40753" x1="418" y1="424.5" x2="421.699" y2="426.379" gradientUnits="userSpaceOnUse"><stop offset="0" stop-color="#fff"/><stop offset=".353" stop-color="#FBFBFB"/><stop offset=".684" stop-color="#F0F0F1"/><stop offset=".837" stop-color="#E8E8E9"/></linearGradient><linearGradient id="paint20_linear_2463_40753" x1="409.6" y1="425.553" x2="424.364" y2="425.553" gradientUnits="userSpaceOnUse"><stop stop-color="#233B67"/><stop offset="1" stop-color="#0E1B33"/></linearGradient><linearGradient id="paint21_linear_2463_40753" x1="418.272" y1="421.348" x2="421.666" y2="422.268" gradientUnits="userSpaceOnUse"><stop stop-color="#F6CFBE"/><stop offset="1" stop-color="#FFE8E1"/></linearGradient><linearGradient id="paint22_linear_2463_40753" x1="448.025" y1="414.785" x2="450.765" y2="413.328" gradientUnits="userSpaceOnUse"><stop stop-color="#F6CFBE"/><stop offset="1" stop-color="#FFE8E1"/></linearGradient><linearGradient id="paint23_linear_2463_40753" x1="445.512" y1="420.707" x2="456.563" y2="420.707" gradientUnits="userSpaceOnUse"><stop stop-color="#233B67"/><stop offset="1" stop-color="#0E1B33"/></linearGradient><linearGradient id="paint24_linear_2463_40753" x1="447.308" y1="421.968" x2="456.956" y2="421.968" gradientUnits="userSpaceOnUse"><stop stop-color="#233B67"/><stop offset="1" stop-color="#0E1B33"/></linearGradient><linearGradient id="paint25_linear_2463_40753" x1="446.638" y1="350.146" x2="444.258" y2="394.18" gradientUnits="userSpaceOnUse"><stop stop-color="#305EB2"/><stop offset="1" stop-color="#233B67"/></linearGradient><linearGradient id="paint26_linear_2463_40753" x1="402.475" y1="379.987" x2="433.179" y2="397.838" gradientUnits="userSpaceOnUse"><stop stop-color="#305EB2"/><stop offset="1" stop-color="#233B67"/></linearGradient><linearGradient id="paint27_linear_2463_40753" x1="419.172" y1="323.867" x2="455.351" y2="364.807" gradientUnits="userSpaceOnUse"><stop stop-color="#305EB2"/><stop offset="1" stop-color="#233B67"/></linearGradient><linearGradient id="paint28_linear_2463_40753" x1="451.424" y1="319.721" x2="458.383" y2="326.668" gradientUnits="userSpaceOnUse"><stop offset=".144" stop-color="#EDF3FF"/><stop offset="1" stop-color="#F8F8FE"/></linearGradient><linearGradient id="paint29_linear_2463_40753" x1="453.313" y1="327.51" x2="442.656" y2="326.178" gradientUnits="userSpaceOnUse"><stop offset=".144" stop-color="#EDF3FF"/><stop offset="1" stop-color="#F8F8FE"/></linearGradient><linearGradient id="paint30_linear_2463_40753" x1="452.841" y1="326.754" x2="446.707" y2="330.053" gradientUnits="userSpaceOnUse"><stop stop-color="#F6CFBE"/><stop offset="1" stop-color="#FFE8E1"/></linearGradient><linearGradient id="paint31_linear_2463_40753" x1="447.511" y1="324.944" x2="461.212" y2="329.315" gradientUnits="userSpaceOnUse"><stop stop-color="#EBD2A2"/><stop offset="1" stop-color="#CDA683"/></linearGradient><linearGradient id="paint32_linear_2463_40753" x1="444.671" y1="307.505" x2="466.698" y2="357.503" gradientUnits="userSpaceOnUse"><stop stop-color="#305EB2"/><stop offset="1" stop-color="#233B67"/></linearGradient><linearGradient id="paint33_linear_2463_40753" x1="435.777" y1="359.015" x2="454.8" y2="359.015" gradientUnits="userSpaceOnUse"><stop stop-color="#233B67"/><stop offset="1" stop-color="#0E1B33"/></linearGradient><linearGradient id="paint34_linear_2463_40753" x1="436.357" y1="360.198" x2="453.977" y2="360.198" gradientUnits="userSpaceOnUse"><stop stop-color="#233B67"/><stop offset="1" stop-color="#0E1B33"/></linearGradient><linearGradient id="paint35_linear_2463_40753" x1="322.642" y1="314.921" x2="338.008" y2="314.921" gradientUnits="userSpaceOnUse"><stop stop-color="#233B67"/><stop offset="1" stop-color="#0E1B33"/></linearGradient><linearGradient id="paint36_linear_2463_40753" x1="331.193" y1="313.064" x2="335.102" y2="314.456" gradientUnits="userSpaceOnUse"><stop offset="0" stop-color="#fff"/><stop offset=".353" stop-color="#FBFBFB"/><stop offset=".684" stop-color="#F0F0F1"/><stop offset=".837" stop-color="#E8E8E9"/></linearGradient><linearGradient id="paint37_linear_2463_40753" x1="322.845" y1="313.516" x2="337.95" y2="313.516" gradientUnits="userSpaceOnUse"><stop stop-color="#233B67"/><stop offset="1" stop-color="#0E1B33"/></linearGradient><linearGradient id="paint38_linear_2463_40753" x1="331.061" y1="309.904" x2="334.545" y2="310.383" gradientUnits="userSpaceOnUse"><stop stop-color="#F6CFBE"/><stop offset="1" stop-color="#FFE8E1"/></linearGradient><linearGradient id="paint39_linear_2463_40753" x1="353" y1="303.439" x2="355.77" y2="302.039" gradientUnits="userSpaceOnUse"><stop stop-color="#F6CFBE"/><stop offset="1" stop-color="#FFE8E1"/></linearGradient><linearGradient id="paint40_linear_2463_40753" x1="350.243" y1="309.439" x2="361.493" y2="309.439" gradientUnits="userSpaceOnUse"><stop stop-color="#233B67"/><stop offset="1" stop-color="#0E1B33"/></linearGradient><linearGradient id="paint41_linear_2463_40753" x1="351.999" y1="310.743" x2="361.86" y2="310.743" gradientUnits="userSpaceOnUse"><stop stop-color="#233B67"/><stop offset="1" stop-color="#0E1B33"/></linearGradient><linearGradient id="paint42_linear_2463_40753" x1="346.346" y1="280.844" x2="377.963" y2="280.844" gradientUnits="userSpaceOnUse"><stop stop-color="#F64F64"/><stop offset="1" stop-color="#FFE4E8"/></linearGradient><linearGradient id="paint43_linear_2463_40753" x1="339.359" y1="283.8" x2="296.619" y2="278.034" gradientUnits="userSpaceOnUse"><stop offset=".101" stop-color="#F64F64"/><stop offset=".162" stop-color="#F76578"/><stop offset=".285" stop-color="#FA8C9A"/><stop offset=".412" stop-color="#FCACB6"/><stop offset=".544" stop-color="#FDC5CC"/><stop offset=".681" stop-color="#FED6DC"/><stop offset=".828" stop-color="#FFE1E5"/><stop offset="1" stop-color="#FFE4E8"/></linearGradient><linearGradient id="paint44_linear_2463_40753" x1="289.131" y1="240.752" x2="301.503" y2="240.752" gradientUnits="userSpaceOnUse"><stop stop-color="#233B67"/><stop offset="1" stop-color="#0E1B33"/></linearGradient><linearGradient id="paint45_linear_2463_40753" x1="302.314" y1="230.778" x2="473.922" y2="329.222" gradientUnits="userSpaceOnUse"><stop stop-color="#F64F64"/><stop offset="1" stop-color="#FFE4E8"/></linearGradient><linearGradient id="paint46_linear_2463_40753" x1="291.781" y1="252.229" x2="304.64" y2="252.229" gradientUnits="userSpaceOnUse"><stop stop-color="#233B67"/><stop offset="1" stop-color="#0E1B33"/></linearGradient><linearGradient id="paint47_linear_2463_40753" x1="325.323" y1="233.809" x2="326.59" y2="230.302" gradientUnits="userSpaceOnUse"><stop stop-color="#F6CFBE"/><stop offset="1" stop-color="#FFE8E1"/></linearGradient><linearGradient id="paint48_linear_2463_40753" x1="329.977" y1="250.126" x2="291.47" y2="269.547" gradientUnits="userSpaceOnUse"><stop stop-color="#F64F64"/><stop offset="1" stop-color="#FFE4E8"/></linearGradient><linearGradient id="paint49_linear_2463_40753" x1="325.213" y1="240.681" x2="286.706" y2="260.102" gradientUnits="userSpaceOnUse"><stop stop-color="#F64F64"/><stop offset="1" stop-color="#FFE4E8"/></linearGradient><linearGradient id="paint50_linear_2463_40753" x1="315.924" y1="219.477" x2="325.733" y2="218.79" gradientUnits="userSpaceOnUse"><stop offset=".144" stop-color="#EDF3FF"/><stop offset="1" stop-color="#F8F8FE"/></linearGradient><linearGradient id="paint51_linear_2463_40753" x1="323.118" y1="222.885" x2="315.114" y2="230.047" gradientUnits="userSpaceOnUse"><stop offset=".144" stop-color="#EDF3FF"/><stop offset="1" stop-color="#F8F8FE"/></linearGradient><linearGradient id="paint52_linear_2463_40753" x1="315.268" y1="232.477" x2="321.035" y2="228.517" gradientUnits="userSpaceOnUse"><stop offset=".006" stop-color="#F6CFBE"/><stop offset="1" stop-color="#BF8E80"/></linearGradient><linearGradient id="paint53_linear_2463_40753" x1="318.859" y1="225.924" x2="319.456" y2="232.863" gradientUnits="userSpaceOnUse"><stop stop-color="#F6CFBE"/><stop offset="1" stop-color="#FFE8E1"/></linearGradient><linearGradient id="paint54_linear_2463_40753" x1="318.673" y1="227.715" x2="280.166" y2="247.136" gradientUnits="userSpaceOnUse"><stop stop-color="#F64F64"/><stop offset="1" stop-color="#FFE4E8"/></linearGradient><linearGradient id="paint55_linear_2463_40753" x1="331.154" y1="249.549" x2="352.842" y2="249.549" gradientUnits="userSpaceOnUse"><stop stop-color="#233B67"/><stop offset="1" stop-color="#0E1B33"/></linearGradient><linearGradient id="paint56_linear_2463_40753" x1="332.628" y1="249.38" x2="350.288" y2="249.38" gradientUnits="userSpaceOnUse"><stop stop-color="#233B67"/><stop offset="1" stop-color="#0E1B33"/></linearGradient><linearGradient id="paint57_linear_2463_40753" x1="92.862" y1="297.897" x2="87.573" y2="375.847" gradientUnits="userSpaceOnUse"><stop stop-color="#233B67"/><stop offset="1" stop-color="#0E1B33"/></linearGradient><linearGradient id="paint58_linear_2463_40753" x1="164.156" y1="341.192" x2="175.72" y2="330.792" gradientUnits="userSpaceOnUse"><stop stop-color="#233B67"/><stop offset="1" stop-color="#0E1B33"/></linearGradient><linearGradient id="paint59_linear_2463_40753" x1="169.821" y1="338.958" x2="161.119" y2="343.122" gradientUnits="userSpaceOnUse"><stop stop-color="#233B67"/><stop offset="1" stop-color="#0E1B33"/></linearGradient><linearGradient id="paint60_linear_2463_40753" x1="156.774" y1="294.735" x2="155.341" y2="321.255" gradientUnits="userSpaceOnUse"><stop stop-color="#FFE2D9"/><stop offset="1" stop-color="#FF7E23"/></linearGradient><linearGradient id="paint61_linear_2463_40753" x1="115.941" y1="366.881" x2="112.997" y2="364.957" gradientUnits="userSpaceOnUse"><stop stop-color="#F6CFBE"/><stop offset="1" stop-color="#FFE8E1"/></linearGradient><linearGradient id="paint62_linear_2463_40753" x1="114.432" y1="374.299" x2="105.252" y2="368.145" gradientUnits="userSpaceOnUse"><stop stop-color="#233B67"/><stop offset="1" stop-color="#0E1B33"/></linearGradient><linearGradient id="paint63_linear_2463_40753" x1="112.237" y1="374.346" x2="104.223" y2="368.973" gradientUnits="userSpaceOnUse"><stop stop-color="#233B67"/><stop offset="1" stop-color="#0E1B33"/></linearGradient><linearGradient id="paint64_linear_2463_40753" x1="153.058" y1="354.525" x2="127.335" y2="342.191" gradientUnits="userSpaceOnUse"><stop stop-color="#FFE2D9"/><stop offset="1" stop-color="#FF7E23"/></linearGradient><linearGradient id="paint65_linear_2463_40753" x1="192.691" y1="294.405" x2="189.355" y2="286.783" gradientUnits="userSpaceOnUse"><stop stop-color="#233B67"/><stop offset="1" stop-color="#0E1B33"/></linearGradient><linearGradient id="paint66_linear_2463_40753" x1="156.111" y1="281.013" x2="166.469" y2="286.872" gradientUnits="userSpaceOnUse"><stop stop-color="#FFE2D9"/><stop offset="1" stop-color="#FF7E23"/></linearGradient><linearGradient id="paint67_linear_2463_40753" x1="191.346" y1="305.463" x2="187.975" y2="298.19" gradientUnits="userSpaceOnUse"><stop stop-color="#233B67"/><stop offset="1" stop-color="#0E1B33"/></linearGradient><linearGradient id="paint68_linear_2463_40753" x1="160.803" y1="289.223" x2="159.498" y2="285.731" gradientUnits="userSpaceOnUse"><stop stop-color="#F6CFBE"/><stop offset="1" stop-color="#FFE8E1"/></linearGradient><linearGradient id="paint69_linear_2463_40753" x1="172.769" y1="313.414" x2="147.045" y2="301.081" gradientUnits="userSpaceOnUse"><stop stop-color="#FFE2D9"/><stop offset="1" stop-color="#FF7E23"/></linearGradient><linearGradient id="paint70_linear_2463_40753" x1="187.407" y1="307.984" x2="152.939" y2="291.458" gradientUnits="userSpaceOnUse"><stop stop-color="#FFE2D9"/><stop offset="1" stop-color="#FF7E23"/></linearGradient><linearGradient id="paint71_linear_2463_40753" x1="169.951" y1="274.617" x2="160.135" y2="274.039" gradientUnits="userSpaceOnUse"><stop offset=".144" stop-color="#EDF3FF"/><stop offset="1" stop-color="#F8F8FE"/></linearGradient><linearGradient id="paint72_linear_2463_40753" x1="162.688" y1="278.285" x2="170.77" y2="285.359" gradientUnits="userSpaceOnUse"><stop offset=".144" stop-color="#EDF3FF"/><stop offset="1" stop-color="#F8F8FE"/></linearGradient><linearGradient id="paint73_linear_2463_40753" x1="170.835" y1="287.769" x2="165.025" y2="283.874" gradientUnits="userSpaceOnUse"><stop offset=".006" stop-color="#F6CFBE"/><stop offset="1" stop-color="#BF8E80"/></linearGradient><linearGradient id="paint74_linear_2463_40753" x1="167.174" y1="281.278" x2="166.654" y2="288.223" gradientUnits="userSpaceOnUse"><stop stop-color="#F6CFBE"/><stop offset="1" stop-color="#FFE8E1"/></linearGradient><linearGradient id="paint75_linear_2463_40753" x1="170.995" y1="285.411" x2="161.431" y2="274.671" gradientUnits="userSpaceOnUse"><stop stop-color="#F8F8FE"/><stop offset="1" stop-color="#EDF3FF"/></linearGradient><linearGradient id="paint76_linear_2463_40753" x1="183.609" y1="290.805" x2="157.885" y2="278.471" gradientUnits="userSpaceOnUse"><stop stop-color="#FFE2D9"/><stop offset="1" stop-color="#FF7E23"/></linearGradient><linearGradient id="paint77_linear_2463_40753" x1="150.868" y1="312.355" x2="138.217" y2="298.148" gradientUnits="userSpaceOnUse"><stop stop-color="#233B67"/><stop offset="1" stop-color="#0E1B33"/></linearGradient><linearGradient id="paint79_linear_2463_40753" x1="423.978" y1="363.89" x2="465.34" y2="328.198" gradientUnits="userSpaceOnUse"><stop stop-color="#305EB2"/><stop offset="1" stop-color="#233B67"/></linearGradient><radialGradient id="paint4_radial_2463_40753" cx="0" cy="0" r="1" gradientUnits="userSpaceOnUse" gradientTransform="matrix(4.43315 0 0 4.43314 316.337 8.426)"><stop stop-color="#B8D3FF"/><stop offset="1" stop-color="#6DA5FF"/></radialGradient></defs></svg>