<svg width="555" height="555" viewBox="0 0 555 555" fill="none" xmlns="http://www.w3.org/2000/svg"><g clip-path="url(#clip0_2464_40949)"><path d="M414.49 354.989c42.865 0 77.614-34.749 77.614-77.614s-34.749-77.614-77.614-77.614-77.614 34.749-77.614 77.614 34.749 77.614 77.614 77.614z" fill="url(#paint0_radial_2464_40949)"/><path d="M442.054 320.096c22.031 0 39.89-17.859 39.89-39.89 0-22.03-17.859-39.889-39.89-39.889-22.03 0-39.889 17.859-39.889 39.889 0 22.031 17.859 39.89 39.889 39.89z" fill="url(#paint1_radial_2464_40949)"/><path d="M434.976 326.758c22.03 0 39.889-17.859 39.889-39.889 0-22.031-17.859-39.89-39.889-39.89s-39.89 17.859-39.89 39.89c0 22.03 17.86 39.889 39.89 39.889z" fill="url(#paint2_radial_2464_40949)"/><path opacity=".37" d="M275.085 543.944c88.076 0 159.475-11.26 159.475-25.15 0-13.89-71.399-25.149-159.475-25.149-88.075 0-159.475 11.259-159.475 25.149s71.4 25.15 159.475 25.15z" fill="url(#paint3_radial_2464_40949)"/><path opacity=".37" d="M277.5 555c153.258 0 277.499-20.763 277.499-46.375S430.758 462.25 277.5 462.25C124.241 462.25 0 483.013 0 508.625S124.241 555 277.5 555z" fill="url(#paint4_radial_2464_40949)"/><path d="M273.586 515.713c118.476 0 214.521-96.044 214.521-214.521 0-118.476-96.045-214.52-214.521-214.52-118.477 0-214.52 96.044-214.52 214.52 0 118.477 96.043 214.521 214.52 214.521z" fill="url(#paint5_linear_2464_40949)"/><path d="M471.118 301.442c-.083 55.879-23.317 106.344-60.709 142.237-10.243 9.826-21.485 18.57-33.643 25.982-10.327 6.329-21.319 11.742-32.811 16.156-9.91 3.83-20.237 6.828-30.896 8.993-12.825 2.582-26.066 3.914-39.723 3.914-20.653 0-40.472-3.164-59.21-9.077a194.826 194.826 0 01-33.477-14.073c-10.659-5.663-20.819-12.325-30.146-19.82a196.633 196.633 0 01-32.811-33.228c-26.149-33.56-41.638-75.698-41.638-121.5 0-22.985 3.997-45.136 11.242-65.622 2.665-7.412 5.663-14.657 9.16-21.652a230.338 230.338 0 014.081-7.828c.666-1.249 1.332-2.499 2.082-3.664 13.574-23.318 31.728-43.637 53.297-59.626 11.492-8.495 23.9-15.823 37.058-21.736.833-.333 1.666-.749 2.498-1.082l2.998-1.249c1.083-.417 2.249-.916 3.331-1.333 2.082-.833 4.247-1.582 6.329-2.332 1.666-.583 3.331-1.165 4.997-1.665.333-.083.749-.25 1.083-.333 18.737-5.913 38.806-9.077 59.459-9.077 16.072 0 31.728 1.998 46.718 5.579 7.745 1.832 15.24 4.164 22.568 6.912 10.826 4.081 21.152 8.994 30.979 14.823 16.572 9.744 31.562 21.902 44.47 35.893.583.666 1.166 1.332 1.749 1.915.749.833 1.499 1.749 2.248 2.582a276.45 276.45 0 016.329 7.578l.25.25c.083.083.167.249.25.333 1.582 2.082 3.164 4.163 4.663 6.245.25.333.5.667.75 1.083.999 1.332 1.915 2.748 2.831 4.164 21.402 31.562 33.727 69.453 33.644 110.258z" fill="url(#paint6_linear_2464_40949)"/><path d="M279.748 221.163c66.689 0 120.752-54.062 120.752-120.751 0-66.689-54.063-120.75-120.752-120.75s-120.751 54.061-120.751 120.75 54.062 120.751 120.751 120.751z" fill="url(#paint7_radial_2464_40949)"/><path d="M366.773 220.997c.083-.25.249-.5.333-.666-.25.916-.583 2.081-.667 2.331.167-.583.25-1.082.334-1.665z" fill="url(#paint8_linear_2464_40949)"/><path d="M367.106 220.247c.166-.582.333-1.165.333-1.332 0 .5-.167.916-.333 1.332z" fill="url(#paint9_linear_2464_40949)"/><path d="M406.828 555c66.689 0 120.751-54.062 120.751-120.751 0-66.689-54.062-120.751-120.751-120.751-66.689 0-120.752 54.062-120.752 120.751 0 66.689 54.063 120.751 120.752 120.751z" fill="url(#paint10_radial_2464_40949)"/><path d="M120.749 399.375c66.689 0 120.752-54.062 120.752-120.751 0-66.689-54.063-120.751-120.752-120.751S-.001 211.935-.001 278.624c0 66.689 54.061 120.751 120.75 120.751z" fill="url(#paint11_radial_2464_40949)"/><path d="M324.135 5.477H223.953c-10.409 0-18.904 8.494-18.904 18.904v101.014c0 10.41 8.495 18.904 18.904 18.904h9.327l-.999 14.907c-.083 1.665 1.915 2.581 3.081 1.415l16.572-16.322h44.387l21.651 36.892c1.166 1.165 3.165.249 3.082-1.416l-.667-35.476h3.831c10.41 0 18.904-8.494 18.904-18.904V24.381c-.083-10.41-8.494-18.904-18.987-18.904z" fill="url(#paint12_linear_2464_40949)"/><path fill-rule="evenodd" clip-rule="evenodd" d="M239.609 104.326c-5.246-6.995-8.327-15.74-8.494-25.15-.25-23.733 18.737-43.22 42.388-43.553 23.734-.25 43.137 18.737 43.47 42.471.083 9.41-2.831 18.238-7.911 25.316L288.076 70.1l-1.915 3.414 2.165 9.327-14.49-24.15-8.578 14.906 2.166 9.41-7.579-12.658-20.236 33.977z" fill="url(#paint13_linear_2464_40949)"/><path d="M414.99 351.658s-.666 1.915-1.666 5.246c-1.832 5.497-4.913 14.99-8.411 26.066 0 0-13.99 69.203-13.823 77.031 0 0-14.657 12.575-43.721 24.566 2.998-27.314 11.992-116.087 13.991-132.243.416-3.414.666-5.413.666-5.413l48.051 4.331 4.913.416z" fill="url(#paint14_linear_2464_40949)"/><path d="M379.014 193.932s-11.159 1.582-15.239 9.993c-4.081 8.411-8.744 19.737-18.321 48.134-4.331 12.825 18.571 14.49 18.571 14.49s5.413-56.794 7.494-60.875c2.082-3.997 7.495-11.742 7.495-11.742z" fill="url(#paint15_radial_2464_40949)"/><path d="M327.883 233.738s-13.325 1.666-16.656 5.83c-.25.333-.166.666.167.916.916.499 3.164 1.332 4.996 1.082 4.83-.666 11.742-3.664 11.493-7.078v-.75z" fill="url(#paint16_radial_2464_40949)"/><path d="M317.39 218.082l3.247 8.911s-3.497.333-3.83 0c-.25-.333-5.746-7.245-5.746-7.245l6.329-1.666z" fill="url(#paint17_linear_2464_40949)"/><path d="M329.798 226.41l-7.412.583c-1.166.083-2.165-.583-2.581-1.666l-9.494-27.564c-.666-1.666.084-3.248 1.999-3.331l7.412-.583c1.165-.084 2.165.583 2.581 1.665l9.66 27.565c.583 1.582-.499 3.248-2.165 3.331z" fill="url(#paint18_linear_2464_40949)"/><path d="M326.55 227.742l-4.414 1.333c-.999.083-2.498-4.164-2.831-5.08l-9.16-26.482c-.25-.583.249-1.249.832-1.333l7.412-.582c.999-.084 1.999.582 2.332 1.499l9.576 27.647c.583 1.416-2.248 2.915-3.747 2.998z" fill="url(#paint19_linear_2464_40949)"/><path d="M319.555 202.843s1.666 1.332 1.249 3.164c-.416 1.832-5.662 6.579-5.746 7.662-.083 1.082-4.83 4.58-4.83 4.58s-.916-2.249 0-3.914c.916-1.749.167-4.497 2.665-6.829s6.163-5.246 6.662-4.663z" fill="url(#paint20_linear_2464_40949)"/><path d="M316.307 242.232c-.416-.083-2.665-.499-2.914-3.664-.167-3.164-1.833-9.576-3.248-12.658-1.416-3.081-2.415-4.413 0-7.245 0 0 .749-4.83 5.08-5.996 4.33-1.249 7.578-2.165 8.161-2.248.583-.083 4.663-.75 5.329.499.667 1.25.833 3.665-2.914 4.664-3.748.999-7.079 1.665-7.828 2.082-.75.5-2.332 1.665-2.665 2.665l.583.416s1.832-1.582 4.164-1.915c2.331-.333 8.91-1.416 9.077-1.416.166 0 4.913-.666 4.913 1.582 0 2.249-1.082 2.832-4.747 3.415-3.664.583-7.495 1.249-8.494 1.832-.999.583-1.166 1.166-1.166 1.166l1.166.916s4.997-1.083 5.746-1c.75.084 5.58-1.832 7.412-1.748 1.832.083 2.332 1.998.749 3.164-1.582 1.166-4.413 2.415-6.662 2.998-2.248.583-2.914.583-2.914.583s-.5 1.749-.25 2.582c.166.832 1.166 4.413 1.166 4.413s-5.33 5.58-9.744 4.913z" fill="url(#paint21_linear_2464_40949)"/><path d="M324.885 208.256c9.336 0 16.905-7.569 16.905-16.906 0-9.336-7.569-16.905-16.905-16.905-9.337 0-16.906 7.569-16.906 16.905 0 9.337 7.569 16.906 16.906 16.906z" fill="url(#paint22_radial_2464_40949)"/><path d="M362.026 266.299s-15.989-13.657-22.735-19.986c-1.249-1.166-3.164-2.998-4.163-4.081-6.08-6.578-7.246-8.577-7.246-8.577s-6.995 8.161-16.322 6.496c-.333-.084-.333-.084-.499-.25 0 0 23.4 50.132 39.056 49.549 15.573-.499 20.32-22.235 20.32-22.235l-8.411-.916z" fill="url(#paint23_radial_2464_40949)"/><path d="M434.143 139.386s5.663-11.243 23.235-.75c17.571 10.493 15.489 31.562 17.821 64.373 2.332 32.811 14.24 32.728 4.414 27.731-22.402-11.325-25.4-35.226-23.734-25.649l1.665 9.577s-51.548-40.306-23.401-75.282z" fill="url(#paint24_linear_2464_40949)"/><path d="M438.724 146.131a7.911 7.911 0 000-15.822 7.911 7.911 0 100 15.822z" fill="url(#paint25_linear_2464_40949)"/><path d="M430.896 156.291s-3.748 6.829-5.413 7.412c-1.666.583 1.166-12.492 1.582-12.409.333.084 3.831 4.997 3.831 4.997z" fill="url(#paint26_radial_2464_40949)"/><path d="M399.001 171.697c.249-5.746 5.496-5.912 10.492-4.83 4.997-1.082 14.491-12.491 13.908.416-.667 13.158 1.499 19.321 1.499 19.321-4.83 4.497-11.992 7.328-18.821 7.078-6.745.333-9.493-2.748-9.493-6.246.083 0 2.082-4.913 2.415-15.739z" fill="url(#paint27_linear_2464_40949)"/><path d="M427.148 157.54s-.333 3.664-1.749 7.995c-1.415 4.33-8.744 7.661-20.486 10.742-23.65 6.246-20.069-47.967-18.237-54.796 1.832-6.828 29.896-8.66 37.058-1.415 7.162 7.245 3.914 25.815 3.914 25.815s1.749-4.33 5.829-3.164c4.247 1.249-.749 18.404-6.329 14.823z" fill="url(#paint28_linear_2464_40949)"/><path d="M413.408 104.909c30.562 3.331 29.063 27.815 26.148 39.307-2.831 11.242-13.324 19.736-13.324 19.736-.083-.416.999-6.495.999-6.495.75.25 1.583.916 2.915-.333 2.498-2.415 3.248-5.247 3.581-7.162 1.332-6.163-1.416-7.662-2.498-7.412-1.916.417-3.248 2.915-3.498 3.165-.166.25-1.166.499-1.416-.75-2.165-11.242-4.496-18.071-14.989-20.402-7.412-1.583-10.327-4.914-10.327-4.914-.333-.666-.249-.749-.416-1.582-.083.333-.167.666-.333.999-.416.75-1.083 1.249-1.916 1.583-.999.416-2.914 1.082-5.746 1.582-1.915.333-4.746 1.499-5.662 3.581-1.416 3.081-1.416 11.992-1.416 11.992-3.914-8.578 1.915-34.477 27.898-32.895z" fill="url(#paint29_linear_2464_40949)"/><path d="M453.047 383.886c-.25 3.414-9.077 19.404-18.987 32.478-12.741 16.655-27.231 30.729-27.231 30.729-.833-17.238-1.499-44.137-1.916-64.123-.249-13.657-.416-24.15-.499-25.899v-.25l5.662-5.579 26.316-25.816 6.662-6.579s5.33 0 8.078 9.577c.999 3.497 1.665 8.161 1.582 14.656v8.245c0 2.498.083 5.163.167 7.994v3.331c0 1.333.083 2.665.083 4.081v3.581c.167 9.077.749 5.33.083 13.574z" fill="url(#paint30_linear_2464_40949)"/><path d="M392.672 187.936s4.58 2.498 7.911 3.748c4.081 1.499 12.491 1.165 24.483-6.663 0 0 22.235 4.497 31.479 11.159 0 0 11.409 8.578 12.991 20.82 2.248 17.654-19.57 41.555-18.154 64.872 1.749 28.481 3.248 68.037 3.248 68.037s-10.993 4.664-33.977 6.496c-31.063 2.581-50.966-2.915-63.957-4.83-.999-.167-1.749-1.083-1.665-2.082.666-7.162 3.247-34.393 4.58-59.043 1.332-24.067 3.747-53.714 4.83-62.541 3.331-28.731-1.832-30.313 28.231-39.973z" fill="url(#paint31_radial_2464_40949)"/><path d="M404.414 192.266l5.579 8.328s22.235-10.16 18.404-15.573c-2.914-4.08-4.663-4.247-4.663-4.247s.833 3.914-2.415 5.83c-6.163 3.497-16.905 5.662-16.905 5.662z" fill="url(#paint32_linear_2464_40949)"/><path d="M401.333 191.85l-5.996 6.746s-5.58-4.831-2.582-9.327c2.998-4.414 4.497-5.164 4.497-5.164s-.75 4.081.999 5.913c1.083 1.249 2.249 1.582 3.082 1.832z" fill="url(#paint33_linear_2464_40949)"/><path d="M445.636 261.969l5.579 17.488v1.915l2.165 41.472 1.166 28.148-22.568 4.164 13.658-93.187z" fill="url(#paint34_linear_2464_40949)"/><path d="M363.525 235.987c-.083.499-3.664 49.716-3.664 49.716s-3.914 3.331-8.161 3.747c-7.079.75-12.742-5.912-12.742-5.912l24.567-47.551z" fill="url(#paint35_linear_2464_40949)"/><path d="M433.311 363.567c1.832 5.496 15.739 20.819 15.739 20.819s1.749-4.414 1.249-9.327l-16.988-11.492z" fill="#3D4B74"/><path d="M451.049 369.479c-.667-.416-1.999-1.915-2.582-2.415-2.665-2.165-10.16-8.411-11.076-9.993-1.166-1.999 7.245-1.416 10.576 1.166 3.331 2.581 6.663 12.658 6.663 12.658l-3.581-1.416z" fill="#E1626B"/><path d="M443.803 353.657s-7.994 9.41-10.243 10.659l2.665 4.497 2.332-.916-1.249 2.415s6.412 8.661 8.744 10.826c0 0 7.328-8.161 8.078-16.655.749-8.495-10.327-10.826-10.327-10.826z" fill="url(#paint36_linear_2464_40949)"/><path d="M467.704 210.421c6.329 16.738 19.403 66.455 19.653 89.106.167 14.157-16.156 50.382-31.895 70.868-.499.666-1.499.583-1.749-.166-2.248-5.996-10.159-10.91-15.323-12.908-.333-.083-.582-.25-.916-.333-.749-.25-.166-1.499.417-1.999 2.415-2.082 7.078-14.24 12.325-24.733 4.497-8.911 6.579-16.156 7.744-21.652.75-3.498.417-7.079-.832-10.493-.084-.166-.084-.25-.167-.416l-11.325-35.809 22.068-51.465z" fill="url(#paint37_radial_2464_40949)"/><path d="M451.132 366.065s23.484-43.804 15.239-59.793c0 0-7.661-4.58-7.994-1.249-.583 6.829-4.164 15.989-6.746 21.985-5.079 12.158-11.825 25.649-13.823 27.898 0 0-1.083.916-.75 1.665.167.5 1.249.667 2.249 1.083 7.494 3.164 11.825 8.411 11.825 8.411z" fill="url(#paint38_linear_2464_40949)"/><path d="M198.054 187.436s12.658 14.657 17.988 31.979c5.33 17.321 15.656 47.8 15.656 47.8l-41.555 9.494 7.911-89.273z" fill="url(#paint39_linear_2464_40949)"/><path d="M147.172 348.66s29.48 104.762 29.23 117.587c0 1.832-.083 4.163-.083 6.995 0 0 12.242 6.495 16.489 8.327 5.163 2.249 21.069 8.078 21.069 8.078.583-13.574 1.082-24.317 1.332-26.565.5-4.913-9.66-121.75-9.66-121.75l-58.377 7.328z" fill="url(#paint40_linear_2464_40949)"/><path d="M118.442 315.016s-10.16.083-9.91 24.817c.166 12.907-1 37.224.416 55.462.417 5.496 1.083 11.492 1.749 17.571 0 0 10.243 14.157 19.57 24.15 10.326 11.076 24.65 21.985 24.65 21.985 2.998-24.483 10.743-137.989 10.743-137.989l-47.218-5.996z" fill="url(#paint41_linear_2464_40949)"/><path d="M200.886 201.593c-.084-10.076-.334-16.239-11.659-18.737l-22.068-4.747c0 6.413-4.497 4.747-10.91 4.747l-2.415.916c-6.412 0-14.323 1-14.323-5.33h-1.416l-20.986 5.164c-8.66 1.665-20.569 5.079-25.732 12.824-5.163 7.828-8.994 72.617-8.994 79.113 0 6.496 6.745 12.658 19.154 16.322l4.996 10.41-1.499 49.549s22.568 14.491 76.115 5.663c21.819-3.581 29.48-9.577 29.48-9.577l-4.58-51.881c.083-.083-4.497-35.309-5.163-94.436z" fill="url(#paint42_linear_2464_40949)"/><path d="M209.546 205.091s-9.077 12.492-9.243 17.238c-.167 4.747 8.577-5.662 11.075-8.577 0 0-.999 3.081 4.747 5.663 5.663 2.581 7.911 2.415 9.244.666 1.332-1.749 1.332-2.748 3.581-2.249.583.167 1.832 3.415 3.831 10.077 5.413-.999 10.409-3.498 14.573-7.162l.666-.583c-3.164-5.163-5.246-8.078-6.662-8.827-5.33-2.915-14.99-8.744-23.401-10.743-6.245-1.499-8.411 4.497-8.411 4.497z" fill="url(#paint43_linear_2464_40949)"/><path d="M165.41 283.288l88.939-4.164c1.583-.083 2.915-1.083 3.331-2.665l14.99-54.879c.666-2.332-1.166-4.581-3.581-4.497l-87.94 3.248c-1.582.083-2.915 1.082-3.331 2.664l-14.99 54.88c-.666 2.248.167 5.496 2.582 5.413z" fill="url(#paint44_linear_2464_40949)"/><path d="M168.241 283.204l86.441-3.164c1.583-.083 2.915-1.083 3.331-2.665l14.657-54.879c.583-2.332-1.166-4.581-3.581-4.497l-86.441 3.164c-1.582.084-2.915 1.083-3.331 2.665l-14.657 54.879c-.583 2.332 1.249 4.581 3.581 4.497z" fill="url(#paint45_radial_2464_40949)"/><path d="M167.325 286.785l88.856-3.248c.333 0 .666-.333.666-.666l-.083-2.248c0-.333-.333-.666-.666-.666l-88.856 3.247.083 3.581z" fill="#BDD4FF"/><path d="M131.183 284.537c-.5 0-.916.333-.916.749l.083 2.165c0 .417.417.667 1 .667l35.975-1.333-.166-3.581" fill="url(#paint46_linear_2464_40949)"/><path d="M227.151 252.611c1.143-4.122-.194-8.091-2.986-8.865-2.792-.775-5.982 1.939-7.125 6.06-1.144 4.122.193 8.091 2.985 8.865 2.792.775 5.982-1.938 7.126-6.06z" fill="#fff"/><path d="M205.798 281.288s4.247-.333 2.415 2.082c-1.249 1.666-5.746 4.081-8.244 4.664-2.415.583 5.829-6.746 5.829-6.746z" fill="url(#paint47_linear_2464_40949)"/><path d="M165.995 304c1.834-6 1.001-23.5-2.999-21.5-5.815 2.908.166 13.167 2.999 21.5z" fill="#6199FF"/><path d="M177.317 296.528c3.082-.083 14.74-3.331 18.321-4.664 3.498-1.332 7.828-4.413 10.66-10.159.499-1.083 1.832-2.915 1.582-3.581-.416-1.416-2.582-1.249-3.581-.5 1.083-.916 2.498-1.998 2.165-2.415-1.499-1.832-4.497-.5-5.663.333.5-.583 1.333-1.332 1.083-1.749-.416-.666-2.498-.749-4.414.167-1.582.749-2.665 1.999-3.747 4.081-.999 1.915-3.664 4.58-4.164 4.996-.749.666-5.829 2.748-10.659 2.332-8.161.333-16.822.833-16.822.833l-.417 1.415c-1.415 4.83-1.665 7.912-.832 12.575.083-.083 8.993-3.581 16.488-3.664z" fill="url(#paint48_linear_2464_40949)"/><path d="M165.326 286.118c4.746.167 8.827.667 11.742-.083 3.414-.916 4.08-2.248 5.246-2.915 3.997-2.165 6.412-.249 5.746.75-1.499 2.332-4.83 4.83-4.83 4.83s-2.998 1.332-6.829 2.165c0 0-1.832 0-3.414 1.166" fill="url(#paint49_linear_2464_40949)"/><path d="M136.013 178.859s-38.39 4.83-44.553 17.488c-6.162 12.658-16.738 87.94-5.83 103.263 9.494 13.324 80.446 4.497 80.446 4.497l-1.249-3.414c-2.249-6.163-2.332-9.66-.75-15.99l.583-2.248s-45.219-1.832-49.716-4.663c-1.582-1 2.082-48.384 2.082-48.384" fill="url(#paint50_linear_2464_40949)"/><path d="M138.345 177.193s2.665-20.069.499-30.562c-2.165-10.493 30.48 20.652 30.48 20.652s-1.499 7.245.166 13.991c1.666 6.662-12.158 6.412-24.15 3.997-7.745-1.582-6.995-8.078-6.995-8.078z" fill="url(#paint51_linear_2464_40949)"/><path d="M142.592 134.556c.166.333.166 1.332.333 1.665v1.166c.166-.749-.083.75 0 0 2.665-1.582.25-8.078.499-11.242.334-5.413 5.663-15.74 11.826-14.657 6.079 1.083 29.48 3.997 30.396 6.995.416 6.079-.167 20.736-1.832 28.231-3.415 15.156-4.081 30.229-18.238 26.815-8.494-2.082-18.737-7.745-23.151-14.074-2.748-3.914-2.915-10.159-2.915-10.159-5.079 1.665-6.079-4.997-6.495-8.911 0-.416-.083-.75-.083-1.083-.75-7.661 7.578-10.243 9.66-4.746z" fill="url(#paint52_linear_2464_40949)"/><path d="M130.85 113.32c0-8.411.749-13.241 1.166-17.988.166-1.998 1.998-3.497 4.08-3.33l53.214-.917c2.415.25 3.664 1.666 3.664 4.414v.666c0 7.328-1.499 14.324-4.663 20.986l-.5 1.166c-.25.666-.749.916-1.083 1.082-5.662 2.082-16.988 3.165-24.15 1.499l-11.325-2.748c-1.999-.166-3.665 1.582-4.081 3.498l-1.499 14.906a1.35 1.35 0 01-1.332 1l-1.999-.167c-.416 0-.749-.333-.833-.749-.25-1.499-.832-3.581-2.581-4.248-3.664-1.332-4.247 1.833-4.83 1.833-.084.083-3.165-10.577-3.248-20.903z" fill="url(#paint53_linear_2464_40949)"/><path d="M161.746 186.77l-7.162 13.158s-25.566-14.99-21.152-21.152c3.331-4.664 5.246-4.747 5.246-4.747s0 2.914 3.331 5.496c7.911 6.163 19.737 7.245 19.737 7.245z" fill="url(#paint54_linear_2464_40949)"/><path d="M161.746 186.77l7.161 11.326s8.411-9.327 4.997-14.407c-3.414-5.08-5.08-5.83-5.08-5.83s.916 4.581-1.082 6.663c-1.333 1.332-5.08 1.998-5.996 2.248z" fill="url(#paint55_linear_2464_40949)"/></g><defs><linearGradient id="paint28_linear_2464_40949" x1="426.497" y1="125" x2="394.039" y2="165.227" gradientUnits="userSpaceOnUse"><stop stop-color="#F6CFBE"/><stop offset="1" stop-color="#FFE8E1"/></linearGradient><linearGradient id="paint43_linear_2464_40949" x1="218.496" y1="205.5" x2="230.996" y2="225" gradientUnits="userSpaceOnUse"><stop stop-color="#855D53"/><stop offset="1" stop-color="#533C3F"/></linearGradient><linearGradient id="paint6_linear_2464_40949" x1="273.595" y1="430.11" x2="273.595" y2="296.194" gradientUnits="userSpaceOnUse"><stop stop-color="#BDD4FF"/><stop offset="1" stop-color="#E7EFFF"/></linearGradient><linearGradient id="paint8_linear_2464_40949" x1="366.275" y1="221.54" x2="367.32" y2="221.356" gradientUnits="userSpaceOnUse"><stop stop-color="#7E87A8"/><stop offset=".086" stop-color="#979EBA"/><stop offset=".196" stop-color="#AFB5CC"/><stop offset=".321" stop-color="#C2C7DA"/><stop offset=".466" stop-color="#D0D4E4"/><stop offset=".65" stop-color="#D8DBE9"/><stop offset="1" stop-color="#DADDEB"/></linearGradient><linearGradient id="paint9_linear_2464_40949" x1="367.024" y1="219.677" x2="367.593" y2="219.576" gradientUnits="userSpaceOnUse"><stop stop-color="#7E87A8"/><stop offset=".086" stop-color="#979EBA"/><stop offset=".196" stop-color="#AFB5CC"/><stop offset=".321" stop-color="#C2C7DA"/><stop offset=".466" stop-color="#D0D4E4"/><stop offset=".65" stop-color="#D8DBE9"/><stop offset="1" stop-color="#DADDEB"/></linearGradient><linearGradient id="paint12_linear_2464_40949" x1="277.499" y1="178.5" x2="273.999" y2="5" gradientUnits="userSpaceOnUse"><stop stop-color="#4687FF"/><stop offset="1" stop-color="#77A7FF"/></linearGradient><linearGradient id="paint13_linear_2464_40949" x1="274.053" y1="102.664" x2="273.999" y2="36" gradientUnits="userSpaceOnUse"><stop stop-color="#EDF3FF"/><stop offset="1" stop-color="#fff"/></linearGradient><linearGradient id="paint14_linear_2464_40949" x1="430.035" y1="357.329" x2="384.382" y2="396.686" gradientUnits="userSpaceOnUse"><stop stop-color="#0E1B33"/><stop offset=".998" stop-color="#233B67"/></linearGradient><linearGradient id="paint17_linear_2464_40949" x1="317.222" y1="221.635" x2="314.288" y2="223.911" gradientUnits="userSpaceOnUse"><stop stop-color="#F6CFBE"/><stop offset="1" stop-color="#FFE8E1"/></linearGradient><linearGradient id="paint18_linear_2464_40949" x1="320.324" y1="222.817" x2="322.015" y2="196.602" gradientUnits="userSpaceOnUse"><stop stop-color="#4687FF"/><stop offset=".999" stop-color="#77A7FF"/></linearGradient><linearGradient id="paint19_linear_2464_40949" x1="319.575" y1="222.769" x2="321.266" y2="196.554" gradientUnits="userSpaceOnUse"><stop stop-color="#4170DA"/><stop offset=".999" stop-color="#77A7FF"/></linearGradient><linearGradient id="paint20_linear_2464_40949" x1="313.449" y1="218.249" x2="313.835" y2="209.009" gradientUnits="userSpaceOnUse"><stop stop-color="#F6CFBE"/><stop offset="1" stop-color="#FFE8E1"/></linearGradient><linearGradient id="paint21_linear_2464_40949" x1="316.107" y1="238.633" x2="316.325" y2="228.604" gradientUnits="userSpaceOnUse"><stop stop-color="#F6CFBE"/><stop offset="1" stop-color="#FFE8E1"/></linearGradient><linearGradient id="paint24_linear_2464_40949" x1="466.997" y1="147.5" x2="431.343" y2="180.205" gradientUnits="userSpaceOnUse"><stop stop-color="#233B67"/><stop offset="1" stop-color="#0E1B33"/></linearGradient><linearGradient id="paint25_linear_2464_40949" x1="436.069" y1="140.463" x2="443.023" y2="134.555" gradientUnits="userSpaceOnUse"><stop stop-color="#4687FF"/><stop offset=".999" stop-color="#77A7FF"/></linearGradient><linearGradient id="paint27_linear_2464_40949" x1="414.496" y1="168.5" x2="417.581" y2="188.973" gradientUnits="userSpaceOnUse"><stop stop-color="#F6CFBE"/><stop offset="1" stop-color="#FFE8E1"/></linearGradient><linearGradient id="paint29_linear_2464_40949" x1="393.498" y1="105" x2="423.653" y2="140.598" gradientUnits="userSpaceOnUse"><stop offset=".002" stop-color="#233B67"/><stop offset="1" stop-color="#0E1B33"/></linearGradient><linearGradient id="paint30_linear_2464_40949" x1="451.858" y1="359.713" x2="413.559" y2="392.73" gradientUnits="userSpaceOnUse"><stop stop-color="#0E1B33"/><stop offset=".998" stop-color="#233B67"/></linearGradient><linearGradient id="paint32_linear_2464_40949" x1="438.347" y1="171.975" x2="425.152" y2="183.155" gradientUnits="userSpaceOnUse"><stop stop-color="#BDD4FF"/><stop offset="1" stop-color="#fff"/></linearGradient><linearGradient id="paint33_linear_2464_40949" x1="399.095" y1="176.82" x2="397.097" y2="188.638" gradientUnits="userSpaceOnUse"><stop stop-color="#BDD4FF"/><stop offset="1" stop-color="#fff"/></linearGradient><linearGradient id="paint5_linear_2464_40949" x1="613.487" y1="369.578" x2="558.571" y2="358.534" gradientUnits="userSpaceOnUse"><stop stop-color="#BDD4FF"/><stop offset="1" stop-color="#E7EFFF"/></linearGradient><linearGradient id="paint35_linear_2464_40949" x1="365.62" y1="266.037" x2="347.392" y2="259.853" gradientUnits="userSpaceOnUse"><stop stop-color="#F64F64" stop-opacity=".6"/><stop offset=".311" stop-color="#F26D7D" stop-opacity=".327"/><stop offset=".685" stop-color="#ED96A0" stop-opacity="0"/></linearGradient><linearGradient id="paint36_linear_2464_40949" x1="446.818" y1="364.436" x2="439.056" y2="368.705" gradientUnits="userSpaceOnUse"><stop stop-color="#F6CFBE"/><stop offset="1" stop-color="#FFE8E1"/></linearGradient><linearGradient id="paint38_linear_2464_40949" x1="442.637" y1="332.981" x2="471.569" y2="337.381" gradientUnits="userSpaceOnUse"><stop offset=".002" stop-color="#FFD3D7" stop-opacity=".5"/><stop offset=".08" stop-color="#FEC3C9" stop-opacity=".45"/><stop offset=".284" stop-color="#FB9EAA" stop-opacity=".318"/><stop offset=".475" stop-color="#F98493" stop-opacity=".195"/><stop offset=".644" stop-color="#F77485" stop-opacity=".085"/><stop offset=".776" stop-color="#F76E80" stop-opacity="0"/></linearGradient><linearGradient id="paint39_linear_2464_40949" x1="210.011" y1="291.009" x2="213.717" y2="211.54" gradientUnits="userSpaceOnUse"><stop stop-color="#77A7FF"/><stop offset="1" stop-color="#BDD4FF"/></linearGradient><linearGradient id="paint40_linear_2464_40949" x1="150.597" y1="383.191" x2="214.325" y2="421.216" gradientUnits="userSpaceOnUse"><stop stop-color="#0E1B33"/><stop offset=".998" stop-color="#233B67"/></linearGradient><linearGradient id="paint41_linear_2464_40949" x1="129.849" y1="352.675" x2="148.877" y2="385.694" gradientUnits="userSpaceOnUse"><stop stop-color="#0E1B33"/><stop offset=".998" stop-color="#233B67"/></linearGradient><linearGradient id="paint42_linear_2464_40949" x1="173.895" y1="325.777" x2="131.079" y2="216.79" gradientUnits="userSpaceOnUse"><stop stop-color="#77A7FF"/><stop offset="1" stop-color="#BDD4FF"/></linearGradient><linearGradient id="paint34_linear_2464_40949" x1="456.175" y1="310.453" x2="430.737" y2="307.653" gradientUnits="userSpaceOnUse"><stop stop-color="#F64F64" stop-opacity=".6"/><stop offset=".311" stop-color="#F26D7D" stop-opacity=".327"/><stop offset=".685" stop-color="#ED96A0" stop-opacity="0"/></linearGradient><linearGradient id="paint44_linear_2464_40949" x1="248.523" y1="285.041" x2="184.998" y2="187.5" gradientUnits="userSpaceOnUse"><stop offset=".234" stop-color="#EDF3FF"/><stop offset=".54" stop-color="#E1EBFF"/><stop offset=".919" stop-color="#C2D7FF"/><stop offset="1" stop-color="#BDD4FF"/></linearGradient><linearGradient id="paint46_linear_2464_40949" x1="129.847" y1="286.34" x2="166.807" y2="284.996" gradientUnits="userSpaceOnUse"><stop offset=".091" stop-color="#EDF3FF"/><stop offset=".388" stop-color="#E1EBFF"/><stop offset=".919" stop-color="#C2D7FF"/><stop offset="1" stop-color="#BDD4FF"/></linearGradient><linearGradient id="paint47_linear_2464_40949" x1="208.542" y1="285.47" x2="195.351" y2="283.501" gradientUnits="userSpaceOnUse"><stop stop-color="#855D53"/><stop offset="1" stop-color="#533C3F"/></linearGradient><linearGradient id="paint48_linear_2464_40949" x1="199.329" y1="286.502" x2="113.281" y2="287.261" gradientUnits="userSpaceOnUse"><stop stop-color="#855D53"/><stop offset="1" stop-color="#533C3F"/></linearGradient><linearGradient id="paint49_linear_2464_40949" x1="182.798" y1="283.399" x2="145.616" y2="300.852" gradientUnits="userSpaceOnUse"><stop stop-color="#855D53"/><stop offset="1" stop-color="#533C3F"/></linearGradient><linearGradient id="paint50_linear_2464_40949" x1="104.162" y1="316.598" x2="121.51" y2="269.798" gradientUnits="userSpaceOnUse"><stop stop-color="#77A7FF"/><stop offset="1" stop-color="#BDD4FF"/></linearGradient><linearGradient id="paint51_linear_2464_40949" x1="161.497" y1="186" x2="161.997" y2="153" gradientUnits="userSpaceOnUse"><stop stop-color="#855D53"/><stop offset="1" stop-color="#533C3F"/></linearGradient><linearGradient id="paint52_linear_2464_40949" x1="174.497" y1="166.5" x2="141.497" y2="114" gradientUnits="userSpaceOnUse"><stop stop-color="#855D53"/><stop offset="1" stop-color="#533C3F"/></linearGradient><linearGradient id="paint53_linear_2464_40949" x1="140.998" y1="135" x2="176.498" y2="78.5" gradientUnits="userSpaceOnUse"><stop stop-color="#0E1B33"/><stop offset=".998" stop-color="#233B67"/></linearGradient><linearGradient id="paint54_linear_2464_40949" x1="120.908" y1="162.913" x2="137.219" y2="176.732" gradientUnits="userSpaceOnUse"><stop stop-color="#BDD4FF"/><stop offset="1" stop-color="#fff"/></linearGradient><linearGradient id="paint55_linear_2464_40949" x1="165.106" y1="167.955" x2="167.851" y2="184.184" gradientUnits="userSpaceOnUse"><stop stop-color="#BDD4FF"/><stop offset="1" stop-color="#fff"/></linearGradient><radialGradient id="paint26_radial_2464_40949" cx="0" cy="0" r="1" gradientUnits="userSpaceOnUse" gradientTransform="matrix(-23.7717 .01618 -.0156 -22.9102 427.859 143.477)"><stop stop-color="#E8E8E9"/><stop offset="1" stop-color="#D0D1D3"/></radialGradient><radialGradient id="paint4_radial_2464_40949" cx="0" cy="0" r="1" gradientUnits="userSpaceOnUse" gradientTransform="matrix(277.516 0 0 46.3689 277.529 508.657)"><stop offset="0" stop-color="#4873C4" stop-opacity=".9"/><stop offset="1" stop-color="#fff" stop-opacity="0"/></radialGradient><radialGradient id="paint15_radial_2464_40949" cx="0" cy="0" r="1" gradientUnits="userSpaceOnUse" gradientTransform="translate(351.299 169.677) scale(157.868)"><stop stop-color="#FFD3D7"/><stop offset="1" stop-color="#F64F64"/></radialGradient><radialGradient id="paint1_radial_2464_40949" cx="0" cy="0" r="1" gradientUnits="userSpaceOnUse" gradientTransform="matrix(-28.68107 27.6999 -27.75866 -28.74193 442.166 280.277)"><stop offset=".001" stop-color="#fff"/><stop offset=".871" stop-color="#fff" stop-opacity="0"/></radialGradient><radialGradient id="paint16_radial_2464_40949" cx="0" cy="0" r="1" gradientUnits="userSpaceOnUse" gradientTransform="translate(320.941 239.243) scale(2.61655)"><stop stop-color="#FFD3D7"/><stop offset="1" stop-color="#F64F64"/></radialGradient><radialGradient id="paint45_radial_2464_40949" cx="0" cy="0" r="1" gradientUnits="userSpaceOnUse" gradientTransform="rotate(128.125 101.452 147.343) scale(150.636)"><stop stop-color="#fff"/><stop offset=".51" stop-color="#EDF3FF"/><stop offset="1" stop-color="#BDD4FF"/></radialGradient><radialGradient id="paint3_radial_2464_40949" cx="0" cy="0" r="1" gradientUnits="userSpaceOnUse" gradientTransform="matrix(159.484 0 0 25.1202 275.06 518.833)"><stop offset="0" stop-color="#4873C4" stop-opacity=".9"/><stop offset=".182" stop-color="#4771C0" stop-opacity=".704"/><stop offset=".353" stop-color="#426AB5" stop-opacity=".52"/><stop offset=".52" stop-color="#3A5EA2" stop-opacity=".341"/><stop offset=".683" stop-color="#304F87" stop-opacity=".166"/><stop offset=".837" stop-color="#233B67" stop-opacity="0"/></radialGradient><radialGradient id="paint31_radial_2464_40949" cx="0" cy="0" r="1" gradientUnits="userSpaceOnUse" gradientTransform="translate(407.473 181.244) scale(176.977)"><stop stop-color="#FFD3D7"/><stop offset="1" stop-color="#F64F64"/></radialGradient><radialGradient id="paint7_radial_2464_40949" cx="0" cy="0" r="1" gradientUnits="userSpaceOnUse" gradientTransform="translate(279.738 100.427) scale(120.766)"><stop stop-color="#fff"/><stop offset="1" stop-color="#fff" stop-opacity="0"/></radialGradient><radialGradient id="paint10_radial_2464_40949" cx="0" cy="0" r="1" gradientUnits="userSpaceOnUse" gradientTransform="translate(406.86 434.257) scale(120.766)"><stop stop-color="#fff"/><stop offset="1" stop-color="#fff" stop-opacity="0"/></radialGradient><radialGradient id="paint11_radial_2464_40949" cx="0" cy="0" r="1" gradientUnits="userSpaceOnUse" gradientTransform="translate(120.771 278.584) scale(120.766)"><stop stop-color="#fff"/><stop offset="1" stop-color="#fff" stop-opacity="0"/></radialGradient><radialGradient id="paint0_radial_2464_40949" cx="0" cy="0" r="1" gradientUnits="userSpaceOnUse" gradientTransform="matrix(-55.81327 53.9039 -54.01817 -55.9316 414.583 277.447)"><stop offset=".001" stop-color="#fff"/><stop offset=".871" stop-color="#fff" stop-opacity="0"/></radialGradient><radialGradient id="paint22_radial_2464_40949" cx="0" cy="0" r="1" gradientUnits="userSpaceOnUse" gradientTransform="rotate(180 162.435 95.205) scale(16.9923)"><stop stop-color="#fff"/><stop offset=".061" stop-color="#fff" stop-opacity=".939"/><stop offset="1" stop-color="#fff" stop-opacity="0"/></radialGradient><radialGradient id="paint37_radial_2464_40949" cx="0" cy="0" r="1" gradientUnits="userSpaceOnUse" gradientTransform="translate(407.955 189.359) scale(165.111)"><stop stop-color="#FFD3D7"/><stop offset="1" stop-color="#F64F64"/></radialGradient><radialGradient id="paint23_radial_2464_40949" cx="0" cy="0" r="1" gradientUnits="userSpaceOnUse" gradientTransform="translate(329.399 179.11) scale(161.689)"><stop stop-color="#FFD3D7"/><stop offset="1" stop-color="#F64F6C"/></radialGradient><radialGradient id="paint2_radial_2464_40949" cx="0" cy="0" r="1" gradientUnits="userSpaceOnUse" gradientTransform="matrix(-28.68107 27.6999 -27.75866 -28.74193 435.094 286.996)"><stop offset=".001" stop-color="#fff"/><stop offset=".871" stop-color="#fff" stop-opacity="0"/></radialGradient><clipPath id="clip0_2464_40949"><path fill="#fff" d="M0 0h555v555H0z"/></clipPath></defs></svg>