<svg width="555" height="555" viewBox="0 0 555 555" fill="none" xmlns="http://www.w3.org/2000/svg"><g clip-path="url(#clip0_2435_42191)"><path opacity=".5" d="M555 523.7c0 12.4-124.2 31.5-277.5 31.5S0 536 0 523.7c0-12.4 124.2-22.4 277.5-22.4s277.5 10 277.5 22.4z" fill="url(#paint0_radial_2435_42191)"/><path d="M456.4 164.5v148.7c0 20.8-16.9 37.7-37.7 37.7H136.3c-20.8 0-37.7-16.9-37.7-37.7V164.5c0-4.8 3.9-8.6 8.6-8.6h340.6c4.7 0 8.6 3.8 8.6 8.6z" fill="url(#paint1_linear_2435_42191)"/><path d="M428.1 336.6h-286c-1.8 0-3.2 1.4-3.2 3.2 0 1.7 1.4 3.2 3.2 3.2h286c1.7 0 3.2-1.4 3.2-3.2-.1-1.8-1.5-3.2-3.2-3.2z" fill="#9AA5AD"/><path d="M456.4 148.6v164.6c0 20.8-16.9 37.7-37.7 37.7H136.3c-20.8 0-37.7-16.9-37.7-37.7V148.7c1-.4 2-.6 3.1-.6h352.2c.8.1 1.7.2 2.5.5z" fill="url(#paint2_linear_2435_42191)"/><path d="M456.4 144.1v148.7c0 20.8-16.9 37.7-37.7 37.7H136.3c-20.8 0-37.7-16.9-37.7-37.7V144.1c0-4.8 3.9-8.6 8.6-8.6h340.6c4.7 0 8.6 3.9 8.6 8.6z" fill="url(#paint3_linear_2435_42191)"/><path d="M456.4 144.1v148.7c0 20.8-16.9 37.7-37.7 37.7H136.3c-20.8 0-37.7-16.9-37.7-37.7V144.1c0-4.8 3.9-8.6 8.6-8.6h340.6c4.7 0 8.6 3.9 8.6 8.6z" fill="url(#paint4_linear_2435_42191)"/><path d="M420.5 153.9h-286c-1.7 0-3.2 1.4-3.2 3.2 0 1.7 1.4 3.2 3.2 3.2h286c1.7 0 3.2-1.4 3.2-3.2-.1-1.8-1.5-3.2-3.2-3.2z" fill="#4687FF"/><path d="M420.5 336.6h-286c-1.8 0-3.2 1.4-3.2 3.2 0 1.7 1.4 3.2 3.2 3.2h286c1.7 0 3.2-1.4 3.2-3.2-.1-1.8-1.5-3.2-3.2-3.2z" fill="url(#paint5_linear_2435_42191)"/><path d="M442 302.7c0 5-4.1 9.1-9.1 9.1s-9.1-4.1-9.1-9.1v-2.3H442v2.3z" fill="url(#paint6_linear_2435_42191)"/><path opacity=".9" d="M423.8 300.5c0 5 4.1 9.1 9.1 9.1s9.1-4.1 9.1-9.1-4.1-9.1-9.1-9.1-9.1 4-9.1 9.1z" fill="#8CC2C7"/><path d="M442 300.5c0 5-4.1 9.1-9.1 9.1s-9.1-4.1-9.1-9.1 4.1-9.1 9.1-9.1c5.1 0 9.1 4 9.1 9.1z" fill="#fff"/><path d="M164 340.2h-14.3V482H164V340.2z" fill="url(#paint7_linear_2435_42191)"/><path d="M229.4 340.2h-14.3v129.9h14.3V340.2z" fill="url(#paint8_linear_2435_42191)"/><path d="M258.7 340.2H273l.6 135.8h-14.2l-.7-135.8z" fill="url(#paint9_linear_2435_42191)"/><path d="M360.2 340.2h-14.3V482h14.3V340.2z" fill="url(#paint10_linear_2435_42191)"/><path d="M382 340.2h-14.3v132H382v-132z" fill="url(#paint11_linear_2435_42191)"/><path d="M403.7 340.2c-3.2 101.8 8.2 109.8 11.3 138-4.7.5-9.4 1-14.2 1.6-3.5-31.7-11-36.7-11.3-139.5h14.2v-.1z" fill="url(#paint12_linear_2435_42191)"/><path d="M324.1 340.2c2.8 108.2 0 117.4-2.7 147.4 4 .6 9.1 1.1 13.2 1.7 3-33.6 3.5-39.8 3.8-149h-14.3v-.1z" fill="url(#paint13_linear_2435_42191)"/><path d="M302.3 340.2s1.8 27.3 0 43.5-1.8 32.6 0 48.8c1.7 15.2 1.7 30.5 0 45.7 4.7.5 9.4 1 14.2 1.6 1.8-16.2 1.8-32.6 0-48.8-1.7-15.2-1.7-30.5 0-45.7 1.7-15.2 0-45.1 0-45.1h-14.2z" fill="url(#paint14_radial_2435_42191)"/><path d="M251.1 340.2s-2.9 29.2 0 46.5 2.9 34.8 0 52.1c-2.7 16.2-2.7 32.6 0 48.8-7.8.6-14.2 1.7-14.2 1.7-2.9-17.3-2.9-34.8 0-52.1 2.7-16.2 2.7-32.6 0-48.8-2.7-16.2 0-48.1 0-48.1h14.2v-.1z" fill="url(#paint15_linear_2435_42191)"/><path d="M188.8 483.7s10-33.1 4.6-73.9c-3.1-23.4 0-69.6 0-69.6h14.2s-3.5 42.2 0 67.2c5.7 40.6-4.6 78.7-4.6 78.7l-14.2-2.4z" fill="url(#paint16_linear_2435_42191)"/><path d="M185.7 405.8v-65.6h-14.1v61.3c0 22.9 5.4 56.6-2.2 73 4.7.5 9.4 1 14.2 1.6 4.4-16.2 2.1-66 2.1-70.3z" fill="url(#paint17_linear_2435_42191)"/><path d="M280.5 340.2c-3.4 43.6-3.3 87.4.1 131 4.7-.4 9.5-.7 14.2-1.1-3.4-43.2-3.4-86.6 0-129.9h-14.3z" fill="url(#paint18_linear_2435_42191)"/><path d="M414.6 157.1H140.4V23.6c0-5.9 4.7-10.6 10.6-10.6h253c5.8 0 10.6 4.7 10.6 10.6v133.5z" fill="url(#paint19_linear_2435_42191)"/><path d="M383.2 157.1H173.1V85.3c0-6.6 5.4-12 12-12h186c6.6 0 12 5.4 12 12v71.8h.1z" fill="url(#paint20_linear_2435_42191)"/><path d="M264.7 120.5h-78c-2.3 0-4.2-1.9-4.2-4.2 0-2.3 1.9-4.2 4.2-4.2h78c2.3 0 4.2 1.9 4.2 4.2.1 2.3-1.8 4.2-4.2 4.2z" fill="url(#paint21_linear_2435_42191)"/><path d="M242.6 140.9h-55.9c-2.3 0-4.2-1.9-4.2-4.2 0-2.3 1.9-4.2 4.2-4.2h55.9c2.3 0 4.2 1.9 4.2 4.2 0 2.3-1.9 4.2-4.2 4.2z" fill="url(#paint22_linear_2435_42191)"/><path d="M282.1 140.9h-24.9c-2.3 0-4.2-1.9-4.2-4.2 0-2.3 1.9-4.2 4.2-4.2h24.9c2.3 0 4.2 1.9 4.2 4.2 0 2.3-1.9 4.2-4.2 4.2z" fill="url(#paint23_linear_2435_42191)"/><path d="M321.3 140.9h-24.9c-2.3 0-4.2-1.9-4.2-4.2 0-2.3 1.9-4.2 4.2-4.2h24.9c2.3 0 4.2 1.9 4.2 4.2 0 2.3-1.9 4.2-4.2 4.2z" fill="url(#paint24_linear_2435_42191)"/><path d="M264.7 152.9h-78c-2.3 0-4.2 1.9-4.2 4.2H269c0-2.4-1.9-4.2-4.3-4.2z" fill="url(#paint25_linear_2435_42191)"/><path d="M326.5 152.9h-46.7c-2.3 0-4.2 1.9-4.2 4.2h55.2c-.1-2.4-2-4.2-4.3-4.2z" fill="url(#paint26_linear_2435_42191)"/><path fill-rule="evenodd" clip-rule="evenodd" d="M371.1 92.3l-3-3h-.1c.6-.9.9-2 .9-3.2 0-3.2-2.6-5.7-5.7-5.7-3.2 0-5.7 2.6-5.7 5.7 0 3.2 2.6 5.7 5.7 5.7 1.2 0 2.2-.3 3.2-.9v.1l3 3c.5.5 1.2.5 1.6 0 .5-.5.5-1.3.1-1.7zm-7.9-2.5c-2.1 0-3.7-1.7-3.7-3.7 0-2.1 1.7-3.7 3.7-3.7 2.1 0 3.7 1.7 3.7 3.7s-1.6 3.7-3.7 3.7z" fill="url(#paint27_radial_2435_42191)"/><path d="M238.2 58.4c2.93 0 5.3-2.37 5.3-5.3 0-2.93-2.37-5.3-5.3-5.3-2.93 0-5.3 2.37-5.3 5.3 0 2.93 2.37 5.3 5.3 5.3z" fill="#4684FF"/><path d="M254.2 58.4c2.93 0 5.3-2.37 5.3-5.3 0-2.93-2.37-5.3-5.3-5.3-2.93 0-5.3 2.37-5.3 5.3 0 2.93 2.37 5.3 5.3 5.3z" fill="url(#paint28_linear_2435_42191)"/><path d="M270.2 58.4c2.93 0 5.3-2.37 5.3-5.3 0-2.93-2.37-5.3-5.3-5.3-2.93 0-5.3 2.37-5.3 5.3 0 2.93 2.37 5.3 5.3 5.3z" fill="#FFAA6E"/><path d="M286.1 58.4c2.93 0 5.3-2.37 5.3-5.3 0-2.93-2.37-5.3-5.3-5.3-2.93 0-5.3 2.37-5.3 5.3 0 2.93 2.37 5.3 5.3 5.3z" fill="#4684FF"/><path d="M302.1 58.4c2.93 0 5.3-2.37 5.3-5.3 0-2.93-2.37-5.3-5.3-5.3-2.93 0-5.3 2.37-5.3 5.3 0 2.93 2.37 5.3 5.3 5.3z" fill="#66D589"/><path d="M318.1 58.4c2.93 0 5.3-2.37 5.3-5.3 0-2.93-2.37-5.3-5.3-5.3-2.93 0-5.3 2.37-5.3 5.3 0 2.93 2.37 5.3 5.3 5.3z" fill="url(#paint29_linear_2435_42191)"/><path d="M182.6 102.5h191.1" stroke="#E8E8E9" stroke-width=".989" stroke-miterlimit="10"/></g><defs><linearGradient id="paint17_linear_2435_42191" x1="177.852" y1="341.968" x2="177.852" y2="458.968" gradientUnits="userSpaceOnUse"><stop stop-color="#77A7FF"/><stop offset="1" stop-color="#BDD4FF"/></linearGradient><linearGradient id="paint1_linear_2435_42191" x1="277.502" y1="155.9" x2="277.502" y2="345.244" gradientUnits="userSpaceOnUse"><stop stop-color="#EDF3FF"/><stop offset=".64" stop-color="#CBDDFF"/><stop offset="1" stop-color="#BDD4FF"/></linearGradient><linearGradient id="paint3_linear_2435_42191" x1="277.502" y1="131.079" x2="277.502" y2="171.436" gradientUnits="userSpaceOnUse"><stop stop-color="#BDD4FF"/><stop offset="1" stop-color="#E7EFFF"/></linearGradient><linearGradient id="paint4_linear_2435_42191" x1="277.14" y1="146.993" x2="277.797" y2="276.924" gradientUnits="userSpaceOnUse"><stop stop-color="#BDD4FF"/><stop offset="1" stop-color="#77A7FF"/></linearGradient><linearGradient id="paint5_linear_2435_42191" x1="277.239" y1="366.286" x2="277.895" y2="299.899" gradientUnits="userSpaceOnUse"><stop stop-color="#77A7FF"/><stop offset="1" stop-color="#BDD4FF"/></linearGradient><linearGradient id="paint6_linear_2435_42191" x1="433.82" y1="292.84" x2="435.023" y2="281.137" gradientUnits="userSpaceOnUse"><stop stop-color="#BDD4FF"/><stop offset="1" stop-color="#E7EFFF"/></linearGradient><linearGradient id="paint7_linear_2435_42191" x1="156.853" y1="341.968" x2="156.853" y2="458.968" gradientUnits="userSpaceOnUse"><stop stop-color="#EDF3FF"/><stop offset="1" stop-color="#BDD4FF"/></linearGradient><linearGradient id="paint8_linear_2435_42191" x1="222.252" y1="341.968" x2="222.252" y2="458.968" gradientUnits="userSpaceOnUse"><stop stop-color="#77A7FF"/><stop offset="1" stop-color="#BDD4FF"/></linearGradient><linearGradient id="paint9_linear_2435_42191" x1="266.153" y1="341.968" x2="266.153" y2="458.968" gradientUnits="userSpaceOnUse"><stop stop-color="#EDF3FF"/><stop offset="1" stop-color="#BDD4FF"/></linearGradient><linearGradient id="paint10_linear_2435_42191" x1="353.052" y1="341.968" x2="353.052" y2="458.968" gradientUnits="userSpaceOnUse"><stop stop-color="#EDF3FF"/><stop offset="1" stop-color="#BDD4FF"/></linearGradient><linearGradient id="paint11_linear_2435_42191" x1="374.853" y1="341.968" x2="374.853" y2="458.968" gradientUnits="userSpaceOnUse"><stop stop-color="#77A7FF"/><stop offset="1" stop-color="#BDD4FF"/></linearGradient><linearGradient id="paint12_linear_2435_42191" x1="402.254" y1="341.968" x2="402.254" y2="458.968" gradientUnits="userSpaceOnUse"><stop stop-color="#EDF3FF"/><stop offset="1" stop-color="#BDD4FF"/></linearGradient><linearGradient id="paint13_linear_2435_42191" x1="329.902" y1="341.968" x2="329.902" y2="458.968" gradientUnits="userSpaceOnUse"><stop stop-color="#EDF3FF"/><stop offset="1" stop-color="#BDD4FF"/></linearGradient><linearGradient id="paint2_linear_2435_42191" x1="275.261" y1="257.767" x2="270.261" y2="315.767" gradientUnits="userSpaceOnUse"><stop stop-color="#77A7FF"/><stop offset="1" stop-color="#4687FF"/></linearGradient><linearGradient id="paint16_linear_2435_42191" x1="199.065" y1="341.968" x2="199.065" y2="458.968" gradientUnits="userSpaceOnUse"><stop stop-color="#EDF3FF"/><stop offset="1" stop-color="#BDD4FF"/></linearGradient><linearGradient id="paint15_linear_2435_42191" x1="244.002" y1="341.968" x2="244.002" y2="458.968" gradientUnits="userSpaceOnUse"><stop stop-color="#77A7FF"/><stop offset="1" stop-color="#BDD4FF"/></linearGradient><linearGradient id="paint18_linear_2435_42191" x1="286.404" y1="341.968" x2="286.404" y2="458.968" gradientUnits="userSpaceOnUse"><stop stop-color="#77A7FF"/><stop offset="1" stop-color="#BDD4FF"/></linearGradient><linearGradient id="paint19_linear_2435_42191" x1="276.68" y1="108.468" x2="281.68" y2="-2.532" gradientUnits="userSpaceOnUse"><stop stop-color="#EDF3FF"/><stop offset="1" stop-color="#BDD4FF"/></linearGradient><linearGradient id="paint20_linear_2435_42191" x1="278.152" y1="132.399" x2="278.152" y2="162.812" gradientUnits="userSpaceOnUse"><stop stop-color="#fff"/><stop offset="1" stop-color="#E7EFFF"/></linearGradient><linearGradient id="paint21_linear_2435_42191" x1="224.506" y1="123.317" x2="202.763" y2="249.116" gradientUnits="userSpaceOnUse"><stop offset=".091" stop-color="#EDF3FF"/><stop offset=".388" stop-color="#E1EBFF"/><stop offset=".919" stop-color="#C2D7FF"/><stop offset="1" stop-color="#BDD4FF"/></linearGradient><linearGradient id="paint22_linear_2435_42191" x1="217.186" y1="122.052" x2="195.443" y2="247.851" gradientUnits="userSpaceOnUse"><stop offset=".091" stop-color="#EDF3FF"/><stop offset=".388" stop-color="#E1EBFF"/><stop offset=".919" stop-color="#C2D7FF"/><stop offset="1" stop-color="#BDD4FF"/></linearGradient><linearGradient id="paint23_linear_2435_42191" x1="270.59" y1="131.282" x2="248.847" y2="257.081" gradientUnits="userSpaceOnUse"><stop offset=".091" stop-color="#EDF3FF"/><stop offset=".388" stop-color="#E1EBFF"/><stop offset=".919" stop-color="#C2D7FF"/><stop offset="1" stop-color="#BDD4FF"/></linearGradient><linearGradient id="paint24_linear_2435_42191" x1="308.652" y1="137.861" x2="286.909" y2="263.659" gradientUnits="userSpaceOnUse"><stop offset=".091" stop-color="#EDF3FF"/><stop offset=".388" stop-color="#E1EBFF"/><stop offset=".919" stop-color="#C2D7FF"/><stop offset="1" stop-color="#BDD4FF"/></linearGradient><linearGradient id="paint25_linear_2435_42191" x1="230.749" y1="128.02" x2="212.506" y2="233.57" gradientUnits="userSpaceOnUse"><stop offset=".091" stop-color="#EDF3FF"/><stop offset=".388" stop-color="#E1EBFF"/><stop offset=".919" stop-color="#C2D7FF"/><stop offset="1" stop-color="#BDD4FF"/></linearGradient><linearGradient id="paint26_linear_2435_42191" x1="306.135" y1="139.954" x2="289.03" y2="238.918" gradientUnits="userSpaceOnUse"><stop offset=".091" stop-color="#EDF3FF"/><stop offset=".388" stop-color="#E1EBFF"/><stop offset=".919" stop-color="#C2D7FF"/><stop offset="1" stop-color="#BDD4FF"/></linearGradient><linearGradient id="paint28_linear_2435_42191" x1="249.222" y1="27.375" x2="251.274" y2="37.976" gradientUnits="userSpaceOnUse"><stop stop-color="#FFD4D8"/><stop offset=".348" stop-color="#FCAFB8"/><stop offset=".999" stop-color="#F86E80"/></linearGradient><linearGradient id="paint29_linear_2435_42191" x1="313.347" y1="24.581" x2="315.057" y2="34.839" gradientUnits="userSpaceOnUse"><stop stop-color="#FFD4D8"/><stop offset=".348" stop-color="#FCAFB8"/><stop offset=".999" stop-color="#F86E80"/></linearGradient><radialGradient id="paint27_radial_2435_42191" cx="0" cy="0" r="1" gradientUnits="userSpaceOnUse" gradientTransform="translate(358.954 81.514) scale(12.3361)"><stop offset=".001" stop-color="#BDD4FF"/><stop offset=".999" stop-color="#77A7FF"/></radialGradient><radialGradient id="paint0_radial_2435_42191" cx="0" cy="0" r="1" gradientUnits="userSpaceOnUse" gradientTransform="matrix(270.263 0 0 22.5421 277.503 526.379)"><stop stop-color="#305EB2" stop-opacity=".3"/><stop offset=".102" stop-color="#3461B3" stop-opacity=".255"/><stop offset=".198" stop-color="#3F6AB8" stop-opacity=".213"/><stop offset=".291" stop-color="#5279BF" stop-opacity=".172"/><stop offset=".383" stop-color="#6D8DC9" stop-opacity=".132"/><stop offset=".474" stop-color="#8FA8D5" stop-opacity=".092"/><stop offset=".564" stop-color="#B9C9E5" stop-opacity=".053"/><stop offset=".652" stop-color="#EBEFF7" stop-opacity=".015"/><stop offset=".685" stop-color="#fff" stop-opacity="0"/></radialGradient><radialGradient id="paint14_radial_2435_42191" cx="0" cy="0" r="1" gradientUnits="userSpaceOnUse" gradientTransform="matrix(98.0052 0 0 98.0051 305 399.968)"><stop offset=".001" stop-color="#BDD4FF"/><stop offset=".999" stop-color="#77A7FF"/></radialGradient><clipPath id="clip0_2435_42191"><path fill="#fff" d="M0 0h555v555H0z"/></clipPath></defs></svg>