<svg width="555" height="555" viewBox="0 0 555 555" fill="none" xmlns="http://www.w3.org/2000/svg"><path d="M548 305H3v115h545V305z" fill="url(#paint0_radial_2428_64815)" fill-opacity=".5"/><path opacity=".58" d="M499.31 64.5H308.43s11.8-3.22 20.65-3.22c8.85 0 20.38-3.5 29.5-8.04 9.12-4.54 19.57-3.22 30.82 0s14.4 3.29 18.5.27c2.91-2.14 6.5-4.42 17.74-4.42 0 0 10.5-9.86 22.39-4.16 23.17 11.1 24-3.15 38 4.69 14.32 8.05 13.28 14.88 13.28 14.88z" fill="url(#paint1_linear_2428_64815)"/><path opacity=".58" d="M110.63 128.41h122.78s-8.5-2.73-12.85-2.73-7.23.82-14.78-3.18c-7.55-4-14.13-3.54-18.79-2.09-4.65 1.44-13.65 2.25-17.03.32-3.38-1.93-6.42-2.74-9.79-1.37 0 0-3.21-6.33-9.79-4.73-6.58 1.61-9 6.79-16.54 1 0 0-7.39-5-13.65 1.1 0 0-3.54-7-10.28-7.03-6.75-.03-16.22 13.09-26.82 12.29-10.6-.8-13.19 6.43-13.19 6.43l40.73-.01z" fill="url(#paint2_linear_2428_64815)"/><g opacity=".8"><path opacity=".8" d="M266.89 149.22h-16.36s-79.95 62.36-84.68 63.59c-4.73 1.23-15.26 0-15.26 0l61.78 92.41h259.49s-71.96-60.41-80.68-67.39c-8.72-6.98-17.81-12.22-21.08-11.43l-103.21-77.18z" fill="url(#paint3_linear_2428_64815)"/><path opacity=".8" d="M378.83 138.14l-10.54 6.58-18.53 20.1-28.71-2.46s-13.09 7.38-14.9 7.79c-1.81.41-19.74-6.34-19.74-6.34l87.33 82.62 98.13 58.79h62.03l21.1.55s-42.07-72.83-47.52-75.32c-5.45-2.49-37.43-32-43.23-34.46-5.81-2.46-85.42-57.85-85.42-57.85z" fill="url(#paint4_linear_2428_64815)"/><path opacity=".8" d="M502.39 276.51s-21.54-17.32-32.31-20.26c-10.77-2.95-36.56-22.85-36.56-22.85s-19.66-37.59-23.37-40.88c-3.71-3.29-26.24-28.01-26.24-28.01l13.06 6.64-15.34-25.06-2.8-7.95s47.6 33.61 50.87 35.08c3.26 1.47 38.43 26.29 38.43 26.29l-27.51 2.58" fill="url(#paint5_linear_2428_64815)"/><path opacity=".8" d="M150.59 212.81s26.53 34.05 30.54 36.51c4.01 2.46 10.17 3.69 11.63 4.92 1.46 1.23 26.88 50.97 26.88 50.97h-60.33l-31.98-80.51 2.91-11.9h20.35v.01z" fill="url(#paint6_linear_2428_64815)"/><path opacity=".8" d="M130.24 212.81l-57.79 31.18-69.51 61.23h156.38l-26.16-78.87 6.17 2.46-9.09-16z" fill="url(#paint7_linear_2428_64815)"/><path opacity=".8" d="M429.5 305.22H301.54s-6.52-37.68-8.89-46.2c-2.37-8.52-15.42-40.31-15.42-40.31 1.78-10.7-13.03-36.11-13.03-36.11l13.03 7.35c-5.33-8.02-13.03-29.04-13.03-29.04l13.03 11.68-10.34-23.35s21.41 16.39 28.76 23.35l78.07 73.84 63.14 37.82" fill="url(#paint8_linear_2428_64815)"/><path opacity=".8" d="M73.7 243.32l-1.25.67-69.51 61.23H73.7v-61.9z" fill="url(#paint9_linear_2428_64815)"/><path opacity=".8" d="M471.86 305.77H555v-17.1l-42.93-55.85-121.26-65.93-23.71 50.73 104.76 88.15z" fill="url(#paint10_linear_2428_64815)"/></g><path d="M378.33 249.18l93.53 56.04h62.03l21.1.55s-42.07-72.83-47.52-75.32c-2.63-1.2-11.46-8.71-20.52-16.42-9.71-8.26-19.71-16.77-22.71-18.04-3.44-1.46-32.86-21.55-56.22-37.65-18.28 25.71-29.2 57.02-29.69 90.84z" fill="url(#paint11_radial_2428_64815)"/><path opacity=".26" d="M274.4 529.07c139.91 0 253.33-10.87 253.33-24.28 0-13.41-113.42-24.28-253.33-24.28-139.91 0-253.33 10.87-253.33 24.28-.01 13.4 113.41 24.28 253.33 24.28z" fill="url(#paint12_radial_2428_64815)"/><path d="M475.13 198.26S361.01 326.68 231.17 378.27c0 0 81.68 32.87 159.95 29.31 0 0 94.68-78.58 84.01-209.32z" fill="url(#paint13_linear_2428_64815)"/><path d="M384.09 327.22l21.41 2.88 9.33 13-3.43 32.12s-15.8 22.28-23.83 24.17c-8.03 1.89-57.72 2.77-57.72 2.77l-10.59-8.12L337.82 381c5.28-5.05 6.32-8.16 6.77-9.14 6.65-14.3 17.12-40.23 21.45-42.27a29.772 29.772 0 0118.05-2.37z" fill="url(#paint14_linear_2428_64815)"/><path d="M334.83 413.89l17.97-14.04-24.21-12.06-1.91 20.45 8.15 5.65z" fill="url(#paint15_linear_2428_64815)"/><path d="M334.03 411.02l-55.52-21.69c-.48-.18-.89-.51-1.17-.94-.28-.43-.42-.94-.39-1.45l2.23-38c.02-.37.14-.74.33-1.06.19-.32.46-.59.77-.79.32-.2.68-.32 1.05-.36.37-.04.75.02 1.1.15l55.11 20.85c.48.18.89.51 1.17.93.28.43.42.94.39 1.45l-2.23 38c-.11 1.62-1.32 3.49-2.84 2.91z" fill="url(#paint16_linear_2428_64815)"/><path d="M332.24 410.35l-54.18-20.5c-.48-.18-.88-.51-1.15-.93a2.37 2.37 0 01-.38-1.44l2.41-37.94c.02-.37.13-.73.32-1.05a2.393 2.393 0 011.8-1.16c.37-.04.74.01 1.09.14l54.18 20.5c.47.18.88.51 1.15.93.27.43.41.93.38 1.44l-2.42 37.94a2.3 2.3 0 01-.32 1.05 2.393 2.393 0 01-1.8 1.16c-.36.04-.73-.01-1.08-.14z" fill="url(#paint17_linear_2428_64815)"/><path d="M334.83 413.89l-57.74-21.83c-.3-.11-.54-.34-.67-.63a1.22 1.22 0 01-.03-.92c.11-.3.34-.54.63-.67s.62-.14.92-.03l57.44 21.76-.55 2.32z" fill="url(#paint18_linear_2428_64815)"/><path d="M308.44 378.78c.16-2.87-1.27-5.28-3.2-5.38-1.93-.11-3.61 2.13-3.77 5-.16 2.87 1.28 5.28 3.2 5.38 1.92.1 3.61-2.14 3.77-5z" fill="#fff"/><path d="M75.72 286.5S217.13 403.05 403 402.17c0 0-34.82 37.36-108.96 46.91C204.1 460.66 131.9 430.24 75.72 286.5z" fill="url(#paint19_linear_2428_64815)"/><path d="M364.01 353.01l-12.89 29.78-8.73 11.95.78.4 10.4-9.93 10.44-32.2z" fill="url(#paint20_linear_2428_64815)"/><path d="M398.23 268.08s-21.64 1.18-21.59 24.93c.04 17.18-1.15 20.78-3.7 26.84a3.25 3.25 0 00-.02 2.47c.32.8.95 1.43 1.74 1.77 3.4 1.45 9.25 3.59 14.91 4.04 3.53.27 4.69 2 10.18 1.67 3.18-.18 6.73-.5 10.65-1l1.24-4.5 11.73-.76c2.82-4.15 3.74-11.22 3.66-18.2a64.015 64.015 0 00-4.13-21.5c-2.6-6.72-10-11.92-16.79-14.35-2.5-.94-5.18-1.42-7.88-1.41z" fill="url(#paint21_linear_2428_64815)"/><path d="M388 317.2s-.44 7.73-4.55 10.28c-4.23 2.62 5.05 9.08 17.05 4.35.79-.31 2.84-1.28 2.5-2.06-1.11-2.8-.6-9.32 2.24-18.19C409 299.86 388 317.2 388 317.2z" fill="url(#paint22_linear_2428_64815)"/><path d="M379.64 292.12c4.93-10.1 5.02-9.66 5.02-9.66 2.95 3.87 8.27 6.64 13.95 8.62 4.86 1.7 8.46.15 12.61.86-.17-1.23 1.83 3.06 2 3.3.51.92.76 1.95.74 3l.9 5.96c-1.09 5.33-5.4 4.38-5.4 4.38-.61.33-.88 2.19-.88 2.19-.23 2.94-2 4.64-4.36 6.42-2.65 2-14.64 6.84-18.31 3.97-1.98-1.55-3-3.09-4.14-6.68-.99-3.04-1.65-6.17-1.96-9.35l-.81-9.46c-.1-1.22.12-2.45.66-3.55h-.02z" fill="url(#paint23_linear_2428_64815)"/><path d="M408.18 298.75s2.31-3.37 4.39-1.07c4.05 4.47.21 11.75-3.15 10.92 0 0 3.3 7.54-1.21 17.76 0 0 6.57.74 16.3-4.21 1.71-.86 5.58-52.85-23.95-52.39 0 0-18.5.7-15.9 12.7 1.81 8.36 23.52 16.29 23.52 16.29z" fill="url(#paint24_linear_2428_64815)"/><path d="M408.55 310.79s4.81 6.05-1 17.33c0 0 .88 3 12.87-2.6 2.57-1.2 4.43-3.04 4.5-4.74.2-3.92-4.81-8.59-4.81-8.59l-11.56-1.4z" fill="url(#paint25_linear_2428_64815)"/><path d="M475.26 205.56l-3.79-1.27c.23-.68 23.07-69.15 35.96-138.97l3.93.73c-12.95 70.11-35.87 138.83-36.1 139.51z" fill="url(#paint26_linear_2428_64815)"/><path d="M81.7 294.43s-48.26-81.37-58.92-133" stroke="url(#paint27_linear_2428_64815)" stroke-width="4" stroke-miterlimit="10"/><path d="M364.67 389.73c-.12-.13-2.82 7.16-.33 10.95 0 0 5.07-5.68.33-10.95z" fill="url(#paint28_radial_2428_64815)"/><path d="M358.67 388.1s-6.08-1.79-7.73-2.74c-1.95-1.14-3.83-.79-2.23 1.5 1.17 1.65 6.08 3.52 6.08 3.52l3.88-2.28z" fill="url(#paint29_linear_2428_64815)"/><path d="M372.6 392.06s-7.5-.45-11.31-2.75c-3.81-2.29-3.97-3.17-9.42-1.12a61.876 61.876 0 00-8 3.63c-.12.06-.22.15-.3.25-.08.1-.14.22-.18.35-.03.13-.04.26-.02.39s.07.26.14.37c.24.38.74.67 1.7.46 0 0-1.32.72-1.11 1.46.24.84.82 1.23 1.96 1.05-.13.07-.24.18-.31.3-.08.13-.12.27-.12.42 0 .15.03.29.1.42s.17.24.3.32c1.13.92 2.65-.31 2.65-.31s-1.31 1 .06 1.87c1.66 1.03 6.84-2.94 7.89-2.08 5.24 4.31 15.38 2.71 15.38 2.71l.59-7.74z" fill="url(#paint30_linear_2428_64815)"/><path d="M343.74 398.55s45.26 5.4 59.26 3.62c0 0-1.09.98-7 6.32-6 5.41-14.88 10.65-15.91 11.29-.81.5-43.54-4.44-51.5-9.26l15.15-11.97z" fill="url(#paint31_linear_2428_64815)"/><path d="M406.07 354.41l-1.8 20.04c-1.65 7.5-1.82 12.63-9.5 13.34l-30.11 1.93.29.82c.57 1.65.82 3.39.71 5.13-.11 1.74-.56 3.44-1.33 5l18.46 3.21c9.39 1.22 21.67 1.34 22.9 1.21 10.43-1.08 12.26-5.55 14.54-12.45 4.46-13.5 7.43-37.25 7.43-37.25.32-8.11-4.12-18.17-11.06-21.67-.99-.5-2.03-.91-3.1-1.23l-8-2.39.57 24.31z" fill="url(#paint32_linear_2428_64815)"/><path d="M365.09 398.82s31.82-3.68 36.34-9.08c2.45-2.91 2.93-9.93 2.93-9.93s-.82 7-6.36 7.4c-3.86.26-26.66 1.9-33.33 2.53 0-.01 2.05 4.49.42 9.08z" fill="url(#paint33_linear_2428_64815)"/><path d="M409.76 355.39s-3.68 18.68-6.75 28c-.72 2.2-.89 3.64-5 3.81-.01 0 1.86-5.6 11.75-31.81z" fill="url(#paint34_linear_2428_64815)"/><g opacity=".4"><path opacity=".4" d="M93.18 403.35H73l-33.33-28.74a22.891 22.891 0 0119.25 4.34c9.44 7.25 22.19 2.2 29.65 11.86 2.37 2.96 4.52 6.09 6.46 9.36.18.32.28.69.28 1.06 0 .37-.1.74-.29 1.06-.19.32-.46.59-.78.78-.32.18-.69.28-1.06.28z" fill="url(#paint35_linear_2428_64815)"/><path opacity=".4" d="M82.34 403.35H23.61c-.53 0-1.05-.12-1.53-.36-.47-.24-.88-.6-1.18-1.03-.3-.43-.5-.94-.57-1.46-.07-.53-.01-1.06.17-1.56 3.09-8.5 10.6-26.04 19.15-24.32 11.23 2.24 9.43 10.66 24.25 14.31 14.82 3.65 18.44 14.42 18.44 14.42z" fill="url(#paint36_linear_2428_64815)"/></g><g opacity=".48"><path opacity=".48" d="M68.91 365.66l2.81 18.04.99-.18-2.81-18.04-.99.18z" fill="url(#paint37_linear_2428_64815)"/><path opacity=".48" d="M83.7 371.73c-.17.4-3.6 8.33-4.74 13.14l.97.23c1.11-4.73 4.64-12.88 4.68-13l-.91-.37z" fill="url(#paint38_linear_2428_64815)"/><path opacity=".48" d="M68.14 349.25l-2.39.33c-.66.09-1.12.7-1.03 1.36l1.92 13.88c.09.66.7 1.12 1.36 1.03l2.39-.33c.66-.09 1.12-.7 1.03-1.36l-1.92-13.88c-.09-.66-.7-1.12-1.36-1.03z" fill="url(#paint39_linear_2428_64815)"/><path opacity=".48" d="M84.47 372.03l-.64-.28c-.36-.14-.66-.41-.82-.76-.16-.35-.18-.76-.05-1.12l1.83-4.94c.07-.18.17-.35.3-.49.13-.14.29-.26.46-.34.18-.08.37-.13.56-.13.19-.01.39.02.57.09l.64.28c.36.14.65.42.82.77.16.35.18.75.05 1.12l-1.82 4.94c-.07.18-.17.35-.3.49-.13.14-.29.26-.46.34-.18.08-.37.13-.56.13-.2 0-.4-.03-.58-.1z" fill="url(#paint40_linear_2428_64815)"/></g><path d="M238.85 373.73c-80.16-27.77-137.6-67.87-156.44-82.04-.3-.51-.66-1.14-1.08-1.86-1.34-2.32-3.26-5.69-5.6-9.9a873.922 873.922 0 01-17.71-33.54c-9.51-19.03-19.64-41.21-26.61-61.62-1.27.42-2.53.85-3.78 1.29 7.07 20.71 17.3 43.09 26.81 62.11a882.288 882.288 0 0017.79 33.7c2.28 4.11 4.17 7.42 5.51 9.75 35.72 89.07 77.84 133.28 126.79 150.59 16.52-19.4 28.49-42.77 34.32-68.48z" fill="url(#paint41_radial_2428_64815)"/><path d="M408.47 527.59c-.62 0-1.24-.15-1.79-.43-.55-.29-1.03-.7-1.39-1.21-.36-.51-.59-1.1-.67-1.71-.08-.62-.02-1.24.2-1.83 3.04-8.42 9.11-24.29 12.1-26.05 4.09-2.4 39.08-11.2 40.9-14.06 1.82-2.87 23.86-23.64 28.34-23.06 15.5 2.04 32.22 28.37 38.12 29.5 4.46.86 12.54 22.56 16.23 33.15.23.65.29 1.34.19 2.02-.1.68-.36 1.32-.75 1.88-.4.56-.92 1.01-1.53 1.33-.61.31-1.29.48-1.97.48l-127.98-.01z" fill="url(#paint42_linear_2428_64815)"/><path d="M477.5 471.73s-19.69 28.92-22.82 30.27c-2.09.89-21.24 3.21-34.57 6.93a8.126 8.126 0 00-3.9 2.46c-2.55 2.89-7.59 8.69-10.68 12.57-.09.1-.21.16-.34.19-.13.02-.27 0-.38-.07a.587.587 0 01-.26-.3.58.58 0 01-.02-.39c1.72-4.66 4.38-11.83 5.31-14.09 2.2-5.33 5.35-12.24 7.09-12.96 2.86-1.18 35.13-11 39.61-13.79 4.48-2.79 17.8-17.62 25.02-21.36 0 .01-2.8 8.71-4.06 10.54z" fill="#E7EFFF"/><path d="M472.67 541.46c41.69 0 75.48-33.79 75.48-75.48 0-41.69-33.79-75.48-75.48-75.48-41.69 0-75.48 33.79-75.48 75.48 0 41.69 33.8 75.48 75.48 75.48z" fill="url(#paint43_radial_2428_64815)"/><path opacity=".4" d="M274 534c140 0 253.5-11.3 253.5-25.25S414 483.5 274 483.5 20.5 494.8 20.5 508.75 134 534 274 534z" fill="url(#paint44_radial_2428_64815)"/><defs><linearGradient id="paint25_linear_2428_64815" x1="384.551" y1="274.859" x2="408.831" y2="312.009" gradientUnits="userSpaceOnUse"><stop stop-color="#EBD2A2"/><stop offset="1" stop-color="#CDA683"/></linearGradient><linearGradient id="paint1_linear_2428_64815" x1="417.173" y1="113.159" x2="403.888" y2="64.004" gradientUnits="userSpaceOnUse"><stop stop-color="#BDD4FF"/><stop offset="1" stop-color="#77A7FF"/></linearGradient><linearGradient id="paint3_linear_2428_64815" x1="310.351" y1="269.015" x2="320.416" y2="153.975" gradientUnits="userSpaceOnUse"><stop stop-color="#77A7FF"/><stop offset="1" stop-color="#BDD4FF"/></linearGradient><linearGradient id="paint4_linear_2428_64815" x1="-7081.47" y1="55105.8" x2="662.533" y2="-1533.99" gradientUnits="userSpaceOnUse"><stop stop-color="#77A7FF"/><stop offset="1" stop-color="#BDD4FF"/></linearGradient><linearGradient id="paint5_linear_2428_64815" x1="99813.5" y1="121001" x2="69874.5" y2="84607.3" gradientUnits="userSpaceOnUse"><stop stop-color="#77A7FF"/><stop offset="1" stop-color="#BDD4FF"/></linearGradient><linearGradient id="paint6_linear_2428_64815" x1="39790.9" y1="68728.3" x2="29745.3" y2="51371" gradientUnits="userSpaceOnUse"><stop stop-color="#77A7FF"/><stop offset="1" stop-color="#BDD4FF"/></linearGradient><linearGradient id="paint7_linear_2428_64815" x1="-12110.8" y1="49949.3" x2="-6439.44" y2="26856.1" gradientUnits="userSpaceOnUse"><stop stop-color="#77A7FF"/><stop offset="1" stop-color="#BDD4FF"/></linearGradient><linearGradient id="paint8_linear_2428_64815" x1="60953.1" y1="124934" x2="42558.1" y2="87090.1" gradientUnits="userSpaceOnUse"><stop stop-color="#77A7FF"/><stop offset="1" stop-color="#BDD4FF"/></linearGradient><linearGradient id="paint9_linear_2428_64815" x1="18.926" y1="276.352" x2="63.881" y2="274.641" gradientUnits="userSpaceOnUse"><stop offset=".24" stop-color="#fff"/><stop offset=".33" stop-color="#fff" stop-opacity=".91"/><stop offset=".52" stop-color="#fff" stop-opacity=".68"/><stop offset=".79" stop-color="#fff" stop-opacity=".3"/><stop offset="1" stop-color="#fff" stop-opacity="0"/></linearGradient><linearGradient id="paint10_linear_2428_64815" x1="489.99" y1="353.497" x2="454.569" y2="230.667" gradientUnits="userSpaceOnUse"><stop offset=".24" stop-color="#fff"/><stop offset=".44" stop-color="#E1EBFE" stop-opacity=".71"/><stop offset=".83" stop-color="#ACC7FB" stop-opacity=".2"/><stop offset="1" stop-color="#97B9FA" stop-opacity="0"/></linearGradient><linearGradient id="paint13_linear_2428_64815" x1="328.478" y1="403.87" x2="367.163" y2="267.675" gradientUnits="userSpaceOnUse"><stop stop-color="#233B67"/><stop offset=".774" stop-color="#305EB2"/></linearGradient><linearGradient id="paint14_linear_2428_64815" x1="349.767" y1="329.627" x2="382.916" y2="404.329" gradientUnits="userSpaceOnUse"><stop stop-color="#FFE4E8"/><stop offset="1" stop-color="#F64F64"/></linearGradient><linearGradient id="paint15_linear_2428_64815" x1="339.335" y1="419.406" x2="340.103" y2="390.549" gradientUnits="userSpaceOnUse"><stop stop-color="#BDD4FF"/><stop offset="1" stop-color="#EDF3FF"/></linearGradient><linearGradient id="paint16_linear_2428_64815" x1="339.754" y1="374.253" x2="276.395" y2="383.592" gradientUnits="userSpaceOnUse"><stop stop-color="#BDD4FF"/><stop offset="1" stop-color="#EDF3FF"/></linearGradient><linearGradient id="paint17_linear_2428_64815" x1="342.474" y1="362.403" x2="276.224" y2="393.403" gradientUnits="userSpaceOnUse"><stop stop-color="#F4F8FF"/><stop offset="1" stop-color="#C7DAFF"/></linearGradient><linearGradient id="paint18_linear_2428_64815" x1="304.301" y1="404.968" x2="307.455" y2="398.318" gradientUnits="userSpaceOnUse"><stop stop-color="#BDD4FF"/><stop offset="1" stop-color="#EDF3FF"/></linearGradient><linearGradient id="paint19_linear_2428_64815" x1="15582.5" y1="176213" x2="12645.5" y2="142548" gradientUnits="userSpaceOnUse"><stop stop-color="#233B67"/><stop offset=".774" stop-color="#305EB2"/></linearGradient><linearGradient id="paint20_linear_2428_64815" x1="350.378" y1="383.436" x2="358.837" y2="360.416" gradientUnits="userSpaceOnUse"><stop stop-color="#F64F64"/><stop offset="1" stop-color="#F64F64" stop-opacity="0"/></linearGradient><linearGradient id="paint21_linear_2428_64815" x1="381.117" y1="277.103" x2="405.397" y2="314.253" gradientUnits="userSpaceOnUse"><stop stop-color="#EBD2A2"/><stop offset="1" stop-color="#CDA683"/></linearGradient><linearGradient id="paint2_linear_2428_64815" x1="461.848" y1="10145.1" x2="399.848" y2="8142.97" gradientUnits="userSpaceOnUse"><stop stop-color="#BDD4FF"/><stop offset="1" stop-color="#77A7FF"/></linearGradient><linearGradient id="paint23_linear_2428_64815" x1="393.281" y1="318.219" x2="398.099" y2="293.164" gradientUnits="userSpaceOnUse"><stop stop-color="#FFE8E1"/><stop offset="1" stop-color="#F6CFBE"/></linearGradient><linearGradient id="paint24_linear_2428_64815" x1="391.821" y1="270.107" x2="416.101" y2="307.257" gradientUnits="userSpaceOnUse"><stop stop-color="#EBD2A2"/><stop offset="1" stop-color="#CDA683"/></linearGradient><linearGradient id="paint22_linear_2428_64815" x1="401.689" y1="326.384" x2="393.337" y2="318.461" gradientUnits="userSpaceOnUse"><stop stop-color="#FFE8E1"/><stop offset="1" stop-color="#F6CFBE"/></linearGradient><linearGradient id="paint26_linear_2428_64815" x1="481.238" y1="198.171" x2="496.444" y2="104.043" gradientUnits="userSpaceOnUse"><stop stop-color="#305EB2"/><stop offset="1" stop-color="#305EB2" stop-opacity="0"/></linearGradient><linearGradient id="paint27_linear_2428_64815" x1="21.801" y1="228.238" x2="82.556" y2="228.238" gradientUnits="userSpaceOnUse"><stop offset=".15" stop-color="#fff" stop-opacity="0"/><stop offset="1" stop-color="#76A6FF"/></linearGradient><linearGradient id="paint29_linear_2428_64815" x1="339.48" y1="381.781" x2="353.443" y2="387.827" gradientUnits="userSpaceOnUse"><stop stop-color="#FFE8E1"/><stop offset="1" stop-color="#F6CFBE"/></linearGradient><linearGradient id="paint30_linear_2428_64815" x1="343.739" y1="401.139" x2="363.891" y2="393.222" gradientUnits="userSpaceOnUse"><stop stop-color="#FFE8E1"/><stop offset="1" stop-color="#F6CFBE"/></linearGradient><linearGradient id="paint31_linear_2428_64815" x1="368.139" y1="401.505" x2="356.784" y2="424.94" gradientUnits="userSpaceOnUse"><stop stop-color="#3564B6" stop-opacity=".4"/><stop offset=".68" stop-color="#6298FF" stop-opacity="0"/></linearGradient><linearGradient id="paint32_linear_2428_64815" x1="371.6" y1="319.938" x2="404.749" y2="394.641" gradientUnits="userSpaceOnUse"><stop stop-color="#FFE4E8"/><stop offset="1" stop-color="#F64F64"/></linearGradient><linearGradient id="paint33_linear_2428_64815" x1="383.66" y1="386.391" x2="386.63" y2="394.556" gradientUnits="userSpaceOnUse"><stop offset=".15" stop-color="#FFA9B4" stop-opacity=".4"/><stop offset="1" stop-color="#FA8191" stop-opacity="0"/></linearGradient><linearGradient id="paint34_linear_2428_64815" x1="398.766" y1="392.681" x2="405.083" y2="367.733" gradientUnits="userSpaceOnUse"><stop stop-color="#F64F64"/><stop offset="1" stop-color="#F64F64" stop-opacity="0"/></linearGradient><linearGradient id="paint35_linear_2428_64815" x1="39.669" y1="388.693" x2="95.311" y2="388.693" gradientUnits="userSpaceOnUse"><stop stop-color="#77A7FF"/><stop offset="1" stop-color="#4687FF"/></linearGradient><linearGradient id="paint36_linear_2428_64815" x1="20.364" y1="388.944" x2="82.314" y2="388.944" gradientUnits="userSpaceOnUse"><stop stop-color="#77A7FF"/><stop offset="1" stop-color="#4687FF"/></linearGradient><linearGradient id="paint37_linear_2428_64815" x1="68.909" y1="374.61" x2="72.701" y2="374.61" gradientUnits="userSpaceOnUse"><stop stop-color="#77A7FF"/><stop offset="1" stop-color="#4687FF"/></linearGradient><linearGradient id="paint38_linear_2428_64815" x1="78.96" y1="378.394" x2="84.615" y2="378.394" gradientUnits="userSpaceOnUse"><stop stop-color="#77A7FF"/><stop offset="1" stop-color="#4687FF"/></linearGradient><linearGradient id="paint39_linear_2428_64815" x1="64.719" y1="357.562" x2="71.438" y2="357.562" gradientUnits="userSpaceOnUse"><stop stop-color="#77A7FF"/><stop offset="1" stop-color="#4687FF"/></linearGradient><linearGradient id="paint40_linear_2428_64815" x1="82.875" y1="368.048" x2="88.273" y2="368.048" gradientUnits="userSpaceOnUse"><stop stop-color="#77A7FF"/><stop offset="1" stop-color="#4687FF"/></linearGradient><linearGradient id="paint42_linear_2428_64815" x1="472.855" y1="520.02" x2="475.27" y2="472.665" gradientUnits="userSpaceOnUse"><stop stop-color="#BDD4FF"/><stop offset="1" stop-color="#E7EFFF"/></linearGradient><radialGradient id="paint11_radial_2428_64815" cx="0" cy="0" r="1" gradientUnits="userSpaceOnUse" gradientTransform="rotate(180 269.558 121.241) scale(161.715)"><stop stop-color="#fff"/><stop offset=".04" stop-color="#fff" stop-opacity=".91"/><stop offset=".15" stop-color="#fff" stop-opacity=".7"/><stop offset=".26" stop-color="#fff" stop-opacity=".51"/><stop offset=".37" stop-color="#fff" stop-opacity=".35"/><stop offset=".49" stop-color="#fff" stop-opacity=".23"/><stop offset=".6" stop-color="#fff" stop-opacity=".13"/><stop offset=".73" stop-color="#fff" stop-opacity=".06"/><stop offset=".85" stop-color="#fff" stop-opacity=".01"/><stop offset="1" stop-color="#fff" stop-opacity="0"/></radialGradient><radialGradient id="paint12_radial_2428_64815" cx="0" cy="0" r="1" gradientUnits="userSpaceOnUse" gradientTransform="matrix(-252.394 0 0 -24.9895 297.698 607.617)"><stop stop-color="#4873C4" stop-opacity=".9"/><stop offset=".13" stop-color="#4772C2" stop-opacity=".88"/><stop offset=".26" stop-color="#456EBC" stop-opacity=".82"/><stop offset=".38" stop-color="#4168B2" stop-opacity=".73"/><stop offset=".51" stop-color="#3B60A4" stop-opacity=".59"/><stop offset=".62" stop-color="#345592" stop-opacity=".41"/><stop offset=".74" stop-color="#2B487C" stop-opacity=".2"/><stop offset=".84" stop-color="#233B67" stop-opacity="0"/></radialGradient><radialGradient id="paint28_radial_2428_64815" cx="0" cy="0" r="1" gradientUnits="userSpaceOnUse" gradientTransform="matrix(4.05461 0 0 4.05459 364.992 395.21)"><stop offset=".91" stop-color="#F97486"/><stop offset="1" stop-color="#F86E80"/></radialGradient><radialGradient id="paint41_radial_2428_64815" cx="0" cy="0" r="1" gradientUnits="userSpaceOnUse" gradientTransform="rotate(180 40.674 164.413) scale(161.715)"><stop stop-color="#4687FF"/><stop offset="1" stop-color="#4687FF" stop-opacity="0"/></radialGradient><radialGradient id="paint0_radial_2428_64815" cx="0" cy="0" r="1" gradientUnits="userSpaceOnUse" gradientTransform="matrix(269.905 0 0 127.533 271.187 304.945)"><stop stop-color="#4687FF" stop-opacity=".5"/><stop offset="1" stop-color="#4687FF" stop-opacity="0"/></radialGradient><radialGradient id="paint43_radial_2428_64815" cx="0" cy="0" r="1" gradientUnits="userSpaceOnUse" gradientTransform="translate(294357 139793) scale(22868.9)"><stop stop-color="#fff"/><stop offset=".04" stop-color="#fff" stop-opacity=".91"/><stop offset=".15" stop-color="#fff" stop-opacity=".7"/><stop offset=".26" stop-color="#fff" stop-opacity=".51"/><stop offset=".37" stop-color="#fff" stop-opacity=".35"/><stop offset=".49" stop-color="#fff" stop-opacity=".23"/><stop offset=".6" stop-color="#fff" stop-opacity=".13"/><stop offset=".73" stop-color="#fff" stop-opacity=".06"/><stop offset=".85" stop-color="#fff" stop-opacity=".01"/><stop offset="1" stop-color="#fff" stop-opacity="0"/></radialGradient><radialGradient id="paint44_radial_2428_64815" cx="0" cy="0" r="1" gradientUnits="userSpaceOnUse" gradientTransform="matrix(253.456 0 0 25.2344 273.988 508.982)"><stop stop-color="#4873C4" stop-opacity=".9"/><stop offset="1" stop-color="#fff" stop-opacity="0"/></radialGradient></defs></svg>