<svg width="512" height="111.16" xmlns="http://www.w3.org/2000/svg"><path d="M499.86 37.684c0-3.322 2.692-6.07 6.07-6.07s6.071 2.748 6.071 6.07c0 3.379-2.691 6.07-6.07 6.07s-6.071-2.748-6.071-6.07zm1.145 0c0 2.749 2.177 4.983 4.926 4.983 2.691 0 4.925-2.234 4.925-4.983 0-2.749-2.234-4.983-4.925-4.983-2.75 0-4.926 2.234-4.926 4.983zm4.01 3.436h-1.432v-6.93h2.749c1.374 0 2.462.688 2.462 2.177 0 1.03-.573 1.66-1.317 2.004l1.432 2.75h-1.546l-1.26-2.52h-1.089zm1.202-5.555h-1.203v1.718h1.203c.516 0 1.088-.23 1.088-.86 0-.686-.572-.858-1.088-.858zm-290.53 49.94-24.74-37.17v37.17h-11.054V31.613h12.771l23.366 35.164V31.613h11.053v53.892zm36.653-37.57c-11.168 0-20.159 8.304-20.159 19.3 0 11.11 8.877 19.128 20.045 19.128 11.111 0 20.102-8.247 20.102-19.358-.057-10.996-8.934-19.071-19.987-19.071zm-.114 28.52c-5.04 0-9.106-3.836-9.106-9.449 0-5.498 4.009-9.335 8.991-9.335 5.04 0 9.106 3.837 9.106 9.335.057 5.613-3.952 9.45-8.991 9.45zm47.878-27.718v10.538c-1.432-.286-2.979-.286-3.437-.286-5.154 0-8.762 3.608-8.762 10.423v16.093h-10.538V48.737h10.194v5.383h.114c2.005-4.18 5.728-5.784 9.507-5.784.86 0 2.177.171 2.921.4zm30.754-17.124v21.362h-.115c-3.78-4.467-8.877-4.868-10.996-4.868-10.538 0-17.639 9.679-17.639 19.014 0 9.908 6.815 19.128 17.468 19.128 2.463 0 7.96-.344 11.454-5.384h.115v4.697h10.423v-53.95zm-8.82 44.843c-5.04 0-9.106-3.837-9.106-9.45 0-5.498 4.066-9.278 9.106-9.278s9.106 3.78 9.106 9.278c-.057 5.613-4.066 9.45-9.106 9.45zm42.323 9.049-19.53-53.892h12.085l13.974 40.949 14.03-40.95h11.856l-19.587 53.893zm57.042-53.892h-20.045v53.892h11.168V66.49h8.419c11.282 0 19.7-5.727 19.7-17.64 0-11.396-8.475-17.237-19.242-17.237zm-.916 24.512h-7.961V42.15h7.903c4.64 0 8.992 1.775 8.992 7.044 0 4.983-4.525 6.93-8.934 6.93zm61.566 29.38-24.798-37.17v37.17h-10.996V31.613h12.77l23.367 35.164V31.613h11.053v53.892z" fill="#2c3038"/><path d="M13.287 111.11C4.926 99.599 0 85.395 0 69.99 0 31.332 31.27.005 69.87.005c38.6 0 69.87 31.327 69.87 70.042 0 15.349-4.925 29.552-13.287 41.12L92.892 56.531l-3.264 5.498 3.264 15.234-23.08-39.517-14.203 24.111 3.322 15.406-12.084-20.675z" fill="#4580ff"/></svg>